<svg version="1.1" viewBox="0 0 24 24" xmlns="http://www.w3.org/2000/svg">
  <path transform="matrix(1.04 0 0 1.04 -.488 -.471)" d="m12 1-9 4v6c0 5.55 3.84 10.7 9 12 5.16-1.26 9-6.45 9-12v-6z" fill="#e3dbdb" stroke="#c8b7b7" stroke-width=".769"/>
  <path transform="matrix(.265 0 0 .265 -8.1 -7.41)" d="m82.3 87.7c7.37-.814 14.3-4.72 18.1-11.2-1.81 16.1-19.5 26.3-34 20-1.33-.575-2.48-1.53-3.27-2.76-3.25-5.07-4.32-11.5-2.79-17.4 4.39 7.53 13.3 12.1 21.9 11.3z" fill="#6c5353"/>
  <path transform="matrix(.265 0 0 .265 -8.1 -7.41)" d="m60.1 71.6c-2.99 6.86-3.12 14.9.546 21.5-12.9-9.64-12.8-30.3-.158-39.8 1.16-.882 2.55-1.41 4-1.48 5.97-.313 12 1.98 16.3 6.25-8.64.0854-17.1 5.59-20.7 13.5z" fill="#6c5353"/>
  <path transform="matrix(.265 0 0 .265 -8.1 -7.41)" d="m84.9 60.2c-4.36-6.04-11.2-10.2-18.7-10.3 14.5-6.52 32.2 4.05 34.2 19.7.18 1.45-.056 2.93-.703 4.24-2.7 5.45-7.71 9.68-13.6 11.2 4.29-7.9 3.76-17.6-1.24-24.9z" fill="#6c5353"/>
</svg>
