<svg xmlns="http://www.w3.org/2000/svg" width="840.35" height="883.61" fill="none">
  <g clip-path="url(#a)" transform="translate(-59.95 -38.47)">
    <g clip-path="url(#b)">
      <path fill="#171717" fill-rule="evenodd" d="M346.35 781.77c-5.28-32.68-6.23-66.14-7.15-99.33 8.98-5.15 15.95-13.88 17.96-24.07a36.94 36.94 0 0 0 38.44.47c10.39-6.35 15.95-18.5 15.95-30.67 6.06 16.14 12.15 32.44 14.76 49.47 2.63 17.1 1.54 35.22-6.26 50.65-4.9 9.71-12.15 17.87-19.41 26.03-3.05 3.43-6.1 6.85-8.96 10.4a88.07 88.07 0 0 0-10.68 16.3l.29.13c4.76-.96 9.6-1.53 14.46-1.72a98.72 98.72 0 0 1 62.46 19.09 96.73 96.73 0 0 1 23.14 24.73l.26-.19c18.04-26.91 18.38-56.76 6.72-87-1.83-4.73-4.02-9.35-6.2-13.97-3.99-8.39-7.96-16.76-9.75-25.83-1.75-8.84-1.32-17.86-.9-26.9.29-6.28.58-12.57.15-18.8-2.4-34.6-28.8-65.54-61.92-75.9-33.11-10.35-70.98-.94-97.28 21.69-26.3 22.63-41.1 57.21-42.22 91.9-.08 2.42-.1 4.87-.11 7.32-.07 8.9-.14 17.86-3.1 26.2-2.43 6.86-6.67 12.83-10.9 18.8a161.32 161.32 0 0 0-5.65 8.28c-17.8 28.35-17.06 67.23 1.8 94.88a109.68 109.68 0 0 1 26.25-29.6c15.7-12.4 34.01-20.94 52.96-27.6 4.67-1.66 9.4-3.2 14.12-4.64zm80.52-191.44a1.81 1.81 0 0 0-2.19 2.88 84.23 84.23 0 0 1 33.3 67 1.82 1.82 0 0 0 3.63-.01 87.85 87.85 0 0 0-34.74-69.87z" clip-rule="evenodd"/>
      <path fill="url(#c)" fill-rule="evenodd" d="M773.94 565.78c-.1-1.29-.22-2.58-.46-3.82-.15-.86-.4-1.69-.75-2.49-2.71-6.13-10.86-7.1-17.56-7.17l-5.05-.06-3.78-.04-50.31-.53-13.47-.15c-4.29-.04-8.66-.08-12.78 1.14a15.44 15.44 0 0 0-8.96 6.41c-.27.46-.51.94-.72 1.43-.52 1.25-.81 2.6-1.1 3.95-.4 1.91-.81 3.82-1.9 5.42a9.37 9.37 0 0 1-5.72 3.67c-2.28.51-4.62.66-6.94.43-2.7-.22-5.38-.64-8.06-1.06a83.43 83.43 0 0 0-10.32-1.19c-6.18-.2-12.8 1.25-17.02 5.74-3.83 4.06-5.08 9.87-5.74 15.41a113.6 113.6 0 0 0 .38 29.76l-.61.95a190.67 190.67 0 0 0 208-1.55c2.67-8.1 1.39-27.4-3.43-34.35a27.92 27.92 0 0 0-21.59-11.78 39.3 39.3 0 0 0-1.55-.03c-2.74-.03-5.58-.07-7.65-1.77-2.38-1.98-2.64-5.11-2.91-8.32zm17.83 18.95a1.81 1.81 0 0 0-1.76 3.17c8.82 4.9 13.08 16.82 9.38 26.21a1.81 1.81 0 1 0 3.37 1.33c4.37-11.08-.58-24.92-10.99-30.7z" clip-rule="evenodd" style="fill:url(#c)"/>
      <path fill="url(#d)" fill-rule="evenodd" d="m479.49 387.1-1.14-.81a209.72 209.72 0 0 0-122.82-30.56 9.5 9.5 0 0 1-1.78 4.71c-2.8 3.7-8.1 4.16-12.73 4.3l-101.03 2.98c-3.61.1-7.6.1-10.36-2.25a8.15 8.15 0 0 1-1.92-2.4l-2 1.01a182.67 182.67 0 0 0-87.21 45.7 224.37 224.37 0 0 0 340.99-22.67zm-113.54-18.99a196.32 196.32 0 0 1 87.9 19.92 1.82 1.82 0 0 0 1.6-3.26 199.96 199.96 0 0 0-89.53-20.28 1.81 1.81 0 1 0 .03 3.62z" clip-rule="evenodd" style="fill:url(#d)"/>
      <path fill="url(#e)" d="m787.46 575.5-.05.48c-.45-.03-.9-.07-1.36-.08-3.18-.11-6.74.23-9.2-1.8-3.33-2.77-2.51-7.8-3.37-12.14 2.86-.2 5.73-.38 8.6-.57 2.7-.18 5.71-.25 7.7 1.57 1.84 1.69 2.17 4.56 1.45 6.96-.73 2.4-2.23 3.62-3.77 5.58z" style="fill:url(#e)"/>
      <path fill="#171717" d="M769.9 446.47c12.5 4.37 19.56 20.2 14.47 32.43-5.1 12.24-21.34 18.36-33.25 12.52l-1.92-.01c.18-17.66-.24-35.31-1.26-52.96-.37-6.54-.96-13.45-4.8-18.76-3.95-5.47-10.61-8.21-17.06-10.2a138.6 138.6 0 0 0-67.64-3.48l.1 15c-7.75 1.92-16.3 1.42-23.3-2.47-7.03-3.91-12.2-11.51-12.13-19.57.06-8.06 6-15.98 13.94-17.36-4.13-9.07-5.87-19.74-2.29-29.04 3.6-9.3 13.51-16.5 23.33-14.8 9.42 1.64 15.84 10.2 21.25 18.07-.75-9.78 7.18-19.2 16.83-20.98 9.65-1.79 19.95 3.59 24.84 12.12 4.88 8.52 4.5 19.55-.09 28.24 6.76-4.44 14.82-7.31 22.88-6.63 8.06.67 16 5.35 19.3 12.73 3.29 7.38.9 17.24-6.12 21.26 11.28-2.7 24.04 4.67 27.31 15.81 3.28 11.14-3.45 24.25-14.4 28.08z"/>
      <path fill="url(#f)" d="M660.1 560.5c-1.26 3.04-1.14 6.64-3 9.37a9.37 9.37 0 0 1-5.72 3.67l-.08-.31c-1.73-.4-6.2-.93-7.75-1.82a6.32 6.32 0 0 1-3.23-4.03c-.5-2.5 1.2-5.05 3.43-6.27a14.86 14.86 0 0 1 7.44-1.34c2.54.2 5.1.1 7.62-.3l2-.4c-.26.46-.5.93-.7 1.42z" style="fill:url(#f)"/>
      <path fill="#171717" d="M310.73 118.41c1.3-7.84 2.84-15.94 7.72-22.19 5.05-6.45 14.9-9.95 21.67-5.34 4.7 3.2 6.63 9.41 6.11 15.08-.52 5.66-3.09 10.9-5.82 15.9 4.96-5.98 10.12-12.1 17.02-15.7 6.9-3.6 16.03-4.05 21.94 1.01 6.81 5.86 6.76 16.94 2.35 24.77-4.4 7.82-12.1 13.15-19.52 18.21l1.65 1.27c4.21 1.02 8.57-.53 12.86-1.23 4.29-.7 9.47-.15 11.74 3.56 2.27 3.69.3 8.81-3.19 11.38-3.48 2.58-7.98 3.23-12.3 3.7-4.8.52-9.59.9-14.4 1.17-31.42 1.82-63.14-.6-94.33 3.71-7.8 1.08-16.34 3.07-20.8 9.55-3.73 5.4-3.6 12.48-3.31 19.03l2.7 62.83-1.12.05c-3.64 8.9-16.84 11.94-24.02 5.55-6.65-5.9-5.9-17.82.87-23.3a8.09 8.09 0 0 0 1.8-1.21c-.64.35-1.24.76-1.8 1.22-6.27 3.3-15.5-.7-17.7-7.75-2.31-7.39 2.25-15.75 9.16-19.3.34-.13.68-.29 1-.47-.34.15-.67.3-1 .47-5.31 2.2-12.09-.64-14.95-5.72-3.03-5.41-2.13-12.44 1.16-17.72 3.29-5.28 8.6-9 14.2-11.66-6.1-2.54-8.85-10.33-7.05-16.68 1.8-6.36 7.21-11.19 13.24-13.9 6.03-2.72 12.67-3.62 19.22-4.5-1.72-7.54-1.79-15.67 1.23-22.8 3.02-7.12 9.5-13.02 17.17-14.02 6.6-.87 13.76 2.55 16.84 8.31.3 1.02.68 2 1.15 2.95a13 13 0 0 0-1.15-2.95 20.4 20.4 0 1 1 39.66-3.26z"/>
      <path fill="url(#g)" d="M355.53 355.74a9.48 9.48 0 0 1-1.77 4.7c-2.8 3.7-8.1 4.16-12.74 4.3L240 367.72c-3.61.1-7.6.1-10.37-2.25a8.17 8.17 0 0 1-1.92-2.4c-1.45-2.7-1.62-6.2-1.64-9.38-.05-4.96.07-10.38 3.27-14.16 3.65-4.29 9.92-4.93 15.54-5.24h.86c14.37-.06 29.01-1.56 43.27-3.2a183.8 183.8 0 0 1 25.16-.85c7.48.16 14.96.48 22.3.52 3.82.02 7.86.1 11.1 2.12 4.92 3.06 6.37 9.43 7.4 15.12.55 2.54.74 5.14.56 7.74z" style="fill:url(#g)"/>
      <path fill="url(#h)" d="M331.58 786.85a95.81 95.81 0 0 0 8.44 40.98c2.88 6.33 6.5 12.43 11.53 17.25 5.02 4.82 11.56 8.26 18.5 8.63 10.07.56 19.77-5.55 25.23-14.02 5.46-8.47 7.11-18.94 6.52-29-.6-10.06-3.31-19.86-6-29.57l-.05-1.68a98.72 98.72 0 0 1 62.46 19.08 96.72 96.72 0 0 1 23.14 24.73 98 98 0 0 1 15.58 43.99l1.24 1.38a199.53 199.53 0 0 1-257.76 8.6l.5-.61a82.29 82.29 0 0 1 11.34-32.88 109.7 109.7 0 0 1 26.25-29.6c15.7-12.4 34.02-20.94 52.96-27.6z" style="fill:url(#h)"/>
      <path stroke="#171717" stroke-linecap="round" stroke-linejoin="round" stroke-width="3.62" d="M297.3 252.56c4.68.68 9.46-.14 13.65-2.34l-9.71-48.46c-.79-3.87-1.5-8.15.47-11.58 2.38-4.14 7.73-5.41 12.52-5.72 9.22-.57 18.46.96 27.02 4.47"/>
      <path stroke="#171717" stroke-linecap="round" stroke-linejoin="round" stroke-width="3.62" d="M316.03 206.1a20.6 20.6 0 0 1 18.36.01m-46.25 1.92a15.22 15.22 0 0 0-22.08 1m20.91 71.5a14.77 14.77 0 0 1-19.3-8.67m46.53 56.83c-.87-4.71-1.74-9.48-1.39-14.25.35-4.78 2.04-9.63 5.58-12.85 5.7-5.17 14.58-4.98 20.93-9.33 8.2-5.63 9.83-16.88 10.72-26.8l8.53-95.15"/>
      <path stroke="#171717" stroke-linecap="round" stroke-linejoin="round" stroke-width="3.62" d="M245.74 333.23a178557.82 178557.82 0 0 1-5.62-130.95c-.29-6.56-.42-13.64 3.31-19.04 4.46-6.47 13.01-8.46 20.8-9.54 31.2-4.31 62.91-1.9 94.32-3.7 4.82-.29 9.62-.66 14.41-1.18 4.32-.47 8.8-1.12 12.3-3.7s5.46-7.7 3.2-11.38c-2.28-3.7-7.46-4.26-11.75-3.56-4.29.7-8.65 2.24-12.86 1.23m-145.31 96c-6.76 5.48-7.5 17.4-.86 23.3 7.18 6.38 20.37 3.34 24.02-5.55m-23.16-17.75a8.02 8.02 0 0 0 1.8-1.22c-.63.36-1.23.77-1.8 1.22z"/>
      <path stroke="#171717" stroke-linecap="round" stroke-linejoin="round" stroke-width="3.62" d="M210.01 220.37c-6.9 3.55-11.47 11.9-9.16 19.3 2.2 7.04 11.42 11.05 17.7 7.74m-8.53-27.04z"/>
      <path stroke="#171717" stroke-linecap="round" stroke-linejoin="round" stroke-width="3.62" d="M271.07 121.67c-3.08-5.76-10.23-9.18-16.84-8.3-7.67 1-14.15 6.9-17.17 14.02-3.02 7.11-2.94 15.25-1.23 22.8-6.55.88-13.2 1.77-19.22 4.49s-11.44 7.55-13.24 13.9c-1.8 6.35.96 14.15 7.06 16.68-5.6 2.67-10.92 6.4-14.2 11.66-3.3 5.27-4.2 12.31-1.17 17.72 2.86 5.09 9.64 7.93 14.96 5.73m61.05-98.7c.3 1.02.68 2 1.15 2.95a13 13 0 0 0-1.15-2.95zm39.66-3.26a20.39 20.39 0 1 0-39.66 3.26"/>
      <path stroke="#171717" stroke-linecap="round" stroke-linejoin="round" stroke-width="3.62" d="M362.2 150.15c7.42-5.07 15.1-10.4 19.52-18.22 4.42-7.82 4.46-18.9-2.36-24.77-5.9-5.06-15.05-4.61-21.93-1.01-6.89 3.6-12.06 9.72-17.02 15.7 2.73-4.99 5.3-10.24 5.82-15.9.52-5.66-1.41-11.88-6.11-15.08-6.78-4.61-16.63-1.1-21.68 5.34-4.88 6.25-6.42 14.35-7.71 22.2l-.14.83m-64.85 215.04h-.86c-5.62.32-11.89.96-15.54 5.25-3.2 3.78-3.32 9.2-3.27 14.15.02 3.18.2 6.68 1.64 9.39a8.15 8.15 0 0 0 1.92 2.4c2.77 2.34 6.76 2.36 10.37 2.25l101.02-2.99c4.64-.13 9.94-.59 12.74-4.29a9.5 9.5 0 0 0 1.77-4.7c.18-2.6-.01-5.2-.56-7.75-1.03-5.69-2.48-12.06-7.4-15.11-3.24-2.02-7.28-2.1-11.1-2.13-7.34-.03-14.82-.36-22.3-.52-8.4-.29-16.8 0-25.16.85-14.26 1.65-28.9 3.14-43.27 3.2zm-107.66 75.89.42-.4a182.67 182.67 0 0 1 87.2-45.69"/>
      <path stroke="#171717" stroke-linecap="round" stroke-linejoin="round" stroke-width="3.62" d="m354.78 355.79.75-.05a209.7 209.7 0 0 1 122.82 30.55m190.75 30.97 32.08 2.99c-3.22 14.47-6.45 28.93-9.66 43.4-.85 3.79-1.32 8.6 1.9 10.75 3.33 2.2 8.44-.11 11.5 2.45m7.64 21.34-1.97-.05a16.3 16.3 0 0 0 21.38-8.81M718.1 436.8l1.28-7.69"/>
      <path stroke="#171717" stroke-linecap="round" stroke-linejoin="round" stroke-width="3.62" d="M682.78 438.49a14.7 14.7 0 0 1 1.75-8.27"/>
      <path stroke="#171717" stroke-linecap="round" stroke-linejoin="round" stroke-width="3.62" d="M696.05 550.07c1.77-7.2 3.55-14.52 3.3-21.93-.24-7.4-2.77-15.07-8.38-19.94-6.82-5.93-17.02-6.86-23.66-13-7.77-7.18-8.38-19.04-8.45-29.6a73237.29 73237.29 0 0 1-.42-59.59 138.57 138.57 0 0 1 67.64 3.47c6.45 2 13.12 4.74 17.06 10.2 3.83 5.32 4.43 12.23 4.8 18.77a783.34 783.34 0 0 1 1.26 52.96c-.18 20-1.13 39.95-2.84 59.9"/>
      <path stroke="#171717" stroke-linecap="round" stroke-linejoin="round" stroke-width="3.62" d="m658.72 420.97-.17.03c-7.75 1.93-16.3 1.43-23.3-2.46-7.04-3.91-12.2-11.51-12.14-19.57.06-8.06 6-15.98 13.94-17.36-4.13-9.07-5.87-19.74-2.28-29.04 3.58-9.3 13.5-16.5 23.32-14.8 9.42 1.64 15.84 10.2 21.25 18.07-.75-9.78 7.18-19.2 16.83-20.98 9.65-1.78 19.96 3.59 24.84 12.12 4.88 8.52 4.5 19.55-.09 28.24 6.77-4.43 14.82-7.3 22.88-6.63 8.06.67 16 5.35 19.3 12.73 3.3 7.38.9 17.24-6.12 21.26 11.28-2.7 24.04 4.68 27.31 15.81 3.28 11.14-3.45 24.25-14.4 28.08 12.52 4.37 19.57 20.2 14.48 32.43-5.1 12.24-21.34 18.35-33.25 12.52M603.7 622.62a113.08 113.08 0 0 1-.39-29.75c.67-5.54 1.91-11.36 5.74-15.41 4.23-4.5 10.85-5.94 17.02-5.74 6.17.19 12.23 1.75 18.39 2.24 2.32.23 4.66.09 6.93-.42a9.38 9.38 0 0 0 5.73-3.67c1.85-2.73 1.73-6.33 3-9.38.2-.49.44-.96.71-1.42a15.43 15.43 0 0 1 8.96-6.41c4.12-1.22 8.5-1.19 12.79-1.14l13.46.14c16.77.19 33.54.36 50.32.54 2.95.03 5.88.05 8.83.1 6.7.07 14.84 1.04 17.55 7.17.34.8.6 1.63.75 2.5.86 4.33.04 9.37 3.37 12.13 2.46 2.03 6.02 1.7 9.2 1.8a27.9 27.9 0 0 1 21.59 11.78c4.82 6.96 6.1 26.25 3.43 34.36 0 .02 0 .06-.02.08"/>
      <path stroke="#171717" stroke-linecap="round" stroke-linejoin="round" stroke-width="3.62" d="M651.3 573.23c-1.73-.4-6.2-.93-7.74-1.82a6.3 6.3 0 0 1-3.24-4.03c-.5-2.5 1.2-5.05 3.43-6.27a14.86 14.86 0 0 1 7.44-1.34c2.55.2 5.1.1 7.63-.3m114.26 2.51.4-.02 8.6-.57c2.7-.18 5.72-.25 7.7 1.57 1.85 1.69 2.17 4.56 1.45 6.96-.73 2.39-2.23 3.62-3.77 5.58M252.32 843.83l-.07-.1c-18.86-27.66-19.6-66.53-1.8-94.88 5.64-8.99 13-17.08 16.56-27.09 3.77-10.63 2.84-22.25 3.2-33.52 1.12-34.68 15.92-69.26 42.22-91.9 26.3-22.62 64.17-32.03 97.28-21.68 33.11 10.36 59.52 41.3 61.92 75.9 1.06 15.23-2.2 30.72.75 45.7 2.78 14.05 10.8 26.45 15.95 39.8 11.66 30.24 11.32 60.09-6.72 87"/>
      <path stroke="#171717" stroke-linecap="round" stroke-linejoin="round" stroke-width="3.62" d="M316.52 687.1a35.5 35.5 0 0 0 22.68-4.66c8.98-5.16 15.94-13.88 17.96-24.06a36.93 36.93 0 0 0 38.44.47c10.39-6.36 15.95-18.5 15.95-30.67 0-1.34-.07-2.68-.2-4.01"/>
      <path stroke="#171717" stroke-linecap="round" stroke-linejoin="round" stroke-width="3.62" d="m411.5 628.05.05.13c6.06 16.14 12.15 32.43 14.76 49.47 2.63 17.09 1.55 35.22-6.26 50.65-6.94 13.78-18.65 24.44-28.38 36.42a88.16 88.16 0 0 0-10.67 16.3l-.3.6c-3.82 8-5.89 16.58-4.55 25.27"/>
      <path stroke="#171717" stroke-linecap="round" stroke-linejoin="round" stroke-width="3.62" d="M339.2 682.36v.08c.92 33.19 1.87 66.65 7.15 99.33 1.82 11.5 4.27 22.9 7.33 34.13 1.85 6.7 4.12 13.63 9.08 18.5 4.95 4.88 13.4 6.89 18.93 2.67 4.1-3.13 5.52-8.63 6.1-13.75 1.66-14.32-.2-28.82-6.87-41.6m6.38-84.52c2.98-.06 6.62-.51 7.8-3.27.78-1.82.08-3.91-.62-5.77l-6.42-17.13m-16.41 2.18a9 9 0 0 0-12.47 1.13m53.62-4.73a7.74 7.74 0 0 0-11.03.84m-16.62 52.53a13.11 13.11 0 0 1-16.81-9.02m-22.76 67.93a352.77 352.77 0 0 0-14.12 4.63c-18.94 6.67-37.26 15.21-52.96 27.6a109.7 109.7 0 0 0-26.25 29.6 82.27 82.27 0 0 0-11.34 32.89m140.38-95.46c4.77-.95 9.6-1.52 14.46-1.72a98.72 98.72 0 0 1 62.46 19.09 96.72 96.72 0 0 1 23.14 24.73 98 98 0 0 1 15.58 43.98"/>
      <path stroke="#171717" stroke-linecap="round" stroke-linejoin="round" stroke-width="3.62" d="M331.58 786.85a95.81 95.81 0 0 0 8.44 40.98c2.88 6.33 6.5 12.43 11.53 17.25 5.02 4.82 11.56 8.26 18.5 8.63 10.07.56 19.77-5.55 25.23-14.02 5.46-8.47 7.11-18.94 6.52-29-.6-10.06-3.31-19.86-6-29.57M138.5 409.77A216.2 216.2 0 0 1 77.3 259c0-120.8 99.45-218.72 222.12-218.72 122.68 0 222.13 97.92 222.13 218.72.04 46.1-14.7 91-42.06 128.1a224.35 224.35 0 0 1-340.99 22.67Z"/>
      <path stroke="#171717" stroke-linecap="round" stroke-linejoin="round" stroke-width="3.62" d="M240.41 877.22a199.12 199.12 0 0 1-75.72-156.47c0-110.2 89.33-199.54 199.54-199.54 110.2 0 199.53 89.33 199.53 199.54A199.55 199.55 0 0 1 240.4 877.22v0zm362.67-253.64a190.4 190.4 0 0 1-87.78-160.5c0-105.26 85.33-190.58 190.58-190.58 105.25 0 190.59 85.32 190.59 190.58a190.61 190.61 0 0 1-293.4 160.5zM333.9 806.73l14.33-6.5"/>
      <path stroke="#171717" stroke-linecap="round" stroke-linejoin="round" stroke-width="3.62" d="M339.91 826.89a64.3 64.3 0 0 1 12.6-7.65m.54 27.19 9.5-9.9m11.81 16.39.25-12.16m10.45-6.64a55.49 55.49 0 0 0 10.73 2.53m-7.01-17.34a44.6 44.6 0 0 1 12.1-4.18m-13.18-16.28 10.2-2.24m-23.71 56.76c1.94 21.48 3.44 43 4.5 64.54M324.6 856.1l-4.27-7.88m-2.82 8.49 10.03-6.8m123.54 15.96a95.8 95.8 0 0 1-7.8-6.52"/>
      <path stroke="#171717" stroke-linecap="round" stroke-linejoin="round" stroke-width="3.62" d="m444.4 867.88-.43.03 6.33-10.12m-15.52-38.33a61.34 61.34 0 0 1-7.44-7.27m.79 8.5 6.59-10.75m-21.78 84.9a56.63 56.63 0 0 1-7.84-7.12m7.72-1.62-6.92 9.8m-60.64 9.03a74.89 74.89 0 0 0 10.53-12.95m-.85 12.23-9.01-10.64m-71.86-26.15a52.58 52.58 0 0 1 5.65-7.76"/>
      <path stroke="#171717" stroke-linecap="round" stroke-linejoin="round" stroke-width="3.62" d="M279.69 866.7a31.93 31.93 0 0 1-6.25-7.4m485.3-286.92-.4-10.88m-16.06 10.67a42.7 42.7 0 0 0 0-10.44m-17.01 9.38c.49-3.32.64-6.68.44-10.03m-17.26 8.95.27-9.6m-17.57 9a18 18 0 0 0 .7-7.71m-18.03 8.52.4-8.95m29.24 19.03a2.67 2.67 0 1 0 .45.24m35.79-.24a2.68 2.68 0 1 0 .44.24"/>
      <path stroke="#171717" stroke-linecap="round" stroke-linejoin="round" stroke-width="3.62" d="M701.97 582.4c-3.04 3.52-3.7 8.58-3.01 13.18.69 4.6 2.57 8.92 4.11 13.3 1.55 4.4 2.79 9.06 2.13 13.66-.66 4.6-3.63 9.14-8.1 10.42m41.19-49.78a28.17 28.17 0 0 1 9 25.24c-.54 3.26-1.66 6.4-2.1 9.68-.45 3.28-.1 6.87 1.95 9.45M337.87 364.3l-.75-32.4m-19.65 33.27 1.3-33.55m-22.13 33.83-1.01-32.98m-22.9 33.54a577.4 577.4 0 0 1-.74-32.68m-20.72 33.25-.15-30.4m-13.7 30.12-.85-29.56m182.12 66.76a7.9 7.9 0 0 0-5.32-9.94c-2.72-.67-5.53.2-8.25.83-2.72.63-5.78.99-8.13-.51-2.58-1.66-3.45-4.97-4.04-7.97m-22.27 64.14a7.14 7.14 0 0 0-.73-9.23c-1.41-1.33-3.33-2.02-4.81-3.28-1.48-1.26-2.45-3.6-1.24-5.12m-51.78-6.28a23.43 23.43 0 0 1-2.2-6.07 7.9 7.9 0 0 1 1.29-6.15c1.09-1.38 2.74-2.2 4.04-3.38a9.52 9.52 0 0 0 2.8-9.24M255.1 449c-.56-2.52-2.15-4.67-3.34-6.97-1.2-2.3-2-5.1-.88-7.44.97-2.03 3.12-3.17 4.75-4.73a11.54 11.54 0 0 0 3.28-10.38m-40.19-7.96a18.67 18.67 0 0 1-.49-6.3 6.33 6.33 0 0 1 3.46-4.99c1.22-.5 2.6-.48 3.86-.88a7.92 7.92 0 0 0 4.74-5.1c.68-2.32 1-4.73.94-7.14m-57.5 30.29c-.27-1.72-.3-3.47-.1-5.2a6.45 6.45 0 0 1 2.57-4.4c1.3-.67 2.68-1.18 4.1-1.52a10 10 0 0 0 6.12-6.76m208.44-216.08 19.78-21.52m-16.78 37.48a291.18 291.18 0 0 0 56.27-14.73m-61.63 32.84c5.04 5 11.08 8.87 17.72 11.36M206.03 122.98l7.23-12.37m1.52 12.25a43.2 43.2 0 0 0-11.43-11.6m-20.22 57.73-7.74-15.75m-4.35 14.91c4.3-4.71 9.2-8.85 14.56-12.3M611.57 430.8a33.04 33.04 0 0 0-6.06-10.18m-1.75 9.7 8.9-9.43m4.24 61.01a67.3 67.3 0 0 1-14.69-9.81m1.21 14.16 11.74-21.62m-112.02 332.4a62.6 62.6 0 0 0 1.73-43.3m-276.81 24.61a66.72 66.72 0 0 1 13.3-32.08m32.91-138.5a32.62 32.62 0 0 1 9.38-9.38m-2 11.86-8.1-14.5m-30.07 36.75.74-17.06m-10.47 9.72 18.78-1.58m-97.87 140.57a80.03 80.03 0 0 1-1.54-63.2m699.48-89.61a158.14 158.14 0 0 0 45.89-70.63M86.42 375.27a134.9 134.9 0 0 1-24.66-71.51m542.38-169.39a63.7 63.7 0 0 0-19.4 39.66c-1.03 10.63 1.73 23.05 11.2 27.98 8.69 4.53 20.87-.28 24.11-9.53 1.19-3.37 1.08-7.6-1.6-9.96-3.3-2.9-8.6-1.47-12.16 1.12a24.66 24.66 0 0 0-9.23 25.05c1.8 7.53 7.06 13.67 12.14 19.51 5.07 5.84 10.3 12.01 12.06 19.55 1.75 7.54-1.29 16.8-8.58 19.4M141.94 473.32c14.5 3.3 25.62 17.71 25.15 32.57-.46 14.86-12.46 28.55-27.13 30.94-5.92.97-12.57.03-16.77-4.26-4.19-4.28-4.44-12.42.57-15.72 5.58-3.69 13.3.62 16.84 6.3 6.24 9.97 4.99 23.11.38 33.94-4.6 10.83-12.12 20.11-18.44 30.04-6.32 9.93-11.61 21.22-10.86 32.96M617.8 794.25a114.77 114.77 0 0 1 56.04-51.52c6.74-2.87 15.82-4.53 20.33 1.23 2.72 3.47 2.54 8.53.72 12.53-1.83 4.01-5.03 7.2-8.16 10.3-2.85 2.8-5.85 5.7-9.67 6.9-3.82 1.18-8.69.01-10.38-3.6-2.25-4.82 2.09-10.03 6.23-13.36a133.1 133.1 0 0 1 62.23-27.53M563.76 134.93l-2.56-12.79m-7.7 9.26 18.74-6M101.7 508.39l-4.95-17.72m-7.69 14.79 16.94-9.58m613.86 286.3a36.41 36.41 0 0 0 8.45-16.25m-11.88 7.6 17 6.09m-59.67-67.4a37.83 37.83 0 0 1 4.27-16.2m-12.8 8.78 17.05.26"/>
      <path fill="#171717" d="M320.26 171.33a88.1 88.1 0 0 0-15.66-1.1c-4.57.21-9.12.69-13.7.74-9.23.11-18.93.29-28.06 1.56-7.2 1-14.38 4.95-18.51 11.05-4.26 6.28-4.3 14.95-4.13 22.27.88 39.12 4.19 78.25 6.56 117.31.79 12.89 20.95 12.98 20.16 0-2.15-35.42-3.41-71.04-6.69-106.38-.63-6.8-2.22-14.4-1.3-21.24.24-1.8.67-4.82 1.75-6.24 1.6-2.1 6.6-2.88 9-3.5 17-4.37 34.5-5.95 50.82-12.72a.9.9 0 0 0-.24-1.75zM229.38 338.2c-1.8 5.34-2.2 10.94-2.68 16.52-.25 2.94-.36 5.94-.76 8.86-.01.8-.15 1.58-.41 2.33.26-.5 1.03-.83.08-.44-4 1.65-9.12 1.72-13.34 2.72a151.66 151.66 0 0 0-40.74 15.86c-8.47 4.81-15.73 11-23.74 16.47-5.08 3.46-6.85 10.02-2.9 15.15 3.5 4.52 11.34 5.82 15.4 1.04 6.5-7.64 15.78-13.4 24.45-18.28a128.61 128.61 0 0 1 28.3-11.9c9.33-2.61 22.3-2.26 27.8-11.68 3.03-5.2 2.47-11.39 2.47-17.18 0-6.55.15-13.05-1.4-19.46-1.6-6.54-10.58-5.8-12.53 0zm125.5 325.14c.06 5.5-3.24 7.93-6.53 11.72A62.06 62.06 0 0 0 340.6 686c-5.39 9.87-3.48 21.59-3.07 32.42.88 23.45 2.95 46.85 4.65 70.25l7.33-9.63a155.18 155.18 0 0 0-64.15 29.24 157.7 157.7 0 0 0-25.61 24.26 164.01 164.01 0 0 0-11.34 15.3c-3.35 5.16-7.32 10.9-8.42 17.03-.8 4.42.53 8.9 4.59 11.27 3.64 2.14 9.21 1.75 12.1-1.56 3.89-4.45 6.15-9.78 9.17-14.82 2.59-4.37 5.43-8.57 8.52-12.6a133.37 133.37 0 0 1 23.06-23.23 131.37 131.37 0 0 1 57.39-25.63c4-.74 7.63-5.57 7.33-9.63-1.74-23.42-3.1-46.9-5.65-70.24-.6-5.41-1.19-10.83-1.81-16.23-.54-4.65-2-10.47-1.03-15.03.86-4.03 3.56-7.86 5.1-11.69 1.63-4.04 3.1-7.7 2.69-12.13-.39-4.13-6.6-4.3-6.57 0zm306.2-256.29c-2.47 6.64-1.74 14.91-2.37 21.94-.68 7.68-1.4 15.37-1.95 23.06-.81 11.3 1.38 24.79 6.73 34.88 2.75 5.19 6.96 10.22 12.13 13.1 5.03 2.82 10.64 4.49 15.66 7.39 13.22 7.64 8.26 24.57 1.77 35.38-4.88 8.13 9.5 14.28 11.91 5.03 3.5-13.4 9.22-26.8 1.85-40.17-2.79-5.04-7.1-9.1-11.63-12.55a98.25 98.25 0 0 1-13.13-11.61c-3.89-4.2-7.2-8.75-8.84-14.26a91.75 91.75 0 0 1-3.03-17.18c-.76-7.7-.04-15.36.1-23.07.14-7.26.83-16.38-3.2-22.72a3.32 3.32 0 0 0-6 .78zm13.91 146.77c-7.28-3.1-13.75 6.06-16.01 11.76-1.89 4.75-3.37 9.3-9.22 9.16-5.6-.14-11.08-2.6-16.56-3.56-10.14-1.77-22.87 1.38-27.76 11.33-5.3 10.8-1.52 21.85-3.57 33.1-2.21 12.24 14.6 17.08 18.72 5.16 3.3-9.57-.7-19.39 1.17-29.02a20.5 20.5 0 0 1 1.94-5.18c.67-1.33.72-.64.34-.44 1-.46 2.05-.76 3.13-.9 4.77-.79 9.37.56 14 1.42 8.82 1.63 18.31.97 23.35-7.57 2.11-3.58 2.91-7.68 3.88-11.66.4-2.15.95-4.27 1.64-6.34 1.09-2.74 2.67-3.76 4.95-5.31.6-.42.84-1.59 0-1.95z" opacity=".1"/>
    </g>
  </g>
  <defs>
    <linearGradient id="c" x1="707.47" x2="707.47" y1="551.51" y2="653.67" gradientUnits="userSpaceOnUse">
      <stop stop-color="#42E670"/>
      <stop offset="1" stop-color="#07AA50"/>
    </linearGradient>
    <linearGradient id="d" x1="308.99" x2="308.99" y1="355.32" y2="477.72" gradientUnits="userSpaceOnUse">
      <stop stop-color="#42E670"/>
      <stop offset="1" stop-color="#07AA50"/>
    </linearGradient>
    <linearGradient id="e" x1="782.53" x2="782.53" y1="561.3" y2="575.98" gradientUnits="userSpaceOnUse">
      <stop stop-color="#42E670"/>
      <stop offset="1" stop-color="#07AA50"/>
    </linearGradient>
    <linearGradient id="f" x1="650.52" x2="650.52" y1="559.07" y2="573.54" gradientUnits="userSpaceOnUse">
      <stop stop-color="#42E670"/>
      <stop offset="1" stop-color="#07AA50"/>
    </linearGradient>
    <linearGradient id="g" x1="290.83" x2="290.83" y1="330.13" y2="367.75" gradientUnits="userSpaceOnUse">
      <stop stop-color="#42E670"/>
      <stop offset="1" stop-color="#07AA50"/>
    </linearGradient>
    <linearGradient id="h" x1="369.29" x2="369.29" y1="779.36" y2="920.28" gradientUnits="userSpaceOnUse">
      <stop stop-color="#42E670"/>
      <stop offset="1" stop-color="#07AA50"/>
    </linearGradient>
    <clipPath id="a">
      <path fill="#fff" d="M0 0h960v960H0Z"/>
    </clipPath>
    <clipPath id="b">
      <path fill="#fff" d="M59 38h842v885H59Z"/>
    </clipPath>
  </defs>
</svg>
