<svg xmlns="http://www.w3.org/2000/svg" width="883.83" height="799.26" fill="none">
  <g clip-path="url(#a)" transform="translate(-38.66 -80.98)">
    <g clip-path="url(#b)">
      <path fill="#171717" fill-rule="evenodd" d="M274.4 303.72a220.47 220.47 0 0 0 89.43-54.62l.71.7c9.9 20.01 16.75 41.8 17.75 64.1a114.4 114.4 0 0 1-5.99 42.6l.63.21c21.75.12 43.48-1.26 65.04-4.14-18.37-8.7-30.1-27.78-35.75-47.38-4.12-14.3-5.56-29.17-7-44.02-.58-5.9-1.16-11.8-1.9-17.67-2.6-20.64-7.73-41.84-20.95-57.89-13.64-16.54-34.66-25.78-55.92-28.56-44.6-5.87-91.68 16.75-114.98 55.24-10.62 17.54-16.37 37.4-22.09 57.17-1.25 4.33-2.5 8.66-3.8 12.95-7.23 23.81-16.72 48.04-34.98 64.92l.87.91a492.5 492.5 0 0 0 153.64 24.9 5.23 5.23 0 0 0 3.5-.85c2.2-1.89.08-5.36-1.93-7.45a95.16 95.16 0 0 1-26.28-61.12Zm86.79-126.3a1.92 1.92 0 0 0-2.78 2.66 116.28 116.28 0 0 1 32.1 85.6 1.92 1.92 0 1 0 3.82.18 120.12 120.12 0 0 0-33.14-88.43z" clip-rule="evenodd"/>
      <path fill="url(#c)" d="m846 493.14-39.75 353.7-.83-.1-402.98-16.67 33.52-341.42 2.3-23.48 150.26 10.3 102.74 7.05zM680.92 663.78a45.1 45.1 0 1 0-90.2 0 45.1 45.1 0 0 0 90.2 0z" style="fill:url(#c)"/>
      <path fill="url(#d)" d="m806.25 846.83-3.54 31.5-403.23-18.05 2.96-30.21 402.98 16.67.83.1z" style="fill:url(#d)"/>
      <path fill="#171717" d="M720.4 419.06c1.2 2 .15 4.52-.9 6.6l-28.16 55.76-.08 1.1-102.73-7.04.01-.13a383.95 383.95 0 0 0 42.75-75.86l12.14 2.46 62.75 12.67 9.26 1.88c1.88.38 3.97.9 4.96 2.56z"/>
      <path fill="url(#e)" d="M635.82 618.67a45.1 45.1 0 1 1 0 90.2 45.1 45.1 0 0 1 0-90.2z" style="fill:url(#e)"/>
      <path fill="url(#f)" d="m402.44 830.07-2.96 30.2-160.13-3.6-.23-8.4-.21-8.28 163.28-9.93h.25z" style="fill:url(#f)"/>
      <path fill="#171717" d="M355.38 468.51a196.9 196.9 0 0 1 80.4 20.13l.19.01-33.52 341.42-.26-.01-163.28 9.93.22 8.29-1.02.03c-23.1-2.76-31.1-5.97-41.83-13.06-28.97-19.19-51.7-37.47-70.44-66.73-22.86-35.65-27.74-81.26-17.35-122.32 10.4-41.06 35.08-77.66 66.21-106.37 31.13-28.72 68.5-50.01 107.38-66.8l.47-.26c-1.54-7.23 3.24-14.6 9.57-18.44a20.62 20.62 0 0 1 9.12-2.65c3.94-.34 8.06-.14 12.1-.67 3.57-.48 7.2-1.37 10.82-2.09 5.34-1.06 10.67-1.72 15.74-.1 8.51 2.74 16.1 10.55 15.49 19.47z"/>
      <path stroke="#171717" stroke-linecap="round" stroke-linejoin="round" stroke-width="3.83" d="M274.4 303.72a220.45 220.45 0 0 0 89.43-54.62 207.68 207.68 0 0 0 18.58-21.57m-17.87 22.27c9.9 20.02 16.76 41.8 17.75 64.1a114.12 114.12 0 0 1-5.99 42.6 95.56 95.56 0 0 1-10.47 21.21c-7.76 11.74-18.14 21.5-26.75 32.63-8.62 11.13-15.66 24.49-14.93 38.54M274.4 303.72a95.17 95.17 0 0 0 26.29 61.13c2 2.08 4.13 5.56 1.93 7.45a5.25 5.25 0 0 1-3.5.84 492.6 492.6 0 0 1-153.65-24.9"/>
      <path stroke="#171717" stroke-linecap="round" stroke-linejoin="round" stroke-width="3.83" d="m144.37 347.56.22-.22c18.27-16.88 27.76-41.11 34.98-64.92 7.25-23.92 12.95-48.74 25.9-70.12 23.3-38.5 70.37-61.11 114.98-55.25 21.25 2.8 42.28 12.03 55.91 28.57 13.23 16.05 18.35 37.25 20.96 57.89 2.6 20.64 3.14 41.7 8.9 61.68 5.64 19.6 17.37 38.69 35.75 47.39l1.11.51"/>
      <path stroke="#171717" stroke-linecap="round" stroke-linejoin="round" stroke-width="3.83" d="M376.92 356.72c21.76.12 43.49-1.27 65.05-4.14l.87-.12M263.75 372.2a98.72 98.72 0 0 1 37.35 77.63m287.42 25.65-150.25-10.31-2.3 23.48-33.53 341.42-2.96 30.2 403.23 18.05 3.54-31.49L846 493.13l-154.74-10.61Z"/>
      <path stroke="#171717" stroke-linecap="round" stroke-linejoin="round" stroke-width="3.83" d="m399.48 860.28-160.13-3.6-.23-8.4-.21-8.3 163.28-9.92h.25l402.98 16.69m-124.5-182.97a45.1 45.1 0 1 1-90.2-.02 45.1 45.1 0 0 1 90.2.02zM333.1 324.08c2.59-.37 5.1-1.2 7.4-2.45 2.23-1.4 3.96-3.85 3.75-6.47-.23-2.75-2.46-4.84-4.36-6.85a26.72 26.72 0 0 1-5.88-8.7 14.76 14.76 0 0 1-.37-10.35m-17.52 4.87a9.62 9.62 0 0 0-6.54-3.45m34.76-4.77a9.62 9.62 0 0 1 16.14-2.12m-62.88 63.17a17.58 17.58 0 0 0 21.28 6.6"/>
      <path stroke="#171717" stroke-linecap="round" stroke-linejoin="round" stroke-width="3.83" d="M238.1 848.3c-23.1-2.76-31.1-5.97-41.83-13.06-28.97-19.18-51.69-37.47-70.44-66.72C103 732.87 98.1 687.26 108.5 646.2c10.4-41.06 35.08-77.66 66.21-106.38 31.13-28.71 68.5-50 107.38-66.8m.46-.25c-1.54-7.23 3.24-14.6 9.57-18.44a20.63 20.63 0 0 1 9.12-2.65c3.94-.34 8.06-.14 12.1-.67 3.57-.48 7.2-1.37 10.82-2.09 5.34-1.06 10.67-1.72 15.74-.1 8.51 2.74 16.1 10.55 15.49 19.47m-.11.22h.1a196.9 196.9 0 0 1 80.4 20.13m152.76-13.29a384 384 0 0 0 42.75-75.86l12.13 2.46 62.75 12.67 9.27 1.88c1.88.38 3.97.9 4.95 2.56 1.2 2 .16 4.52-.89 6.6l-28.17 55.76M643.82 400l-9.25-25.58c-1.18-3.26-2.38-6.67-1.9-10.1.48-3.43 3.2-6.83 6.66-6.78 3 .04 5.35 2.48 7.24 4.82 4.9 5.99 9.23 12.4 12.96 19.18m42.02-1.59c2.17-5.56 3.86-11.28 3.98-17.21.1-3.91-1.48-8.83-5.38-9.15-2.65-.23-4.88 1.9-6.54 3.99a56 56 0 0 0-10.7 21.97m18.64.4a55.81 55.81 0 0 0-3.24 7.7c1.11-2.53 2.23-5.1 3.24-7.7zm4.86 33.48a333.84 333.84 0 0 0 15.25-34.53c.96-2.55 1.9-5.18 1.8-7.9-.1-2.73-1.48-5.58-3.99-6.63-3.83-1.6-7.93 1.5-10.62 4.66a56.62 56.62 0 0 0-7.3 10.92m-19.88.37c.82-2.28 1.61-4.58 2.4-6.87h.02a934.6 934.6 0 0 0 17.22-55.34c1.6-5.76 2.68-13.08-2.1-16.7-3.88-2.95-9.82-1.39-13.24 2.11-3.4 3.5-4.9 8.4-6.3 13.09l-19.32 65.19-.09.3"/>
      <path fill="url(#g)" stroke="#171717" stroke-miterlimit="10" stroke-width="3" d="M367.51 163.44c-19.3-15.57-45.73-21.35-70.1-16.76-24.35 4.59-46.42 19.1-61.57 38.72-15.14 19.62-23.52 44.09-25.2 68.82-.52 7.66.43 16.88 7.2 20.5 6.44 3.43 14.75-.65 18.72-6.76 3.98-6.1 4.86-13.64 6.18-20.8 4.29-23.2 14.62-45.75 31.79-61.94 17.16-16.19 41.59-25.34 64.85-21.4a62.33 62.33 0 0 1 38.13 22.75 55.82 55.82 0 0 1 5.95 9.34c.79 1.58 2.68 9.3 3.98 9.84 4.5 1.88-1.45-18.4-2.43-20.48a62.78 62.78 0 0 0-17.5-21.83z" style="fill:url(#g)"/>
      <path fill="url(#h)" stroke="#171717" stroke-miterlimit="10" stroke-width="3" d="M286.57 382.38a51.46 51.46 0 0 0 38.45-7.19c2.46-1.6 4.9-3.48 7.8-3.92 2.9-.44 6.4 1.23 6.67 4.15.18 1.86-.96 3.58-2.19 5-4.58 5.22-11.1 8.48-17.86 10.07-6.77 1.6-13.8 1.62-20.74 1.16-15.82-1.02-33.68-4.28-47.13-13.23-3.78-2.51-8.35-7.97-2.16-10.44 4.54-1.8 10.22-.1 13.97 2.6 7.36 5.3 14.12 9.86 23.2 11.8z" style="fill:url(#h)"/>
      <path fill="#171717" d="m362.68 367.33-20.32 15.76a6.2 6.2 0 0 1-8.7-1.1l-4.14-5.35a6.2 6.2 0 0 1 1.1-8.7l20.32-15.75a6.2 6.2 0 0 1 8.7 1.1l4.14 5.34a6.2 6.2 0 0 1-1.1 8.7z"/>
      <path stroke="url(#i)" stroke-linecap="round" stroke-linejoin="round" stroke-width="3.83" d="M398.56 800.73c-39.85.2-80.43-.63-118.3-13.06-37.85-12.43-73.18-38.25-87.92-75.27-9.77-24.53-9.8-52.33-2.77-77.77 7.03-25.45 20.8-48.68 37.6-69.05" style="stroke:url(#i)"/>
      <path stroke="url(#j)" stroke-linecap="round" stroke-linejoin="round" stroke-width="3.83" d="m341.74 467.52-2.6-13.8" style="stroke:url(#j)"/>
      <path stroke="url(#k)" stroke-linecap="round" stroke-linejoin="round" stroke-width="3.83" d="m324.67 469.98-1.82-13.84" style="stroke:url(#k)"/>
      <path stroke="url(#l)" stroke-linecap="round" stroke-linejoin="round" stroke-width="3.83" d="m307.19 471.18-1.2-10.82" style="stroke:url(#l)"/>
      <path stroke="url(#m)" stroke-linecap="round" stroke-linejoin="round" stroke-width="3.83" d="m291.38 471.8-.55-9.62" style="stroke:url(#m)"/>
      <path stroke="url(#n)" stroke-linecap="round" stroke-linejoin="round" stroke-width="3.83" d="M624.21 429.8c25.8 6.1 51.8 11.2 78 15.32" style="stroke:url(#n)"/>
      <path stroke="url(#o)" stroke-linecap="round" stroke-linejoin="round" stroke-width="3.83" d="m406.4 546.95-12.72-13.26" style="stroke:url(#o)"/>
      <path stroke="url(#p)" stroke-linecap="round" stroke-linejoin="round" stroke-width="3.83" d="m348.59 610.66 10.85-16.82" style="stroke:url(#p)"/>
      <path stroke="url(#q)" stroke-linecap="round" stroke-linejoin="round" stroke-width="3.83" d="m317.57 549.83-14-12.5" style="stroke:url(#q)"/>
      <path stroke="url(#r)" stroke-linecap="round" stroke-linejoin="round" stroke-width="3.83" d="m266.17 622.66 10.26-15.6" style="stroke:url(#r)"/>
      <path stroke="url(#s)" stroke-linecap="round" stroke-linejoin="round" stroke-width="3.83" d="m324.8 665.25-14.94-14.54" style="stroke:url(#s)"/>
      <path stroke="url(#t)" stroke-linecap="round" stroke-linejoin="round" stroke-width="3.83" d="m399.59 649.4-14.36-13.31" style="stroke:url(#t)"/>
      <path stroke="url(#u)" stroke-linecap="round" stroke-linejoin="round" stroke-width="3.83" d="M345.06 712.95a52.86 52.86 0 0 0 13.27-15.02" style="stroke:url(#u)"/>
      <path stroke="url(#v)" stroke-linecap="round" stroke-linejoin="round" stroke-width="3.83" d="M272.29 721.36a86.47 86.47 0 0 0 13.83-15.03" style="stroke:url(#v)"/>
      <path stroke="url(#w)" stroke-linecap="round" stroke-linejoin="round" stroke-width="3.83" d="m241.09 684-11.32-11.53" style="stroke:url(#w)"/>
      <path stroke="url(#x)" stroke-linecap="round" stroke-linejoin="round" stroke-width="3.83" d="m385.5 753.68-12.12-12.54" style="stroke:url(#x)"/>
      <path stroke="url(#y)" stroke-linecap="round" stroke-linejoin="round" stroke-width="3.83" d="m228.83 817.69-12.45-18.21" style="stroke:url(#y)"/>
      <path stroke="url(#z)" stroke-linecap="round" stroke-linejoin="round" stroke-width="3.83" d="m181.95 778.87 17.45-10.21" style="stroke:url(#z)"/>
      <path stroke="url(#A)" stroke-linecap="round" stroke-linejoin="round" stroke-width="3.83" d="m164.33 746.18-8.88-16.3" style="stroke:url(#A)"/>
      <path stroke="url(#B)" stroke-linecap="round" stroke-linejoin="round" stroke-width="3.83" d="m133.92 699.65 15.01-10.87" style="stroke:url(#B)"/>
      <path stroke="url(#C)" stroke-linecap="round" stroke-linejoin="round" stroke-width="3.83" d="m166.63 650.28-10.95-17.36" style="stroke:url(#C)"/>
      <path stroke="url(#D)" stroke-linecap="round" stroke-linejoin="round" stroke-width="3.83" d="M132.54 615.32a93.83 93.83 0 0 1 15.32-14.15" style="stroke:url(#D)"/>
      <path stroke="url(#E)" stroke-linecap="round" stroke-linejoin="round" stroke-width="3.83" d="m197.45 567.9-5.2-16.72" style="stroke:url(#E)"/>
      <path stroke="url(#F)" stroke-linecap="round" stroke-linejoin="round" stroke-width="3.83" d="m242.11 528.16 13.9-9.53" style="stroke:url(#F)"/>
      <path stroke="#171717" stroke-linecap="round" stroke-linejoin="round" stroke-width="3.83" d="M133.8 484.67c-31.47-15.35-72.54 19.82-80.73 49.25-7.85 27.09 41.33 75.9 52.58 34.46-6.58-23.93-38.17-8.48-37.32 12.29-.41 22.88 11 74.54-27.75 66.49m567.17-426.35c5.35 7.06 9.78 15.27 10.1 24.13.31 8.85-4.44 18.31-12.78 21.3-8.34 2.98-19.28-3.09-19.31-11.95-.01-3.26 1.83-6.87 5.03-7.47 4.33-.8 7.48 3.91 9.25 7.95 3 6.81 5.6 15.26 1.15 21.23-2.78 3.71-7.52 5.25-11.55 7.55-12.62 7.2-18.71 24.1-13.58 37.69M903.95 471a24.3 24.3 0 0 0 .94 29.4c3.55 4.17 8.58 7.14 11.18 11.96 4.75 8.83-.5 19.71-6.89 27.44-2.94 3.56-6.4 7.07-10.9 8.18-4.49 1.1-10.1-1.2-10.99-5.74-1.12-5.7 5.14-9.93 10.6-11.88 4.55-1.63 9.66-2.88 14.13-1.03 4.04 1.67 6.79 5.67 7.87 9.91 1.09 4.24.72 8.72 0 13.04-1.37 8.28-4.32 16.84-10.91 22.04-6.6 5.2-17.58 5.39-22.48-1.43M744.17 407.51c12.14-16.21 12.95-40.05 1.94-57.05M447.2 164.8l-2.55-22.58m-8.91 13.19c7.02-2.2 14.21-3.83 21.5-4.89m-53.79-42.24-13.2-21.86m-3.47 17.85c6.83-6 13.22-12.48 19.1-19.4l-1.25 2.2m371.01 240.08a31.11 31.11 0 0 1 7.22-13.53m1.91 10.64-13.53-8.11m-316.82-9.91a434.55 434.55 0 0 0 57.87-35.84m-76.74 26.08 9.05-27.96m20.92 57.39a202.43 202.43 0 0 0 26.55 12.05"/>
      <path fill="#171717" d="m480.21 96.22 11.6 7.04a.86.86 0 0 1 .39.9.86.86 0 0 1-.7.67l-13.38 2.19a.86.86 0 0 0-.7.64l-3.11 13.2a.85.85 0 0 1-1.59.2L466.51 109a.86.86 0 0 0-.83-.46l-13.51 1.12a.85.85 0 0 1-.68-1.45l9.54-9.64a.86.86 0 0 0 .19-.93l-5.24-12.5a.84.84 0 0 1 .2-.95.85.85 0 0 1 .97-.14l12.1 6.1a.85.85 0 0 0 .95-.12l10.27-8.84a.85.85 0 0 1 1.4.77l-2.05 13.4a.84.84 0 0 0 .4.86z"/>
      <path stroke="#171717" stroke-linecap="round" stroke-linejoin="round" stroke-width="3.83" d="m762.68 289.27-2.55-22.56m-8.92 13.19c7.03-2.2 14.22-3.83 21.5-4.89"/>
      <path fill="url(#G)" stroke="#171717" stroke-miterlimit="10" stroke-width="3" d="M222.67 392.1c27.74 0 50.22-30.36 50.22-67.8 0-37.45-22.48-67.8-50.22-67.8-27.73 0-50.21 30.35-50.21 67.8 0 37.44 22.48 67.8 50.21 67.8z" style="fill:url(#G)"/>
      <path fill="#171717" d="M209.84 258.73c-3.28.7-5.73 3.06-8.48 4.84a40.24 40.24 0 0 0-8.32 6.42 84.83 84.83 0 0 0-11.58 16.66c-7.28 13.56-11 28.06-9.62 43.5 1.4 15.74 6.27 31.32 16.76 43.35 8.02 9.18 24.15 24.74 37.54 16.14 4.11-2.63 3.85-8 0-10.68-4.36-3.05-9.67-3.92-13.89-7.41a36.34 36.34 0 0 1-10-12.66c-5.08-10.7-10.04-20.75-10.97-32.82-.87-11.17.2-23.02 4-33.6a76.2 76.2 0 0 1 7.65-14.84c1.63-2.6 2.91-5.38 4.48-8 1.55-2.58 4.01-4.49 5.23-7.25a2.52 2.52 0 0 0-2.8-3.65zm66.81 116.82a6.7 6.7 0 0 0 1.23 5.78 6.27 6.27 0 1 0 5.43-9.45c-2.64-.28-5.87.83-6.66 3.67zm10.83 19.57c-.1 4.45 2.08 8.45 3.76 12.46a138.9 138.9 0 0 1 4.6 12.98 97.92 97.92 0 0 1 3.14 13.47c.7 4.55.64 9.19 1.52 13.7.67 3.4 4.47 5.44 7.67 5 3.71-.5 5.6-3.35 6.05-6.86 1.22-9.5-1.89-20.95-4.78-29.95-2.6-8.06-6.97-20.77-15.12-24.73-3.08-1.5-6.77.3-6.84 3.92z" opacity=".1"/>
    </g>
  </g>
  <defs>
    <linearGradient id="c" x1="624.22" x2="624.22" y1="465.17" y2="846.83" gradientUnits="userSpaceOnUse">
      <stop stop-color="#42E670"/>
      <stop offset="1" stop-color="#07AA50"/>
    </linearGradient>
    <linearGradient id="d" x1="602.86" x2="602.86" y1="830.07" y2="878.32" gradientUnits="userSpaceOnUse">
      <stop stop-color="#42E670"/>
      <stop offset="1" stop-color="#07AA50"/>
    </linearGradient>
    <linearGradient id="e" x1="635.82" x2="635.82" y1="618.67" y2="708.87" gradientUnits="userSpaceOnUse">
      <stop stop-color="#42E670"/>
      <stop offset="1" stop-color="#07AA50"/>
    </linearGradient>
    <linearGradient id="f" x1="320.68" x2="320.68" y1="830.06" y2="860.28" gradientUnits="userSpaceOnUse">
      <stop stop-color="#42E670"/>
      <stop offset="1" stop-color="#07AA50"/>
    </linearGradient>
    <linearGradient id="g" x1="299.81" x2="299.81" y1="145.15" y2="275.97" gradientUnits="userSpaceOnUse">
      <stop stop-color="#42E670"/>
      <stop offset="1" stop-color="#07AA50"/>
    </linearGradient>
    <linearGradient id="h" x1="292.94" x2="292.94" y1="367.23" y2="391.91" gradientUnits="userSpaceOnUse">
      <stop stop-color="#42E670"/>
      <stop offset="1" stop-color="#07AA50"/>
    </linearGradient>
    <linearGradient id="i" x1="291.58" x2="291.58" y1="565.58" y2="800.75" gradientUnits="userSpaceOnUse">
      <stop stop-color="#42E670"/>
      <stop offset="1" stop-color="#07AA50"/>
    </linearGradient>
    <linearGradient id="j" x1="340.44" x2="340.44" y1="453.72" y2="467.52" gradientUnits="userSpaceOnUse">
      <stop stop-color="#42E670"/>
      <stop offset="1" stop-color="#07AA50"/>
    </linearGradient>
    <linearGradient id="k" x1="323.76" x2="323.76" y1="456.14" y2="469.98" gradientUnits="userSpaceOnUse">
      <stop stop-color="#42E670"/>
      <stop offset="1" stop-color="#07AA50"/>
    </linearGradient>
    <linearGradient id="l" x1="306.59" x2="306.59" y1="460.36" y2="471.18" gradientUnits="userSpaceOnUse">
      <stop stop-color="#42E670"/>
      <stop offset="1" stop-color="#07AA50"/>
    </linearGradient>
    <linearGradient id="m" x1="291.11" x2="291.11" y1="462.18" y2="471.8" gradientUnits="userSpaceOnUse">
      <stop stop-color="#42E670"/>
      <stop offset="1" stop-color="#07AA50"/>
    </linearGradient>
    <linearGradient id="n" x1="663.21" x2="663.21" y1="429.79" y2="445.12" gradientUnits="userSpaceOnUse">
      <stop stop-color="#42E670"/>
      <stop offset="1" stop-color="#07AA50"/>
    </linearGradient>
    <linearGradient id="o" x1="400.05" x2="400.05" y1="533.69" y2="546.95" gradientUnits="userSpaceOnUse">
      <stop stop-color="#42E670"/>
      <stop offset="1" stop-color="#07AA50"/>
    </linearGradient>
    <linearGradient id="p" x1="354.02" x2="354.02" y1="593.84" y2="610.66" gradientUnits="userSpaceOnUse">
      <stop stop-color="#42E670"/>
      <stop offset="1" stop-color="#07AA50"/>
    </linearGradient>
    <linearGradient id="q" x1="310.57" x2="310.57" y1="537.33" y2="549.83" gradientUnits="userSpaceOnUse">
      <stop stop-color="#42E670"/>
      <stop offset="1" stop-color="#07AA50"/>
    </linearGradient>
    <linearGradient id="r" x1="271.3" x2="271.3" y1="607.05" y2="622.66" gradientUnits="userSpaceOnUse">
      <stop stop-color="#42E670"/>
      <stop offset="1" stop-color="#07AA50"/>
    </linearGradient>
    <linearGradient id="s" x1="317.33" x2="317.33" y1="650.71" y2="665.25" gradientUnits="userSpaceOnUse">
      <stop stop-color="#42E670"/>
      <stop offset="1" stop-color="#07AA50"/>
    </linearGradient>
    <linearGradient id="t" x1="392.41" x2="392.41" y1="636.09" y2="649.4" gradientUnits="userSpaceOnUse">
      <stop stop-color="#42E670"/>
      <stop offset="1" stop-color="#07AA50"/>
    </linearGradient>
    <linearGradient id="u" x1="351.7" x2="351.7" y1="697.93" y2="712.95" gradientUnits="userSpaceOnUse">
      <stop stop-color="#42E670"/>
      <stop offset="1" stop-color="#07AA50"/>
    </linearGradient>
    <linearGradient id="v" x1="279.2" x2="279.2" y1="706.33" y2="721.36" gradientUnits="userSpaceOnUse">
      <stop stop-color="#42E670"/>
      <stop offset="1" stop-color="#07AA50"/>
    </linearGradient>
    <linearGradient id="w" x1="235.43" x2="235.43" y1="672.47" y2="684" gradientUnits="userSpaceOnUse">
      <stop stop-color="#42E670"/>
      <stop offset="1" stop-color="#07AA50"/>
    </linearGradient>
    <linearGradient id="x" x1="379.44" x2="379.44" y1="741.14" y2="753.68" gradientUnits="userSpaceOnUse">
      <stop stop-color="#42E670"/>
      <stop offset="1" stop-color="#07AA50"/>
    </linearGradient>
    <linearGradient id="y" x1="222.61" x2="222.61" y1="799.48" y2="817.69" gradientUnits="userSpaceOnUse">
      <stop stop-color="#42E670"/>
      <stop offset="1" stop-color="#07AA50"/>
    </linearGradient>
    <linearGradient id="z" x1="190.67" x2="190.67" y1="768.66" y2="778.87" gradientUnits="userSpaceOnUse">
      <stop stop-color="#42E670"/>
      <stop offset="1" stop-color="#07AA50"/>
    </linearGradient>
    <linearGradient id="A" x1="159.89" x2="159.89" y1="729.87" y2="746.18" gradientUnits="userSpaceOnUse">
      <stop stop-color="#42E670"/>
      <stop offset="1" stop-color="#07AA50"/>
    </linearGradient>
    <linearGradient id="B" x1="141.43" x2="141.43" y1="688.78" y2="699.65" gradientUnits="userSpaceOnUse">
      <stop stop-color="#42E670"/>
      <stop offset="1" stop-color="#07AA50"/>
    </linearGradient>
    <linearGradient id="C" x1="161.15" x2="161.15" y1="632.92" y2="650.28" gradientUnits="userSpaceOnUse">
      <stop stop-color="#42E670"/>
      <stop offset="1" stop-color="#07AA50"/>
    </linearGradient>
    <linearGradient id="D" x1="140.2" x2="140.2" y1="601.17" y2="615.32" gradientUnits="userSpaceOnUse">
      <stop stop-color="#42E670"/>
      <stop offset="1" stop-color="#07AA50"/>
    </linearGradient>
    <linearGradient id="E" x1="194.85" x2="194.85" y1="551.18" y2="567.9" gradientUnits="userSpaceOnUse">
      <stop stop-color="#42E670"/>
      <stop offset="1" stop-color="#07AA50"/>
    </linearGradient>
    <linearGradient id="F" x1="249.06" x2="249.06" y1="518.63" y2="528.16" gradientUnits="userSpaceOnUse">
      <stop stop-color="#42E670"/>
      <stop offset="1" stop-color="#07AA50"/>
    </linearGradient>
    <linearGradient id="G" x1="222.67" x2="222.67" y1="256.49" y2="392.1" gradientUnits="userSpaceOnUse">
      <stop stop-color="#42E670"/>
      <stop offset="1" stop-color="#07AA50"/>
    </linearGradient>
    <clipPath id="a">
      <path fill="#fff" d="M0 0h960v960H0Z"/>
    </clipPath>
    <clipPath id="b">
      <path fill="#fff" d="M38 80h885v801H38Z"/>
    </clipPath>
  </defs>
</svg>
