<svg xmlns="http://www.w3.org/2000/svg" width="883" height="768.63" fill="none">
  <g clip-path="url(#a)" transform="translate(-38.34 -95.5)">
    <path fill="url(#b)" fill-rule="evenodd" d="m675.59 207.5-38.45-11.32-25.88-7.62s-4.1 88.28-8.9 121.13c-1.42 9.77-5.57 21.79-11.4 34.38a274.37 274.37 0 0 1-16.08 29.53c-12.4 19.86-26.98 37.94-39.58 47.63-26.69 20.53-64.32 22.95-64.32 22.95l-1.33-6.09-2.95-13.44-41.07-1.88-42.65-1.95-20.82-.95-6.84 26.68c-64.33-11.64-121.4 23.34-121.4 23.34l88.55 322.93 144.23-58.6v-.01l29.6-178.85s-.7-34.21 38.32-52.69l2.47-1.16c14.9-7.04 39.68-18.72 65.46-40.69a236.17 236.17 0 0 0 21.38-20.64c38.54-42.16 73.8-111.02 75.6-225.62l-23.94-7.05zm14.72 61.95a1.5 1.5 0 1 0-2.97-.39 324.09 324.09 0 0 1-71.95 165.32 1.5 1.5 0 0 0 2.31 1.91 327.07 327.07 0 0 0 72.61-166.84z" clip-rule="evenodd" style="fill:url(#b)"/>
    <path fill="#171717" fill-rule="evenodd" d="m676.84 141.55 21.32-3.72 13.92-2.42 22.36-15.52-31.03-7.3-2.42.45-15.7 2.86c3.11 3.02 4.59 5.98 3.99 8.33-2.06 7.99-35.92-2.5-35.92-2.5l-38.99 7.1-75.2 13.71s-13.22 4.28-10.03 14.31c3.19 10.03 12.78 8.21 12.78 8.21l73.62-12.82zm29.72-26.04a1.5 1.5 0 1 0-2.62 1.46 33.85 33.85 0 0 1 4.28 17.04 1.5 1.5 0 0 0 3 .05c.1-6.48-1.5-12.88-4.66-18.55zM532.5 303.8a52.55 52.55 0 0 0-13.44-12.44c3.76-3.17 6.7-7.2 8.55-11.76 5.12-12.3 3.15-27.98-4.3-39.5-10.2-15.76-27.87-25.02-45.59-31.2-17.5-6.1-36.54-9.86-54.58-5.57-18.04 4.28-34.7 18.2-37.67 36.5-14.82-15.7-38.66-21.67-59.57-16.28-20.9 5.4-38.44 21.37-47.26 41.08-.88 1.99-1.68 4-2.4 6.05a85.31 85.31 0 0 0-4.67 24.6 94.86 94.86 0 0 0 4.4 32.65l.3.99c2.92 9.17 6.38 20.05-.08 26.99-4.85 5.22-12.45 5.05-19.92 4.89-2.17-.05-4.33-.1-6.4-.02-17.5.74-33.62 14.4-37.24 31.53l21.28 77.59s57.08-34.98 121.4-23.35l6.85-26.68 20.81.95c11.24-66.1-8.15-112.5-8.15-112.5l.06-1.14c8.63.34 23.01-1.4 39.4-12.71 21.92-15.12 23.68-31.36 23.6-36.7a19.16 19.16 0 0 0 10.17 3.1c3.2.05 6.4-.48 9.42-1.54 2.23 7.91 23.29 88.4-31.84 128.71v34.74l41.07 1.88 2.94 13.43 1.96-.42c18.33-9.71 35.96-21.35 49.73-36.88 13.76-15.54 23.46-35.31 24.06-56.06a64.95 64.95 0 0 0-12.89-40.93ZM466.95 212a1.5 1.5 0 0 0-.64 2.94c11.8 2.57 23.3 6.77 32.86 13.87 9.55 7.1 17 17.33 19.13 28.86 2.13 11.54-1.65 24.3-10.63 31.57a1.5 1.5 0 0 0 0 2.32 72.3 72.3 0 0 1-10.78 119.02 1.5 1.5 0 1 0 1.46 2.62 75.3 75.3 0 0 0 12.58-122.8c8.96-8.21 12.5-21.42 10.32-33.27-2.3-12.44-10.28-23.28-20.3-30.73-10-7.44-21.97-11.77-34-14.4z" clip-rule="evenodd"/>
    <path fill="url(#c)" d="m886.36 273.76-21.21 2.4 7.18 23.6-19.84-15.73-20.88 13 11.3-22.93-23.96-17.1 31.14 2.04 11.29-21.9 3.08 23.96z" style="fill:url(#c)"/>
    <path fill="#171717" d="m816.22 613.87-26.01-1.03-4.45 17.11-6.5-19.84-20.87 4.1 14.03-13-12.66-11.98 23.6 4.8 13.7-14.03-2.74 21.2zM800.13 330.9l-23.95 10.6 17.11 25.33-28.4-13-24.98 21.55 10.27-29.76-27.03-21.56 28.06-4.48 5.13-27.06 14.71 27.06 29.09 11.32z"/>
    <path fill="url(#d)" d="m797.05 500.96-19.84.35-6.5 23.26-9.07-22.93-25.15 2.74 15.4-14.7-8.9-20.88 23.61 9.58 23.27-12.67-7.18 21.9z" style="fill:url(#d)"/>
    <path fill="#171717" d="m140.1 761 32.13-124.28 29.13 106.36z"/>
    <path fill="#171717" d="m98 263.15 162.2 599.48-35.93-35.93-22.9-83.62-29.14-106.36v-.01l-92.7-338.37Z"/>
    <path stroke="#171717" stroke-linecap="round" stroke-linejoin="round" stroke-width="3" d="m590.75 343.98-21.58-62.35-40.5-1.59m-254.1-9.96L98 263.15l162.2 599.48 439.33-204.27-75.44-218.03M172.23 636.71l-92.7-338.37L98 263.15m162.2 599.48-35.93-35.93-22.9-83.62-29.14-106.36"/>
    <path stroke="#171717" stroke-linecap="round" stroke-linejoin="round" stroke-width="3" d="M201.36 743.08 140.1 761l32.14-124.28v-.01m401.41-263.87-22.6-68.63-18.32-.58M466.7 734.21 666 653.22l-63.34-192.26M270.91 295.25l-85.65-2.73 27.37 99.79 21.28 77.58 88.56 322.93 144.23-58.6"/>
    <path stroke="#171717" stroke-linecap="round" stroke-linejoin="round" stroke-width="3" d="M233.9 469.9s57.09-34.98 121.41-23.35l6.85-26.68 20.81.95 42.66 1.96 41.07 1.88 2.94 13.43 1.33 6.1s37.64-2.43 64.33-22.95c12.6-9.7 27.18-27.78 39.58-47.63a274.37 274.37 0 0 0 16.07-29.53c5.84-12.6 9.99-24.62 11.41-34.4 4.8-32.84 8.9-121.12 8.9-121.12l25.88 7.62 38.45 11.33 23.94 7.05c-1.8 114.6-37.06 183.46-75.6 225.62a236.04 236.04 0 0 1-21.38 20.64c-27.25 23.23-53.39 34.96-67.93 41.85-39.01 18.48-38.32 52.7-38.32 52.7L466.7 734.2v0m-41.07-350.95v39.53"/>
    <path stroke="#171717" stroke-linecap="round" stroke-linejoin="round" stroke-width="3" d="m457.28 258.7.19.63c2.23 7.9 23.28 88.4-31.84 128.7m-50.81-79.71s19.39 46.4 8.15 112.5m-16.7-114.89c2.8.77 5.7 1.2 8.6 1.25 8.65.34 23.02-1.4 39.42-12.71 21.9-15.12 23.67-31.37 23.6-36.7 0-.6-.03-1.2-.1-1.8"/>
    <path stroke="#171717" stroke-linecap="round" stroke-linejoin="round" stroke-width="3" d="M432.65 253.34a23.5 23.5 0 0 0 5.23 4.43 19.17 19.17 0 0 0 10.16 3.1c3.21.04 6.4-.48 9.43-1.54a15 15 0 0 0 4.26-2.23"/>
    <path stroke="#171717" stroke-linecap="round" stroke-linejoin="round" stroke-width="3" d="m212.56 392.6.07-.3c3.62-17.12 19.75-30.78 37.24-31.52 9.2-.38 20.05 1.87 26.33-4.88 6.69-7.19 2.73-18.61-.24-27.97a94.84 94.84 0 0 1-4.39-32.66 85.28 85.28 0 0 1 4.68-24.6 78.31 78.31 0 0 1 2.4-6.05c8.82-19.7 26.36-35.68 47.26-41.07 20.9-5.4 44.75.57 59.56 16.28 2.97-18.3 19.63-32.22 37.67-36.5 18.05-4.3 37.08-.53 54.59 5.57 17.7 6.17 35.4 15.43 45.58 31.19 7.46 11.52 9.42 27.21 4.3 39.5a30.34 30.34 0 0 1-8.55 11.77 52.58 52.58 0 0 1 13.45 12.44 64.96 64.96 0 0 1 12.88 40.93c-.6 20.75-10.3 40.52-24.06 56.06-13.77 15.53-31.4 27.17-49.73 36.88"/>
    <path stroke="#171717" stroke-linecap="round" stroke-linejoin="round" stroke-width="3" d="M430.36 326a8.02 8.02 0 1 1-1.12 14.24m-20.54 23.4a17.06 17.06 0 0 1-16.72-14.28m15.8-41.04c-.14-2.74-.3-5.48-.45-8.21m34.99 9.12-.62-11.85m9.3-8.58a11.62 11.62 0 0 0-16.06-2.2M685.3 115.9l15.7-2.86 2.42-.45 31.02 7.3-22.36 15.52-13.92 2.42-21.32 3.72-61.3 10.69-73.62 12.82s-9.6 1.82-12.78-8.2c-3.19-10.04 10.03-14.32 10.03-14.32l75.2-13.7 38.99-7.11.29-.06M232.04 554.1l-24.51 7.16a7.16 7.16 0 0 1-8.87-4.86l-7.62-26.08a7.15 7.15 0 0 1 4.86-8.86l24.5-7.17a7.14 7.14 0 0 1 8.86 4.86l7.62 26.07a7.16 7.16 0 0 1-4.84 8.87v0zm-16.47-57.07-24.92 7.28a6.93 6.93 0 0 1-8.59-4.7l-28.88-102.97a6.93 6.93 0 0 1 4.71-8.6l25.15-2.3a6.92 6.92 0 0 1 8.6 4.7l28.65 97.99a6.94 6.94 0 0 1-4.72 8.6zM269.6 682.6l-24.5 7.16a7.15 7.15 0 0 1-8.88-4.86l-28.52-97.57a7.15 7.15 0 0 1 4.86-8.87l24.5-7.16a7.15 7.15 0 0 1 8.87 4.86l28.52 97.56a7.16 7.16 0 0 1-4.86 8.87v0z"/>
    <path stroke="#171717" stroke-linecap="round" stroke-linejoin="round" stroke-width="3" d="M637.14 196.18s-21.42-26.9-21.6-43.94m-1.16-23.41s-2.44-28.1 26.3-27.87c2.25.02 4.45.13 6.59.32 17.3 1.5 31.4 8.18 38.02 14.62 3.12 3.02 4.59 5.98 3.99 8.33-2.06 7.99-35.92-2.5-35.92-2.5"/>
    <path stroke="#171717" stroke-linecap="round" stroke-linejoin="round" stroke-width="3" d="M647.3 100.96s48.36-14.37 53.61 11.64m-50.88 47.45s10.6-15.68 26.8-18.5m21.33-3.71s-4.28 16.16-14.28 25.32a24.86 24.86 0 0 1-5.48 3.88c-.9.48-1.85.88-2.81 1.22m0 39.24 2.81-40.46m56.03-47.14 24.65 16.31 30.1-26-9.24 45.5 41.4 20.2H771.4l-3.42 46.87-19.16-49.96m101.28 86.22 11.28-21.9 3.08 23.96 21.9 12.66-21.21 2.4 7.18 23.6-19.84-15.73-20.88 13 11.3-22.93-23.96-17.1 31.14 2.04zm-56.8 107.79-17.12-25.32 23.96-10.6-29.09-11.33-14.71-27.06-5.13 27.06-28.06 4.48 27.03 21.56-10.27 29.76 24.99-21.55zm47.9 35.24-19.85-7.87 8.21 15.05-13.34 8.9 20.87 3.42 7.19 17.8 5.13-18.82 21.2.34-17.96-12.32 3.6-20.87-15.06 14.37zm-44.15 98.89-14.36-13.34 7.18-21.9-23.27 12.66-23.6-9.58 8.89 20.87-15.4 14.7 25.15-2.73 9.07 22.93 6.5-23.27zm-2.73 100.24 2.73-21.2-13.68 14.02-23.61-4.78 12.66 11.97-14.03 13 20.87-4.1 6.5 19.84 4.45-17.1 26.01 1.02-21.9-12.66zM362.6 448.04c33.7-2.44 67.46-3.31 101.29-2.64m-8.59-5.7-.91-8.21m-14.67 8.21.46-7.75m-14.6 8.22v-9.13m-17.99 8.21-.1-6.84m-18.41 8.21a23 23 0 0 0 .91-9.58m-18.71 9.58 1.82-9.58M608.52 234.4l87.49 23.67m-9.33-9.27 1.98-28.76m-24.5 23.98 4.1-28.75m-26.96 22.55 4.83-28.05m-25.18 20.55 4.03-28.07m48.55 102.65-5.47-17.1m-44.54 40.27 8.23-4.76m-2.37 10.33a28.51 28.51 0 0 0-3.83-14.33m11.01 67.61-13.05 3.26m-43.35 31.04-.27-11.62m-7.6 6.36 16.17-2.91-1.75.84m-27.44 59.28-12.99-4.15m-53.88 26.17 3.24-15.1m3.42 10.81-11.63-2.76m-54.1 1.53a43.49 43.49 0 0 1 12.32-9.58m26.01 76.64a35.63 35.63 0 0 1-14.38 1.37m-45.98 10.2 7.52-15.74m4.24 11.7-14.96-8.38m-22.03-42.19-10.94-6.86m-75.3-15.16 8.2-10.95m1.45 10.28c-4.76-2.24-9-5.47-12.42-9.47m151.44 201.9 9.56-10.97m-25.3-54.19a7.21 7.21 0 0 0-11.88 6.28c.32 2.85 2.3 5.82.93 8.34-1.66 3.06-6.22 2.17-9.44.85m-90.16-104.19a13.82 13.82 0 0 1 4.3-4.16c1.8-.92 4.24-.9 5.58.6 2.1 2.35.23 5.95-.12 9.08a6.54 6.54 0 0 0 2.83 6.4c2.15 1.22 5.4.3 6.11-2.06m176.89-79.88c-1.27-4.05 2.37-8.14 6.33-9.66 3.97-1.51 8.39-1.47 12.4-2.9 4-1.43 7.78-5.3 6.8-9.42M350.26 733.12c3.9-5.93 1.25-15.08-5.22-18-1.98-.9-4.16-1.25-6.17-2.09-2-.83-3.94-2.34-4.4-4.46-.44-2.13 1.36-4.68 3.5-4.28m-33.29-68.86 8.9-9.58m-.13 11.07a54.12 54.12 0 0 1-11.8-17.51m52.98 7.12L356 610.8m-63.67-38.54a13.81 13.81 0 0 1-12.01-4.2m121.53 144.7-5.47-12.32m-4.81 10.92 13.94-7.03m-44.71 59.75a36.79 36.79 0 0 0 10.94-13m49.88-573.48 2.18-18.46m-31.04 25.41-19.23-37.95m-1.79 59.08-13.7-6.15m122.51-63.66 9.58-17.11m3.34 12.42-14.84-11.23M47.67 592.15c18.72-4.77 40.1 4.3 49.67 21.07 9.58 16.78 6.52 39.79-7.1 53.48-5.76 5.78-13.85 10.06-21.88 8.62-8.02-1.44-14.64-10.46-11.43-17.95 3.1-7.2 13.74-8.85 20.02-4.16 6.29 4.7 8.25 13.63 6.47 21.26-1.77 7.64-6.63 14.18-11.9 19.98-3.75 4.11-7.79 8.02-10.7 12.75-2.92 4.72-4.62 10.53-3.15 15.88 1.48 5.36 6.83 9.81 12.32 8.96 5.49-.85 9.2-8.2 5.72-12.54m9.46-169.06L72.7 535.5m-1.3 15.84 15.03-15.08m791.53-377.07-4.79-16.43m-6.12 11.94 17.12-8.17M673.33 442.34c-.45-6.4 6.9-11.47 13.16-10.06 6.25 1.4 10.58 7.62 11.41 13.98.83 6.35-1.22 12.74-4 18.52-2.76 5.78-6.27 11.2-8.65 17.15-6.12 15.23-4.31 32.61.64 48.26 2.27 7.14 5.32 14.33 10.83 19.4 5.5 5.08 14 7.55 20.71 4.22 3.14-1.56 5.78-4.51 6.13-8 .34-3.49-2.18-7.26-5.67-7.57-3.5-.3-6.75 3.87-5.07 6.94"/>
    <path stroke="#171717" stroke-linecap="round" stroke-linejoin="round" stroke-width="3" d="M883.87 353.02c4.36-2.1 9.75-.84 13.68 1.98 3.92 2.82 6.66 6.97 9.13 11.13 6 10.12 11.05 21.04 12.66 32.7 1.6 11.65-.53 24.18-7.7 33.51-9.05 11.8-24.2 16.7-36.95 24.36-12.63 7.59-23.45 18.53-29.61 31.9-3.38 7.35-5.34 15.7-3.4 23.56 1.93 7.86 8.48 14.91 16.54 15.58 8.06.67 16.35-6.78 15-14.76-.64-3.82-3.83-7.44-7.7-7.35-3.87.09-6.93 5.26-4.4 8.18m26.61-119.95 8.9-5.48m-2.58 8.48-6.34-12.57M740.54 272.78l-8.2-10.28m-2.01 9.55 10.27-10.27M49.53 641.47a36.93 36.93 0 0 1-8.15-11.28"/>
    <path stroke="#171717" stroke-linecap="round" stroke-linejoin="round" stroke-width="3" d="M39.84 642.27a37.27 37.27 0 0 0 10.27-10.26"/>
    <path fill="#171717" d="M459.8 259.27c-2.55-1.06-5.04.04-7.56.6a8.17 8.17 0 0 1-7.25-1.25c-3.84-2.48-9.4-.07-10.5 4.26a43.79 43.79 0 0 1-21.35 28.15 36.78 36.78 0 0 1-16.5 4.32c-8.9.25-17.37 2.8-19.77 12.57-1.9 7.71.95 16.41 1.54 24.18.69 8.9 1.38 17.76 1.38 26.7a261.7 261.7 0 0 1-1.47 26.7c-.93 9.06-3.6 18.27-3.88 27.32-.28 9.05 14.11 13.89 18 4.88 3.74-8.67 4.8-18.66 6.05-27.98a224.9 224.9 0 0 0 1.88-28.06c.1-8.92-.34-17.84-1.34-26.71-.56-4.68-1.38-9.34-2.18-13.99-.06-.39-.95-8.42-1.25-8.54-2.56 1.93-3.2 2.6-1.93 2l2.23-.1c1.64-.07 3.26-.17 4.9-.37a48.96 48.96 0 0 0 10.53-2.28 59.96 59.96 0 0 0 18.38-10.44 50.54 50.54 0 0 0 18.82-36.45l-9.04 6.9c5.52 2.23 12.92 2.22 18.15-.83 3.78-2.22 8.18-9.1 2.17-11.58zM359.97 425.8c-1.06 4.4-1.04 7.18-4.64 10.3-3.1 2.67-7.65 3.38-11.57 3.96-11.72 1.75-23.53 2.52-35.22 4.63a302.92 302.92 0 0 0-52.15 14.24c-6.2 2.3-13.17 4.25-18.17 8.62-6.31 5.52-1.5 18 7.13 17.2 6.99-.63 13.56-4.4 20.14-6.82a318.6 318.6 0 0 1 19.48-6.47 325.39 325.39 0 0 1 40.88-9.41c12.2-1.97 25.97-1.52 36.82-8.19 9.51-5.85 17.93-21.56 8.58-31.05-3.48-3.54-10.09-1.98-11.28 2.98zm109.06 30.73c8.44 5.88 21.77 1.75 30.93-1.1a151.6 151.6 0 0 0 28.7-12.3 177.58 177.58 0 0 0 46.74-38.33c30.22-34.68 46.5-78.7 52.76-123.86 3.83-27.6 4.45-55.42 3.13-83.23-.65-13.58-21.84-13.65-21.19 0 2.16 45.3-.41 91.51-16 134.5-12.97 35.74-36.49 68.47-68.76 89.13a137.6 137.6 0 0 1-27.19 13.73 198.12 198.12 0 0 1-15.47 4.68c-5.46 1.49-11.1 2.98-14.88 7.2a6.2 6.2 0 0 0 1.23 9.58zm150.82-294.6c10.76 4.73 23.85.98 34.72-1.6a282.65 282.65 0 0 0 34.39-10.8c4.8-1.81 8.1-6.42 6.64-11.7-1.27-4.63-6.86-8.46-11.7-6.65a445.82 445.82 0 0 1-33.4 10.8c-10.31 2.96-23.53 4.47-31.66 12.08-2.16 2.02-1.94 6.58 1.01 7.88z" opacity=".1"/>
  </g>
  <defs>
    <linearGradient id="b" x1="466.72" x2="466.72" y1="188.56" y2="792.82" gradientUnits="userSpaceOnUse">
      <stop stop-color="#42E670"/>
      <stop offset="1" stop-color="#07AA50"/>
    </linearGradient>
    <linearGradient id="c" x1="852.66" x2="852.66" y1="237.14" y2="299.76" gradientUnits="userSpaceOnUse">
      <stop stop-color="#42E670"/>
      <stop offset="1" stop-color="#07AA50"/>
    </linearGradient>
    <linearGradient id="d" x1="766.77" x2="766.77" y1="465.71" y2="524.57" gradientUnits="userSpaceOnUse">
      <stop stop-color="#42E670"/>
      <stop offset="1" stop-color="#07AA50"/>
    </linearGradient>
    <clipPath id="a">
      <path fill="#fff" d="M38 95h884v770H38Z"/>
    </clipPath>
  </defs>
</svg>
