<svg xmlns="http://www.w3.org/2000/svg" width="883.33" height="715.26" fill="none">
  <g clip-path="url(#a)" transform="translate(-38.5 -122.77)">
    <g clip-path="url(#b)">
      <path fill="url(#c)" fill-rule="evenodd" d="M530.53 771.95c-15.7-18.57-19.18-46.68-8.3-68.45l-.2-.1c0-.03 0-.07.02-.09l-1.63-.5c-18.44 6.75-37.02 13.56-56.42 16.61a121.6 121.6 0 0 1-28.35 1.29 86.35 86.35 0 0 1-29.4-7.28c-24.4-11.16-41.76-35.8-45.36-62.4-.09-.66-.18-1.34-.24-2-2.86-25.97 6.83-52.85 24.78-71.88 18.42-19.51 44.96-30.74 71.77-31.79l-31.74 100.82.04 1.4c54.28-1.13 108.4-2.51 162.55-3.9l49.04-1.24-.06-2.39c-.78-2.34-27.31-86.43-27.31-86.43 40.7 5.25 82.67-3.45 119.28-22 36.6-18.54 67.95-46.64 92.72-79.37 25.38-33.54 44.25-72.55 50.76-114.1 6.52-41.57.11-85.68-21.42-121.8-4.3-7.25-9.66-14.52-17.53-17.6a23.5 23.5 0 0 0-7.05-1.52c-8.63-.56-17.64 3.18-25.6 7.22-6.85 3.48-13.92 7.58-18.73 13.38a26.18 26.18 0 0 0-4.13 6.79c-4.36 10.65-.47 22.35 3.25 33.51.54 1.64 1.08 3.26 1.59 4.87 13.07 41.25 5.2 87.91-18.02 124.43-23.21 36.52-60.8 62.96-102.13 75.75-41.33 12.78-85.06 12.42-127.13 2.31l-.35.01c.18 5.8 1.9 11.51 3.6 17.2.6 2 1.2 3.99 1.72 5.98a93.65 93.65 0 0 1 3.05 27.42c-.12 3-.83 6.62-3.65 7.63-2.76.98-5.57-1.25-7.5-3.44-14.21-16-18.69-38.22-21.56-59.43l-.34-2.6-.59.08c-37.8 5.24-75.25 15.12-109.18 32.62-33.93 17.5-64.27 42.89-84.46 75.28-15.7 25.17-24.93 54.7-25.08 84.26-.07 8.49.65 16.96 2.15 25.31 6.77 37.56 30.68 72.4 64.9 89.27 13.92 6.86 28.97 10.67 44.35 12.99a373.99 373.99 0 0 0 31.81 3.15c32.64 2.1 66.22 2.45 97.19-8a39.9 39.9 0 0 1-1.11-1.27zm307.38-558.3a1.66 1.66 0 1 0-2.76 1.83c23.48 35.24 28.77 80.63 20.63 122.4-8.13 41.78-28.65 80.31-53.18 115.33a1.66 1.66 0 0 0 2.72 1.91c24.67-35.22 45.47-74.2 53.72-116.6 8.26-42.41 2.95-88.75-21.13-124.88z" clip-rule="evenodd" style="fill:url(#c)"/>
      <path fill="#171717" fill-rule="evenodd" d="M505.77 350.67c21.71-3.31 42-12.8 58.45-27.36l2.86.74a74.78 74.78 0 0 1 15.59 58.6l1.27.2c14.72-14.28 25.34-33.18 27.9-53.55 2.56-20.37-3.42-42.04-17.52-56.94-18.57-19.64-48.77-25.17-75.03-18.85-26.26 6.32-49 22.92-68.07 42.05-3.85 3.86-7.61 7.86-11.39 11.87-14 14.87-28.08 29.84-46.61 37.88-14.77 6.4-30.94 7.77-47.1 9.14-5.95.5-11.9 1-17.78 1.75-42.37 5.44-83.9 25.8-109.1 60.3-11.18 15.3-18.81 32.71-26.45 50.14-7.23 16.51-14.46 33.03-24.71 47.76-27.97 40.2-78.62 63.38-127.32 58.29l-.08.72c60.12 30.4 134.38 18.77 183.12-27.72 11-10.5 20.52-22.49 30.03-34.46 13.57-17.08 27.1-34.11 44.8-46.64a115.39 115.39 0 0 1 53.69-20.4c17.37-1.92 34.76.15 52.18 2.22 8.6 1.03 17.2 2.05 25.82 2.6 26.06 1.65 54.61-2.14 73.1-20.57l2.37-.52c-2.2-10.12-5.36-19.9-10.56-28.84l-1.42-.81c9.81-13.4 14.51-30.66 12.03-47.12l-.06-.48zm53.9-90.08c-28.6-8.53-59.09 5.53-81.57 24.18-9.92 8.22-18.98 17.44-27.97 26.57l-3.6 3.66c-10.2 10.34-20.46 20.42-32.06 28.89a1.66 1.66 0 0 0 1.96 2.68c11.84-8.64 22.26-18.89 32.47-29.23l3.6-3.67c9-9.15 17.94-18.23 27.72-26.35 22.18-18.4 51.5-31.6 78.5-23.55a56.18 56.18 0 0 1 37.88 69.52 1.66 1.66 0 0 0 3.2.92 59.5 59.5 0 0 0-40.13-73.62z" clip-rule="evenodd"/>
      <path fill="url(#d)" d="M741.45 688.68c3.16 2.42 1.76 7.4.02 10.99a326.61 326.61 0 0 1-22.41 38.89l-.71-.48a14.43 14.43 0 0 0-13.02-8.84l-.79-.58 25.47-34.85a17.7 17.7 0 0 1 4.83-5.03c2-1.21 4.75-1.51 6.61-.1z" style="fill:url(#d)"/>
      <path fill="url(#e)" d="m718.35 738.08.7.48a328.07 328.07 0 0 1-13.24 18.35c-3.95 5.1-11.2 12.27-17.47 5.88-6.42-6.54 2.17-14.94 6.06-20.25l10.14-13.88.79.58a14.44 14.44 0 0 1 13.02 8.84z" style="fill:url(#e)"/>
      <path stroke="#171717" stroke-linecap="round" stroke-linejoin="round" stroke-width="3.32" d="M542.15 383.32c1.23 1.9 4.32 1.84 5.93.25a6.67 6.67 0 0 0 1.3-6.37 22.39 22.39 0 0 0-3.07-6.04 15.9 15.9 0 0 1-2.68-6.2m-10.36 39.43a9.75 9.75 0 0 1-10.41-1.62"/>
      <path stroke="#171717" stroke-linecap="round" stroke-linejoin="round" stroke-width="3.32" d="M495.23 399.08c5.2 8.94 8.36 18.73 10.56 28.84 2.17 9.95 3.42 20.22 4.76 30.34l.34 2.6c2.88 21.2 7.35 43.42 21.56 59.43 1.93 2.19 4.74 4.42 7.5 3.44 2.82-1 3.53-4.63 3.65-7.63a93.72 93.72 0 0 0-3.05-27.42c-2.03-7.67-5.08-15.34-5.31-23.18-.05-1.32 0-2.65.13-3.97.88-8.65 5.84-16.37 11.65-22.83 5.82-6.46 12.6-12 18.29-18.58a75.1 75.1 0 0 0 1.76-96.08"/>
      <path stroke="#171717" stroke-linecap="round" stroke-linejoin="round" stroke-width="3.32" d="M564.48 352.83a11.16 11.16 0 0 0-14.14.82m-19.52 4.65a11.57 11.57 0 0 0-14.72.22m-31.8-6.79c7.18.38 14.37.02 21.47-1.06a114.2 114.2 0 0 0 58.45-27.36 106.12 106.12 0 0 0 15.33-16.82M478.43 413.1c5.95-4 11.15-9.03 15.38-14.83 9.81-13.4 14.51-30.65 12.03-47.12"/>
      <path stroke="#171717" stroke-linecap="round" stroke-linejoin="round" stroke-width="3.32" d="M583.93 382.85c14.72-14.29 25.33-33.2 27.9-53.56 2.57-20.35-3.42-42.03-17.51-56.94-18.58-19.63-48.78-25.17-75.04-18.85-26.26 6.33-49 22.92-68.07 42.06-18.11 18.17-34.47 39.53-58 49.75-20.2 8.76-43.03 8.08-64.87 10.89-42.37 5.44-83.91 25.8-109.1 60.29-21.77 29.8-30.1 67.62-51.17 97.9-27.96 40.2-78.61 63.38-127.31 58.3l-.6-.06"/>
      <path stroke="#171717" stroke-linecap="round" stroke-linejoin="round" stroke-width="3.32" d="M503.43 428.44c-18.5 18.43-47.05 22.22-73.11 20.57-26.06-1.65-52.06-7.68-78-4.82a115.4 115.4 0 0 0-53.7 20.4c-30.1 21.3-48.13 55.63-74.82 81.1-48.74 46.49-123 58.12-183.12 27.72m469.28-115.07c-37.8 5.24-75.27 15.12-109.18 32.62-33.92 17.5-64.27 42.89-84.46 75.28-15.7 25.17-24.93 54.7-25.08 84.26a137.8 137.8 0 0 0 2.15 25.3c6.77 37.57 30.68 72.4 64.9 89.28 13.92 6.86 28.97 10.67 44.35 12.99a374.44 374.44 0 0 0 31.8 3.15c32.65 2.1 66.23 2.44 97.2-8 .63-.2 1.26-.41 1.88-.64"/>
      <path stroke="#171717" stroke-linecap="round" stroke-linejoin="round" stroke-width="3.32" d="M531.79 773.4a39.9 39.9 0 0 1-1.26-1.45c-15.7-18.57-19.18-46.68-8.3-68.45"/>
      <path stroke="#171717" stroke-linecap="round" stroke-linejoin="round" stroke-width="3.32" d="m564.95 747.92 28.46-6.7c3.37-.78 7.29-1.46 9.97.73 3 2.43 2.66 7.41.29 10.46-2.37 3.04-6.15 4.62-9.79 5.94-19.7 7.14-42.27 13.81-63.22 13.5m34.29-23.93a174.8 174.8 0 0 1-13.71 3.23zm-2.55-20.91 22.52-8.74c6.05-2.35 14.17-4.16 17.98 1.1 2.46 3.39 1.57 8.35-1 11.67-2.56 3.31-6.43 5.3-10.24 7.06a175.82 175.82 0 0 1-26.71 9.82m-2.55-20.91a140.62 140.62 0 0 1-12.9 5.01l12.9-5zm-40.37-23.62.02-.08c2.52-8.48 7.53-16 14.38-21.6 2.2-1.8 5.33-3.41 7.76-1.92 2.06 1.28 2.4 4.1 2.38 6.52a69.87 69.87 0 0 1-6.06 28.2 95.6 95.6 0 0 1 45.2-21.7c4.68-.85 10.67-.72 12.72 3.56 2.17 4.53-2 9.44-5.95 12.54A141.45 141.45 0 0 1 562.4 727m213.96-575.26c-.76-1.73-1.49-3.46-2.22-5.2-1.39-3.3-2.75-6.7-2.83-10.28-.07-3.57 1.41-7.4 4.52-9.15 3.74-2.08 8.64-.53 11.67 2.46 3.04 3 4.65 7.12 6.16 11.1a96038 96038 0 0 1 15.56 40.84l-13.73-36.4c-1.5-3.97-3.02-8.16-2.48-12.37.54-4.21 3.91-8.41 8.16-8.31 4.71.12 7.73 4.95 9.67 9.25a182.11 182.11 0 0 1 15.69 62.67"/>
      <path stroke="#171717" stroke-linecap="round" stroke-linejoin="round" stroke-width="3.32" d="M776.36 151.73c6.42 10.96 11.49 22.8 16.47 34.5a515.11 515.11 0 0 1-16.48-34.5z"/>
      <path stroke="#171717" stroke-linecap="round" stroke-linejoin="round" stroke-width="3.32" d="M781.98 217.7a133.95 133.95 0 0 1-34.57-10.78c-3.27-1.53-6.92-3.88-6.96-7.5-.02-2.5 1.92-4.71 4.21-5.74a16.7 16.7 0 0 1 7.4-1.03 81.19 81.19 0 0 1 29.3 6.31c-12.96-16.5-26.37-33.96-29.7-54.68-.75-4.63-.18-10.63 4.23-12.2 4.1-1.46 8.13 2.1 10.84 5.5 3.54 4.48 6.76 9.22 9.63 14.16m-71.82 576.92-10.13 13.88c-3.9 5.32-12.5 13.71-6.07 20.25 6.26 6.4 13.52-.79 17.47-5.88a326.25 326.25 0 0 0 35.67-57.24c1.73-3.58 3.13-8.57-.03-10.99-1.86-1.41-4.6-1.11-6.61.1a17.75 17.75 0 0 0-4.83 5.02z"/>
      <path stroke="#171717" stroke-linecap="round" stroke-linejoin="round" stroke-width="3.32" d="M718.35 738.08a14.43 14.43 0 0 0-13.02-8.84m-17.77 20.34c-2.7.1-4.72-2.84-4.65-5.54.08-2.7 1.63-5.1 3.2-7.3 4.18-5.86 8.9-11.33 14.07-16.34m-63.15-80.35c-.79-2.34-27.31-86.43-27.31-86.43 40.7 5.25 82.67-3.45 119.28-22 36.6-18.54 67.95-46.64 92.72-79.37 25.38-33.54 44.24-72.56 50.76-114.11 6.51-41.55.1-85.66-21.42-121.8-4.31-7.25-9.66-14.52-17.53-17.59a23.45 23.45 0 0 0-7.06-1.52c-8.62-.56-17.63 3.18-25.6 7.22-6.85 3.48-13.92 7.58-18.73 13.37a26.2 26.2 0 0 0-4.13 6.8c-5 12.2.86 25.8 4.84 38.38 13.08 41.25 5.19 87.9-18.01 124.43-23.2 36.52-60.79 62.96-102.13 75.75-41.34 12.78-85.06 12.42-127.13 2.32M425.46 646.18l31.74-100.82c-26.81 1.05-53.35 12.28-71.77 31.79-17.95 19.02-27.64 45.9-24.78 71.88.06.66.15 1.34.24 2 3.6 26.6 20.95 51.24 45.35 62.4a86.32 86.32 0 0 0 29.4 7.28c9.48.68 19 .25 28.36-1.29 19.4-3.06 37.98-9.86 56.42-16.62"/>
      <path stroke="#171717" stroke-linecap="round" stroke-linejoin="round" stroke-width="3.32" d="m774.68 639.27 145.49 197.1L73.1 826.2l161.12-174.42"/>
      <path stroke="#171717" stroke-linecap="round" stroke-linejoin="round" stroke-width="3.32" d="M362.77 648.8c20.94-.36 41.85-.76 62.73-1.21 70.66-1.49 141.05-3.38 211.59-5.15 45.76-1.16 91.63-2.21 137.6-3.17m-540.46 12.51c19.22.2 36.95-2.02 55.66-1.29m98.42 154.59 266.7-2.35-28.15-140.78H468.09m-65.51 117.51c-5.08 7.7-9.51 16.56-14.27 25.62"/>
      <path stroke="#171717" stroke-linecap="round" stroke-linejoin="round" stroke-width="3.32" d="M468.09 661.95c-6.33 11.08-11.87 22.16-18.51 34.35-5.54 7.75-8.87 16.62-13.88 23.74m-1.16-100.95c6.86 11.2 21.76 15.16 34.75 13.2 12.98-1.97 24.7-8.62 36.43-14.53 11.73-5.9 24.4-11.28 37.5-10.34 10.27.74 19.84 5.3 28.98 10.04 9.13 4.75 18.31 9.83 28.43 11.75 10.11 1.93 21.56.14 28.72-7.26"/>
      <path stroke="#171717" stroke-linecap="round" stroke-linejoin="round" stroke-width="3.32" d="M438.43 606.62c8.63 10.55 24.44 12.37 37.64 8.97 13.2-3.39 24.88-10.94 37.35-16.44 13.27-5.85 28.23-9.42 42.3-5.92 8.19 2.04 15.6 6.33 22.9 10.52 7.3 4.2 14.78 8.4 23 10.24 8.22 1.84 17.45 1 24.1-4.17"/>
      <path stroke="#171717" stroke-linecap="round" stroke-linejoin="round" stroke-width="3.32" d="M443.03 592.12c10.14 8.12 24.56 8.8 37.16 5.66 12.6-3.14 24.08-9.6 36.02-14.7 11.94-5.12 25.1-8.94 37.83-6.4 7.85 1.56 15.02 5.44 21.97 9.4 6.96 3.95 13.95 8.07 21.66 10.2 7.72 2.11 16.42 2.02 23.25-2.14m160.57-336.27a91.9 91.9 0 0 1 74.6-30.58"/>
      <path stroke="#171717" stroke-linecap="round" stroke-linejoin="round" stroke-width="3.32" d="M786.1 272.22a68.73 68.73 0 0 1 76.34-29.53M492.97 712.66a70.78 70.78 0 0 0 17.9 64.5m-30.37-60.2a71.57 71.57 0 0 0 14.7 63.32M621.15 280.3l21.23-21m-1.31 25.04-18.8-26.56m-199.16 39.85-14.13-11.94m-.62 14.69 12.67-16.57m14.92-32.94-2.96-13.8m-7.48 9.9 16.22-5.59m329.92 290.08a290.79 290.79 0 0 0 65.75-62.6m-647.25-31.24a123.7 123.7 0 0 1 44.47-64.02M134.9 607.2a107.67 107.67 0 0 0 65.6-23.58"/>
      <path fill="url(#f)" d="M617.44 207.48a12.43 12.43 0 0 0 3.1-3.92 5.12 5.12 0 0 0-.15-4.82c-1.37-2.08-4.34-2.37-6.79-1.89a17.18 17.18 0 0 0-11.01 7.47c1.44-3.78 1.86-8.16.1-11.8-1.77-3.64-6.14-6.14-10-4.9-3.6 1.15-5.7 5.11-5.82 8.89-.13 3.77 1.3 7.41 2.77 10.89 2.66 6.25 3.82 14.4 6.68 13.26 6.27-2.5 16.17-8.6 21.12-13.18z" style="fill:url(#f)"/>
      <path fill="#171717" d="m542.59 211.02 10.24-1.87a.65.65 0 0 1 .68.32.66.66 0 0 1-.06.74l-6.57 8.08a.65.65 0 0 0-.06.72l4.93 9.17c.07.11.1.25.08.38a.65.65 0 0 1-.89.54l-9.71-3.75a.65.65 0 0 0-.71.16l-7.19 7.53a.65.65 0 0 1-1.13-.5l.57-10.4a.66.66 0 0 0-.37-.62l-9.38-4.51a.66.66 0 0 1-.37-.65.65.65 0 0 1 .48-.57l10.07-2.68a.65.65 0 0 0 .48-.54l1.39-10.32a.66.66 0 0 1 .5-.55.66.66 0 0 1 .7.28l5.65 8.75a.66.66 0 0 0 .67.29z"/>
      <path stroke="#171717" stroke-linecap="round" stroke-linejoin="round" stroke-width="3.32" d="M319.9 213.11c-8.74-34.23-49.56-56.33-83-44.93-33.45 11.4-52.27 53.83-38.28 86.28 4.12 9.55 12.1 18.88 22.49 19.07 16.07.29 23.38-24.3 12.02-35.67-11.36-11.37-31.8-8.52-43.48 2.51-11.68 11.04-16.22 27.68-17.88 43.66-1.65 15.99-.96 32.28-4.53 47.94-3.57 15.67-12.5 31.31-27.33 37.48m707.9-39.91-7.03-9.39m-32.86 68.05a31.49 31.49 0 0 1 11.74-10.56M809.1 344.8l-5.87-8.22m-29.15 138.34-5.9-10.54m-33.22-18.95 12.7-10.81m36.8-5.36-2.35-14.07m-79.77 106.76 9.38-15.26m-45.75-12.9-14.08-4.69m-29.33 49.27 7.04-12.9M582.67 502a28.9 28.9 0 0 0-12.9-8.21m-4.7 61.01 7.04-10.56m-76.26 10.56-7.04-8.21m-22.29-42.24 11.73-14.08m-62.12 38.69a13.55 13.55 0 0 0-9.45-6.96m-58.71 56.23 8.98-15.49m-14.79 76.53-8.21-8.22m-27.12-12.99 8.15-11.78m23.66 86.95-8.2 12.9m35.19 22.3-8.22-9.38m67.01 24.77 8.24-8.19M402 762.45l-8.21-7.04m105.28-295.24c1.72 22.17 6.25 44.96 19.37 62.91 3.33 4.57 7.33 8.87 12.48 11.2 5.15 2.34 11.65 2.33 16.08-1.18 3.49-2.76 5.23-7.27 5.6-11.7.37-4.44-.47-8.88-1.3-13.25l-7.6-39.76"/>
      <path fill="#171717" d="M563.93 322.67c-3.64 2.78-6.5 6.4-9.97 9.4a76.63 76.63 0 0 1-12.77 8.45 83.78 83.78 0 0 1-28.03 9.58l4.76 1.26-1.46-1.18c-4.4-3.55-12.62-1.72-12.23 5.06.4 6.96.69 14.07-.8 20.92a41.5 41.5 0 0 1-3.23 9.6c-1.76 3.56-4.45 6.55-5.38 10.46-1.76 7.37 6.31 14.44 13.22 10.16 7.96-4.94 11.84-17.26 13.28-26.1 1.61-9.9.86-19.64-3.74-28.66v7.23l1.1-1.56-2.92 2.24a79.64 79.64 0 0 0 29.67-11.77 75.82 75.82 0 0 0 11.43-9.53c3.73-3.7 8.05-7.57 10.15-12.49.75-1.75-1.05-4.63-3.08-3.07zM438.47 646.55c8.77-15.85 14.9-33.89 20.9-50.94a513.23 513.23 0 0 0 15.44-52.63c1.44-6.12-2.81-11.32-8.93-11.7-16.41-1.06-35.15 1.7-49.68 9.87-7.23 4.07-14.47 8.12-21.09 13.16-6.3 4.82-11.9 11.14-17.07 17.18a109.08 109.08 0 0 0-22.7 43.54 84.36 84.36 0 0 0-2.38 24.96c.2 4.05.6 8.09 1.2 12.1.6 4.12.73 7.75 3.2 11.2 1.18 1.65 4.1 1.69 4.63-.6.9-3.86.03-6.94-.17-10.85-.16-3.68-.1-7.38.2-11.06.68-7.7 2.03-15.33 4.03-22.8a94.18 94.18 0 0 1 20.25-39.35c4.94-5.62 10.71-9.53 16.86-13.62 5.96-3.96 12.23-7.48 19.14-9.39 6.94-1.9 13.91-4.56 21.1-5.31 7.47-.8 15-.98 22.49-.53l-8.93-11.71a754.75 754.75 0 0 1-14.3 51.96c-5.4 17.12-12.62 33.6-18.15 50.63-2.68 8.25 9.79 13.44 13.96 5.89zm-144.53 5.49c-1.7 4.01-3.07 6.69-3 11.17.07 4.65.17 9.22.69 13.85 1.06 9.45 4.17 18.23 8.03 26.89a124.2 124.2 0 0 0 32.77 44.2c31.03 26.42 72.96 37.57 113.08 38.14 25.31.37 50.64-3.33 75.31-8.72 6.04-1.32 9.56-8.35 7.99-14.07-1.71-6.23-8.01-9.31-14.07-7.99-37.37 8.16-76.9 11.9-114.4 2.36-31.73-8.07-63.4-26.2-81.72-54.07-5.18-7.89-8.82-16.14-12.22-24.89a169.1 169.1 0 0 1-4.4-12.52c-.68-2.24-.9-4.55-1.38-6.82-.58-2.71-2.02-4.5-3.08-7.05-.55-1.33-2.85-2.23-3.6-.47z" opacity=".1"/>
    </g>
  </g>
  <defs>
    <linearGradient id="c" x1="583.07" x2="583.07" y1="197.17" y2="782.4" gradientUnits="userSpaceOnUse">
      <stop stop-color="#42E670"/>
      <stop offset="1" stop-color="#07AA50"/>
    </linearGradient>
    <linearGradient id="d" x1="723.94" x2="723.94" y1="687.74" y2="738.56" gradientUnits="userSpaceOnUse">
      <stop stop-color="#42E670"/>
      <stop offset="1" stop-color="#07AA50"/>
    </linearGradient>
    <linearGradient id="e" x1="702.54" x2="702.54" y1="728.66" y2="765.31" gradientUnits="userSpaceOnUse">
      <stop stop-color="#42E670"/>
      <stop offset="1" stop-color="#07AA50"/>
    </linearGradient>
    <linearGradient id="f" x1="603.96" x2="603.96" y1="187.29" y2="220.77" gradientUnits="userSpaceOnUse">
      <stop stop-color="#42E670"/>
      <stop offset="1" stop-color="#07AA50"/>
    </linearGradient>
    <clipPath id="a">
      <path fill="#fff" d="M0 0h960v960H0Z"/>
    </clipPath>
    <clipPath id="b">
      <path fill="#fff" d="M38 122h884v717H38Z"/>
    </clipPath>
  </defs>
</svg>
