<svg xmlns="http://www.w3.org/2000/svg" width="883.04" height="754.32" fill="none">
  <g clip-path="url(#a)" transform="translate(-38.98 -103.47)">
    <g clip-path="url(#b)">
      <path fill="#171717" fill-rule="evenodd" d="M274.44 643.53a168.83 168.83 0 0 0 25.9-46.02c7.74 24.82 10.67 51.08 13.6 77.31 3.44 30.83 6.88 61.63 18.1 90.05l.94 2.28c2.56 6.03 5.86 12.07 10.3 16.58a24.58 24.58 0 0 0 10.74 6.6c9.48 2.7 24.62-.52 33.68-5.9.7-.4 1.37-.84 2-1.28 11.93-8.42 16-26.38 16.92-44.23.77-14.56-.55-29.06-1.4-38.27-.2-2.36-.39-4.37-.5-5.95a666.35 666.35 0 0 0-38.63-182l-.05-.53-8.05.76-13.7 1.28c-19.56 1-39.38 1.5-59.2 2-15.22.4-30.43.78-45.54 1.4l.07 1.75c.24 26.87-6.73 54.43-23.26 75.62-16.52 21.2-43.4 35.08-70.13 32.38-3.85-.4-7.71-1.11-11.56-1.83-8.36-1.55-16.69-3.1-24.9-1.3a33.01 33.01 0 0 0-17.3 10.32 38.48 38.48 0 0 0-9.62 21.02c-1.74 14.59 4.75 29.45 15.26 39.72 13.84 13.51 33.93 19.41 53.26 18.76 19.33-.66 38.03-7.31 55.28-16.07 26.06-13.21 49.7-31.52 67.79-54.45zm84.77-116.96a1.51 1.51 0 1 0-2.83 1.05 562.59 562.59 0 0 1 34.36 235.16 1.51 1.51 0 0 0 3.01.2 565.62 565.62 0 0 0-34.54-236.41z" clip-rule="evenodd"/>
      <path fill="#171717" d="m859.14 452.7.1.53a52.15 52.15 0 0 1-33.35 19.3c-13.03 1.87-25.45-2.42-36.13-10.12l-.3-.1c.2-.58.39-1.17.57-1.75 19.67-13.7 47.62-18.16 69.1-7.86zm-57.76-29.32.79-2.75c11.92-13.13 31.07-19.46 48.44-15.67l.35.17a38.8 38.8 0 0 1-49.73 18.78l.15-.54zm9.99-37.91-.05.23-.5-.12A25.36 25.36 0 0 1 842 361.32l.73.84a44.42 44.42 0 0 1-31.32 23.31zm-.75.13-1.32.8a26.53 26.53 0 0 1-27.27-30.7l.62-.76c7.17-.82 16.14 4.66 20.28 10.56 4.15 5.9 6 13.08 7.7 20.1zm-10.12 36.96c-.37.46-.74.93-1.1 1.41v.02c-9.05 2.3-19.18-1.76-25.42-8.85-6.72-7.63-9.46-18.1-9.75-28.27l.22-.32c16.8 3.9 32.27 19.14 36.06 36.01z"/>
      <path fill="#171717" d="M799.4 423.97c.36-.48.72-.95 1.1-1.4.1.34.17.69.23 1.04-.44.15-.88.28-1.33.38zm-31.64-267.85c14.17 7.9 25.68 22.44 25.63 38.66-.05 15.64-13.9 31.03-29.25 29.84a24.6 24.6 0 0 1-1.7-.2c-11.07-1.73-20.08-12.28-20.06-23.5.02-11.2 9.08-21.72 20.16-23.41l-43.47-1.14-.24-.1c7.96-18.46 20.29-27.03 42.74-23.14l.02-.04c2.1.9 4.16 1.92 6.17 3.03zm20.94 304.75.3.43c-.4.29-.81.59-1.21.9-10.39 1.1-21.33-1.35-30.98-6.33a219 219 0 0 0-3.44-20.86 45.5 45.5 0 0 1 10.9 3.84c9.1 4.6 20.12 12.78 24.42 22.02zm-12.79 41.92a81.74 81.74 0 0 1 90.66 5.5l.14.21a73.6 73.6 0 0 1-91.34-4.4l-.38-.14c.05-.17.12-.34.18-.5l.3-.84zm-1.66 1.19c-5.83 5.41-13.4 8.68-21.4 10.16a153.27 153.27 0 0 0 4.43-24.46 48.14 48.14 0 0 1 17.67 13.7l.21.08-.18.5-.1.25z"/>
      <path fill="url(#c)" d="M717.56 826.88c-15.68-22.78-30.66-48.5-37.89-75.14l.67-.19c40.75-79.6 118.04-139.57 205.28-159.27l.57.02a281.58 281.58 0 0 1-48.42 142.73c-28.83 42.17-62.34 74.4-119.64 91.46l-.57.4z" style="fill:url(#c)"/>
      <path fill="#171717" d="M757.28 489.68a152.97 152.97 0 0 1-4.43 24.46 60.1 60.1 0 0 1-18.24.51 48.77 48.77 0 0 1-34.41-21.45l.17-.47c11.05-7.64 25.94-10.51 39.2-8.45a65.64 65.64 0 0 1 17.71 5.4zm-2.68 66.86a70.47 70.47 0 0 1 80.62 4.25 61.33 61.33 0 0 1-41.38 13.78 60.24 60.24 0 0 1-39.71-17.09l-.05-.02.39-.94v-.01l.01-.02zM753.37 435a217.8 217.8 0 0 1 3.44 20.87 57.09 57.09 0 0 1-22.48-20.34l.2-.67a46.05 46.05 0 0 1 18.84.15zm.28 121.19a54.65 54.65 0 0 1-18.49 4c2.23-4.64 4.37-9.31 6.4-14.01 4.58 2.6 8.67 6 12.09 10z"/>
      <path fill="#171717" d="M722.89 538.68a71.03 71.03 0 0 1 18.66 7.5 380.4 380.4 0 0 1-6.39 14c-17.02.8-35-5.5-45.53-18.05l-.37-.9a54.47 54.47 0 0 1 33.63-2.55zm12.08 64.98a56.3 56.3 0 0 1 60.18 12l-.15.17c-9.62 6.8-23.59 10.3-35.09 7.72-11.4-2.54-20.38-8.46-26.18-18.53.14-.31.28-.63.4-.95a5.04 5.04 0 0 0 .3-.65z"/>
      <path fill="#171717" d="m734.35 603.59-.21.48-.7-.31c-6.51 4.43-14.57 5.85-22.46 4.98a852.9 852.9 0 0 1 9.5-19.18 47.42 47.42 0 0 1 13.73 13.97z"/>
      <path fill="#171717" d="M720.47 589.56a890.95 890.95 0 0 0-9.5 19.18 42.9 42.9 0 0 1-10.63-2.59c-10.74-4.11-19.68-11.9-27.53-20.3v-.3c10.14-4.1 25.54-5 35.95-1.67a46.6 46.6 0 0 1 11.71 5.68zM565.88 227.79l6.15 16.9-18.5-7.08.22-.6a21.82 21.82 0 0 1 11.14-8.85l1-.37z"/>
      <path fill="url(#d)" d="M539.21 579.02c-7.68 14.55-15.55 29.09-22.27 43.97l-1.4-.63a161.86 161.86 0 0 1-41.98-95.28 161.95 161.95 0 0 1 25-100.45l1.55 1c32.9 42.2 47.3 98.37 38.76 151.21z" style="fill:url(#d)"/>
      <path fill="#171717" d="m515.54 622.36 1.4.63c-.65 1.45-1.29 2.9-1.92 4.36l-.94-.42a112.58 112.58 0 0 1-75.31-127.02c10.55 3.27 25.56 9.25 33.98 16.37h.27c.06 3.6.23 7.2.54 10.8 3.12 35.52 17.88 69 41.98 95.27z"/>
      <path fill="url(#e)" d="M539.84 834.17c-30-2.3-60.07-3.44-90.2-3.41.01-.03.02-.05.01-.08.54-5.73-4.23-10.56-9.12-13.62-8.75-5.47-18.91-8.15-28.36-12.29-9.45-4.13-18.77-10.37-22.65-19.93l-1.83-.4c.7-.41 1.38-.84 2-1.29 11.94-8.42 16-26.37 16.93-44.23l.2.01a22.11 22.11 0 0 1 23.05 1.86 45.9 45.9 0 0 1 69.56-22.25c3.36 39.66 18.76 78.6 40.88 114.96z" style="fill:url(#e)"/>
      <path fill="#171717" d="M277.58 282.11a9.8 9.8 0 0 0-2.83 3.86 12.2 12.2 0 0 1-2.95 4.44c-1.4 1.13-3.66 1.42-4.9.11-1.47-1.55-.63-4.08.34-6 3.63-7.18 8.03-14.21 9.29-22.16.77-4.87.32-9.82.58-14.73.26-4.9 1.35-10.03 4.63-13.7 2.93-3.26 7.28-4.94 11.6-5.65 4.31-.72 8.74-.58 13.12-.8 9.24-.5 19.29-3.25 24.37-10.98 1.27-1.94 2.57-4.39 4.88-4.56 2.24-.17 4.03 2.17 4.09 4.4.06 2.24-1.1 4.32-2.3 6.21-1.18 1.84-2.44 3.72-2.78 5.85l.53.08 14.65-8.63c.93-.65 2-1.06 3.12-1.21a2.4 2.4 0 0 1 2.55 1.72c.05.83-.22 1.65-.75 2.3a35.65 35.65 0 0 1-12.76 11.76l1.21.42c5.96-.57 11.92-1.15 17.87-1.74 2.2-.22 5.08 0 5.68 2.13.59 2.08-1.67 3.79-3.66 4.63-6.32 2.69-13.2 3.64-20.1 3.8-2.36.06-4.71.02-7.05-.07-9.2-.38-18.37-1.57-27.58-1.18-5.26.23-10.97 1.2-14.53 5.1-3.8 4.14-4.06 10.3-4.1 15.91l-.2 19.55h-.23l-8.7 11.68c-.6.9-1.35 1.7-2.22 2.35a3.17 3.17 0 0 1-3.1.35 3.1 3.1 0 0 1-1.51-2.43c-.07-1 .04-2 .32-2.95a55.48 55.48 0 0 1 3.42-9.86z"/>
      <path fill="url(#f)" d="m344.22 829.6-1.41.5c-24.5-.15-48.96.88-73.39 3.07a35.39 35.39 0 0 1 23.43-26.08 32.36 32.36 0 0 1 39.3-39.58l.84-.35c2.55 6.02 5.84 12.06 10.3 16.57l-.94.85c.73 7.8-1.16 15.6-1.95 23.4-.76 7.43-.34 15.48 3.82 21.62z" style="fill:url(#f)"/>
      <path fill="url(#g)" d="m239.07 430.13.11-.14 15.47-53.03c-9.1 3.59-17.28 9.85-21.8 18.49-5.11 9.77-4.73 22.68 2.41 31.08a24.82 24.82 0 0 0 3.81 3.6zm101.34 65.15a4.59 4.59 0 0 0-3.67-3.2 8.56 8.56 0 0 0-2.03-.18c1.86-.52 3.68-1.71 3.97-3.35.35-1.95-1.63-3.5-3.48-4.19a21.74 21.74 0 0 0-5.96-1.22l.01-.07c1.98-.18 3.9-.76 5.64-1.7 1.6-.85 2.84-2.68 2.4-4.44-.6-2.42-3.62-3.17-6.1-3.45l-25.31-2.88-.46-.34c3.13-4.22 6.1-8.56 8.94-13 .9-1.25 1.56-2.65 1.93-4.14a4.3 4.3 0 0 0-1.3-4.17c-1.95-1.5-4.78-.3-6.8 1.13a43.28 43.28 0 0 0-12.86 14.53l-.04-.01-.68 2.2c-2.18 6.87-4.38 13.8-7.95 20.06a43.86 43.86 0 0 1-3.54 5.28l.44.34a104.87 104.87 0 0 0 49.2 8.52c1.81 0 3.6-.43 5.25-1.22a4.48 4.48 0 0 0 2.4-4.5zm33.29-95.43.1 1c.68 25.81 2.7 51.98 10.75 78.14 2.01 8.05 5.03 17.11 3.02 25.16-1.01 4.03-6.04 6.04-11.07 7.05-3.58.32-7.04.64-10.46.97-7.2.68-14.25 1.36-21.75 2.05-34.59 1.77-69.96 1.98-104.74 3.39-4.68.18-9.35.39-14.01.63-2.01 0-5.03 1-7.04-1-7.97-7.98 2.8-16.93 2.78-25.57a82.92 82.92 0 0 1-20.48-14.82c-15.3-15.58-21.94-38.73-18.95-60.36 3-21.64 15.08-41.56 31.74-55.69 16.67-14.13 37.65-22.66 59.23-26.1l.45.01a7.5 7.5 0 0 1 3.1-5.82c2.77-2 6.37-2.35 9.77-2.62l3.04-.24 32.46-2.6 7.78-.63c3.68-.29 7.67-.51 10.79 1.47 5.05 3.22 3.35 4.17 3.08 10.15 20.04 1.38 41.58-1.77 56.55-15.15 14.98-13.38 25.8-30.76 35.33-48.46 9.53-17.69 18.01-36 29.33-52.6 2.49-3.65 5.6-7.52 9.99-8.1 3.39-.44 6.67 1.22 9.68 2.83l3.39 1.81 24.04 12.84c3.43 1.84 7.08 3.9 8.72 7.42 2.47 5.34-.67 11.47-3.63 16.56-12.42 21.35-23.14 43.66-35.78 64.89-12.64 21.22-27.4 41.54-46.5 57.2-17.31 14.2-38.51 24.34-60.71 26.19z" style="fill:url(#g)"/>
      <path stroke="#171717" stroke-linecap="round" stroke-linejoin="round" stroke-width="3.02" d="M321.6 322.94c-.87-5.12-1.41-11.22 2.47-14.66 2.98-2.64 7.56-2.64 10.76-5 4-2.96 4.7-8.56 5.06-13.52l3.2-44.91m-14.01 18.55v-4.27m-22.61 7.09-.7-5.69m11.82 25.42c1.45 1.04 3.62-.06 4.34-1.68.71-1.62.4-3.49.1-5.24l-4.1-22.83c-.24-1.24-.42-2.65.35-3.65a4.28 4.28 0 0 1 2.7-1.32 39.3 39.3 0 0 1 14.02-.29m-25.34 49.39a7.12 7.12 0 0 1-8.12-5.14"/>
      <path stroke="#171717" stroke-linecap="round" stroke-linejoin="round" stroke-width="3.02" d="M289.18 326.16v-.13l.42-43.05.2-19.56c.04-5.62.3-11.77 4.1-15.91 3.56-3.9 9.27-4.87 14.53-5.1 9.2-.4 18.39.8 27.59 1.18 2.33.09 4.69.13 7.04.07 6.9-.15 13.78-1.11 20.1-3.8 2-.84 4.25-2.55 3.66-4.63-.6-2.13-3.49-2.35-5.68-2.13l-17.87 1.74m-1.22-.42a35.65 35.65 0 0 0 12.76-11.76c.53-.64.8-1.47.76-2.3a2.4 2.4 0 0 0-2.56-1.72 7.1 7.1 0 0 0-3.12 1.2l-14.64 8.64c.31-.36.63-.72.93-1.09"/>
      <path stroke="#171717" stroke-linecap="round" stroke-linejoin="round" stroke-width="3.02" d="M334.69 228.6c0-.07.02-.14.03-.2.34-2.13 1.6-4 2.77-5.85 1.2-1.89 2.37-3.96 2.31-6.2-.06-2.25-1.85-4.57-4.09-4.4-2.31.17-3.6 2.61-4.88 4.55-5.08 7.73-15.13 10.49-24.37 10.97-4.38.23-8.8.1-13.12.8-4.33.72-8.67 2.4-11.6 5.66-3.28 3.67-4.38 8.79-4.63 13.7-.25 4.92.2 9.87-.58 14.73-1.26 7.95-5.66 14.98-9.29 22.16-.97 1.92-1.81 4.45-.33 6 1.24 1.31 3.5 1.02 4.89-.1a12.2 12.2 0 0 0 2.95-4.44 9.79 9.79 0 0 1 2.84-3.87l.44-.3"/>
      <path stroke="#171717" stroke-linecap="round" stroke-linejoin="round" stroke-width="3.02" d="m277.83 281.58-.25.53a55.37 55.37 0 0 0-3.42 9.86 8.42 8.42 0 0 0-.32 2.95 3.1 3.1 0 0 0 1.51 2.43 3.16 3.16 0 0 0 3.1-.35 9.31 9.31 0 0 0 2.22-2.35l8.7-11.67m-15.05 54.82a4.78 4.78 0 0 1-1.05-3.09 7.5 7.5 0 0 1 3.09-5.83c2.77-2 6.38-2.34 9.78-2.61l3.04-.25 32.45-2.6c2.6-.2 5.19-.4 7.78-.62 3.69-.3 7.67-.51 10.8 1.47 5.04 3.22 3.34 4.17 3.07 10.14m0 .01c20.05 1.38 41.58-1.76 56.56-15.14 14.97-13.39 25.8-30.77 35.32-48.46 9.53-17.7 18.02-36 29.34-52.6 2.49-3.65 5.6-7.52 9.98-8.1 3.4-.44 6.67 1.22 9.68 2.83l3.4 1.8 24.04 12.85c3.43 1.83 7.08 3.9 8.71 7.42 2.48 5.34-.66 11.47-3.62 16.55-12.42 21.36-23.14 43.67-35.78 64.9-12.64 21.22-27.4 41.53-46.5 57.2-17.31 14.18-38.52 24.34-60.72 26.18-2.3.19-4.62.29-6.94.3m-93.93-65.45c-21.58 3.43-42.57 11.97-59.23 26.1-16.65 14.13-28.74 34.04-31.74 55.68-3 21.65 3.64 44.79 18.95 60.37a82.86 82.86 0 0 0 20.48 14.82c4.77 2.51 9.68 4.77 14.7 6.75 11.3 4.56 24.27 8.15 35.43 3.23a31.03 31.03 0 0 0 11.71-9.5 44.1 44.1 0 0 0 3.54-5.3c3.58-6.25 5.78-13.18 7.95-20.05l.69-2.2c.96-3.32 1.67-6.76.84-10.07-1.45-5.9-7.25-9.67-12.99-11.7-8.1-2.84-16.8-3.4-25.24-5.06-6.7-1.3-13.53-3.5-18.84-7.64a24.66 24.66 0 0 1-3.8-3.6c-7.14-8.39-7.53-21.3-2.41-31.07 4.51-8.64 12.69-14.9 21.8-18.49 1.2-.48 2.41-.9 3.64-1.29"/>
      <path stroke="#171717" stroke-linecap="round" stroke-linejoin="round" stroke-width="3.02" d="M221.28 491.4v.27c0 8.63-10.76 17.59-2.79 25.56 2.01 2.01 5.03 1 7.04 1 4.66-.24 9.34-.45 14.01-.63 34.78-1.4 70.16-1.62 104.75-3.39 7.5-.68 14.54-1.37 21.75-2.04l10.45-.98c5.03-1 10.06-3.02 11.07-7.04 2.01-8.05-1-17.11-3.02-25.16-8.05-26.17-10.06-52.33-10.75-78.15m-119.06-24.17-.08.3-15.47 53.02m292.36-224.55c4.96-1.2 12 1.83 10 7.87-2.3 4.6-6.28 7.1-10.9 8.75-5.47 2-11.83 2.8-17.31 4.57m-5.23-28.6a11.12 11.12 0 0 0 4.68 12.83 8.23 8.23 0 0 0 7.68.5c3.85-1.4 7.56-4.57 10.5-5.99m-2.66-31.44c4.67.1 10.02 1.72 15.03 4.1 10.83 5.12 20.08 13.74 17.43 18-3.03 4.9-7.96 4.41-11.88 1.15-1-.82-1.88-1.77-2.65-2.81m-58.78 20.8.1-.42c2.27-9.26 5.52-18.6 10.98-26.48"/>
      <path stroke="#171717" stroke-linecap="round" stroke-linejoin="round" stroke-width="3.02" d="M295.34 464.6a43.28 43.28 0 0 1 12.86-14.53c2.02-1.42 4.85-2.62 6.8-1.12a4.27 4.27 0 0 1 1.3 4.16 11.98 11.98 0 0 1-1.93 4.14 218.9 218.9 0 0 1-8.95 13.01l-.17.23m-21.69 21.99a104.85 104.85 0 0 0 49.2 8.53c1.82-.01 3.61-.43 5.25-1.23a4.48 4.48 0 0 0 2.4-4.5 4.6 4.6 0 0 0-3.68-3.21 8.56 8.56 0 0 0-2.03-.17c-1.04.04-2.08.13-3.1.28a62.73 62.73 0 0 1-25.75-2.3"/>
      <path stroke="#171717" stroke-linecap="round" stroke-linejoin="round" stroke-width="3.02" d="M332.57 492.2c.73 0 1.45-.1 2.14-.3 1.86-.52 3.68-1.71 3.97-3.35.36-1.95-1.63-3.5-3.48-4.19a21.75 21.75 0 0 0-5.96-1.22c-2.62-.19-5.31-.09-7.95-.1-4.5.13-9-.51-13.29-1.92m21.25 1.95c1.98-.18 3.9-.76 5.64-1.7 1.6-.85 2.84-2.68 2.4-4.44-.6-2.42-3.61-3.17-6.1-3.45l-25.31-2.88m60.2 42.1a666.29 666.29 0 0 1 38.64 182c.53 7.74 2.87 25.92 1.9 44.22-.93 17.85-5 35.8-16.93 44.23-.62.44-1.3.88-2 1.29-9.05 5.37-24.2 8.6-33.67 5.9a24.57 24.57 0 0 1-10.74-6.61c-4.45-4.51-7.74-10.55-10.3-16.58l-.93-2.28c-20.78-52.62-14.88-113.37-31.71-167.36l-.15-.48"/>
      <path stroke="#171717" stroke-linecap="round" stroke-linejoin="round" stroke-width="3.02" d="M308.54 563.98a150.92 150.92 0 0 1-8.2 33.53 168.82 168.82 0 0 1-25.9 46.02c-18.1 22.93-41.73 41.24-67.79 54.45-17.25 8.76-35.94 15.41-55.28 16.06-19.33.66-39.42-5.24-53.25-18.75-10.52-10.27-17-25.13-15.27-39.73a38.49 38.49 0 0 1 9.63-21 33.02 33.02 0 0 1 17.3-10.33c11.99-2.62 24.24 1.89 36.45 3.13 26.74 2.7 53.61-11.19 70.14-32.38 16.52-21.2 23.5-48.75 23.25-75.62m102.73 265.21c.72 7.81-1.16 15.6-1.96 23.4-.75 7.44-.33 15.5 3.83 21.63.2.31.42.61.64.9 4.49 5.87 11.86 8.63 18.82 11.1l27.33 9.67c8.64 3.06 17.77 6.17 26.8 4.57 9.06-1.61 16.6-7.72 23.67-13.61 3.7-3.09 7.7-6.68 8.16-11.47.01-.02.02-.05.01-.07.54-5.74-4.23-10.57-9.12-13.63-8.75-5.46-18.91-8.15-28.36-12.29-9.45-4.13-18.77-10.36-22.65-19.93"/>
      <path stroke="#171717" stroke-linecap="round" stroke-linejoin="round" stroke-width="3.02" d="M91.4 634.3c-6.02-2.74-12.98-5.5-19.02-2.82-5.64 2.5-8.36 8.8-10.58 14.53l-17.97 46.51c-2.34 6.08-4.7 12.85-2.35 18.92 2.26 5.85 8.21 9.26 13.74 12.22 4.96 2.64 10.83 5.35 15.97 3.07 2.8-1.25 4.8-3.78 6.67-6.21l18.93-24.58M531.8 224.03c-7.7 43.91-3.55 89.75 9.57 132.46 12.47 40.6 33.1 80.16 31.9 122.63-1 35.74-17.09 67.83-34.05 99.9-7.68 14.55-15.55 29.08-22.28 43.97-.65 1.45-1.28 2.9-1.92 4.36-1.59 3.65-3.1 7.32-4.5 11.02a179.76 179.76 0 0 0-11.09 80.17c3.36 39.66 18.76 78.6 40.88 114.96l183.27 1.95a530.8 530.8 0 0 1-6.02-8.57c-15.68-22.79-30.66-48.5-37.89-75.15a129 129 0 0 1-4.05-22.06 107.6 107.6 0 0 1-.44-11.93c.85-41.9 15.8-65.94 33.42-103.97a895.59 895.59 0 0 1 11.88-24.21c4.96-9.78 10-19.53 14.68-29.38 2.23-4.64 4.37-9.31 6.4-14.01a226.85 226.85 0 0 0 11.3-32.03 153.12 153.12 0 0 0 4.42-24.47c1.03-11.25.87-22.58-.47-33.8a219 219 0 0 0-3.44-20.86c-4.55-21.39-11.94-42.48-19.57-62.98-14.48-38.93-30.3-78.63-30.04-120.16.07-9.93 2.14-19.86 3.8-29.82l.29-1.7c2.9-17.97 6.12-32.86 10.98-44.08 7.95-18.47 20.28-27.03 42.74-23.15"/>
      <path stroke="#171717" stroke-linecap="round" stroke-linejoin="round" stroke-width="3.02" d="M762.54 177.5c-11.08 1.7-20.14 12.2-20.16 23.43-.02 11.21 8.99 21.75 20.07 23.48.56.1 1.12.16 1.69.2 15.35 1.2 29.2-14.2 29.25-29.83.05-16.23-11.46-30.77-25.63-38.66a69.94 69.94 0 0 0-6.17-3.04c-12.68-5.51-26.81-7.46-40.66-8.81-34.15-3.37-68.53-3.76-102.86-4.15-14.04-.16-28.59-.22-41.43 5.45-13.74 6.07-23.97 18.82-30.9 32.39m162.68 44.24 55.7 2.8.42.03m-45.47-48.66 43.47 1.14m-280.02-7.65 23.2-20.84 22.44 25.04 20.72 23.12 9.89 11.03 7.11 19.58 6.15 16.9-18.5-7.08-13.7-5.24"/>
      <path stroke="#171717" stroke-linecap="round" stroke-linejoin="round" stroke-width="3.02" d="m520.37 211.15-12.14-13.24-9.23-10.08-16.48-17.97m57.31 62.51-7.82-8.53-1.18-1.29M553.75 237a21.81 21.81 0 0 1 11.15-8.85m-64.6 491.01-.87-.62a45.9 45.9 0 0 0-69.56 22.25 22.11 22.11 0 0 0-23.05-1.86l2.29-.77m-76.96 29.34a32.36 32.36 0 0 0-39.3 39.58 35.38 35.38 0 0 0-23.43 26.09c24.4-2.2 48.86-3.22 73.39-3.08m105.61.66h1.23a1165.7 1165.7 0 0 1 90.19 3.42m178.29-7.68c57.3-17.06 90.81-49.3 119.64-91.46A281.59 281.59 0 0 0 886.2 592.3l.03-.63m-.61.6c-87.24 19.71-164.52 79.68-205.28 159.28m22.34 50.12a2004.39 2004.39 0 0 1 28.16-34.26c12.75-15.2 25.73-30.2 38.94-45.01a1949.69 1949.69 0 0 1 36.53-39.91 1971.25 1971.25 0 0 1 41.28-42.67"/>
      <path stroke="#171717" stroke-linecap="round" stroke-linejoin="round" stroke-width="3.02" d="M806.27 681.8c5.72-16.32 10.54-32.78 16.26-49.11m-16.43 49.83.21-.03c14.6-2.08 27.49-3.94 42.1-6.01m-79.58 45.1 7.2-54.06m-7.23 54.88h.98l45.91-.37m-84.89 45.56.04-.18a640.63 640.63 0 0 0 10.66-65.04m-10.7 65.22c15.35-1.46 29.01-1.02 44.4-.09M538.87 578.84c8.53-52.85-5.86-109-38.77-151.22m-1.2-1.52a161.95 161.95 0 0 0-25.34 101 161.9 161.9 0 0 0 41.98 95.26"/>
      <path stroke="#171717" stroke-linecap="round" stroke-linejoin="round" stroke-width="3.02" d="m525.76 602.26-4.72-22.72-22.1-106.46m8.19 42.67-17.6-24.97m18.03 23.02c3.6-9.7 6.37-17.58 9.99-27.27m-3.72 58.81-24.16-18.46m24.28 17.11c4.06-8.51 7.29-15.57 11.34-24.08m-4.59 58.89c-7.65-4.14-13.97-7.66-20.33-13.6"/>
      <path stroke="#171717" stroke-linecap="round" stroke-linejoin="round" stroke-width="3.02" d="M521.02 579.58a100293.81 100293.81 0 0 1 9.92-17.06m-58.19-46.24c-8.42-7.12-23.44-13.1-33.98-16.37l-.03-.01"/>
      <path stroke="#171717" stroke-linecap="round" stroke-linejoin="round" stroke-width="3.02" d="m438.82 499.62-.05.29a112.58 112.58 0 0 0 75.3 127.02m161.91 102.7c19.78-41.87 39.39-83.11 57.74-124.61.14-.32.29-.63.42-.95a4.93 4.93 0 0 0 .29-.65c6.74-15.27 13.3-30.59 19.64-45.95l.4-.95v-.03a1514.73 1514.73 0 0 0 20.7-53.02l.3-.84c4.89-13.33 9.55-26.77 13.99-40.31v0l.57-1.75c3.95-12.11 7.68-24.33 11.2-36.66l.15-.53.79-2.75c3.24-11.53 6.29-23.17 9.15-34.93l.05-.23v-.03m.03.04a44.4 44.4 0 0 0 31.33-23.32m-31.91 23.41A25.37 25.37 0 0 1 842 361.32m-31.38 24.28c-1.69-7.01-3.55-14.18-7.69-20.1-4.13-5.92-13.11-11.38-20.29-10.57m26.66 31.47a26.55 26.55 0 0 1-27.27-30.7"/>
      <path stroke="#171717" stroke-linecap="round" stroke-linejoin="round" stroke-width="3.02" d="m801.2 423.9.03.01a38.8 38.8 0 0 0 49.92-19.18"/>
      <path stroke="#171717" stroke-linecap="round" stroke-linejoin="round" stroke-width="3.02" d="M799.4 423.97a36.68 36.68 0 0 1 2.77-3.34c11.92-13.13 31.06-19.46 48.43-15.67"/>
      <path stroke="#171717" stroke-linecap="round" stroke-linejoin="round" stroke-width="3.02" d="M800.8 423.93a13.1 13.1 0 0 0-.3-1.37c-3.78-16.87-19.24-32.1-36.05-36"/>
      <path stroke="#171717" stroke-linecap="round" stroke-linejoin="round" stroke-width="3.02" d="m801.48 423.35-.1.02c-.2.1-.43.17-.65.24-.44.15-.88.27-1.33.38-9.05 2.3-19.18-1.76-25.42-8.85-6.72-7.64-9.46-18.1-9.75-28.28m25.53 75.55c10.68 7.7 23.1 11.99 36.13 10.13a52.15 52.15 0 0 0 33.35-19.3m-71.72 9.16.27-.2c.4-.31.8-.61 1.22-.9.33-.26.68-.5 1.02-.74 19.67-13.7 47.62-18.16 69.11-7.86m-70.44 8.17c-4.32-9.24-15.33-17.43-24.42-22.02a46.08 46.08 0 0 0-29.75-4"/>
      <path stroke="#171717" stroke-linecap="round" stroke-linejoin="round" stroke-width="3.02" d="M734.33 435.53a57.09 57.09 0 0 0 22.48 20.34c9.65 4.98 20.59 7.43 30.98 6.33l.72-.08m-13.14 41.98a73.62 73.62 0 0 0 91.34 4.4l.1-.06m-90.9-5.65a81.74 81.74 0 0 1 90.66 5.5m-91.61-4.91a48.14 48.14 0 0 0-17.68-13.7 65.63 65.63 0 0 0-17.7-5.4c-13.26-2.06-28.16.8-39.2 8.45m73.87 11.25c-5.83 5.4-13.4 8.68-21.4 10.16a60.1 60.1 0 0 1-18.25.51 48.77 48.77 0 0 1-34.4-21.45m53.92 64.28a60.24 60.24 0 0 0 39.71 17.1 61.34 61.34 0 0 0 41.39-13.79m-80.62-4.25a70.46 70.46 0 0 1 80.62 4.25m-81.57-4.6a54.65 54.65 0 0 1-18.49 4c-17.02.8-35-5.5-45.53-18.06m64.02 14.06a45.34 45.34 0 0 0-12.1-10.02 70.97 70.97 0 0 0-18.67-7.48 54.46 54.46 0 0 0-33.62 2.54l-.22.1m45.16 62.2a47.47 47.47 0 0 0-13.73-13.97 46.57 46.57 0 0 0-11.71-5.68c-10.4-3.33-25.8-2.42-35.95 1.66m60.62 18.22c-6.5 4.43-14.57 5.85-22.46 4.98a42.9 42.9 0 0 1-10.63-2.59c-10.74-4.11-19.68-11.9-27.53-20.3m62.16 17.81a56.3 56.3 0 0 1 60.18 12l.13.13m-61.73-11.07.18.3c5.8 10.07 14.79 15.99 26.18 18.53 11.5 2.57 25.47-.91 35.1-7.73M409.4 230.67l-14.2-14.23m-.68 15.76 14.86-19.94m-47.53-18.39 10-9.9m-1.63 10.55-7.8-10.67m36.98 2.82a20.83 20.83 0 0 1 9.24-4.26m-4.05 7.77-2.2-12.06m104.24-44.72-7.81-28.42m19.91 31.24 5.69-9.23m-30.54 9.24-6.39-4.97M90.74 702.3l-15.6-14.23m7.98 23.73-15.4-14.91m7.88 25.27-14.05-15.3M422.79 810c-9.42 3.79-18.3 8.8-26.43 14.87m12.27-21.86a116.95 116.95 0 0 0-25.5 11.97m12.67-18.73a63.93 63.93 0 0 0-21.7 11.09M142.27 485.82c3.1-5.11 10.07-6.9 15.82-5.3 5.76 1.61 10.39 5.94 13.94 10.74 7.05 9.52 10.72 22.13 7.3 33.47-3.42 11.34-15.07 20.35-26.78 18.54-6.4-1-12.66-5.85-13.12-12.31-.55-7.77 8.1-14.06 15.78-12.8 7.68 1.25 13.52 8.18 15.54 15.7a28.54 28.54 0 0 1-22.53 35.52c-6.42 1.16-13 .09-19.5-.52-6.51-.6-13.37-.69-19.2 2.24-5.84 2.93-10.2 9.7-8.4 15.98m372.46-209.54c4.69-2.87 11.32-.23 14.06 4.53 2.75 4.76 2.28 10.8.36 15.94a32.4 32.4 0 0 1-30.94 20.45c-7.39-.33-14.63-3.26-21.98-2.43-12.27 1.37-21 12.62-26.17 23.82-3.23 6.98-5.72 14.68-4.49 22.26 1.24 7.59 7.17 14.85 14.84 15.37 7.67.51 15.06-8.15 11.7-15.07-1.26-2.6-4.01-4.6-6.9-4.36-2.88.26-5.4 3.27-4.59 6.05m472.87-121.86c-12.04 4.42-19.3 17.49-20.16 30.29-.86 12.8 3.57 25.36 8.93 37.02 8.82 19.18 20.3 37.07 28.69 56.45 8.39 19.37 13.6 41.03 8.98 61.63-1.61 7.16-4.51 14.25-9.72 19.41-5.2 5.17-13.03 8.1-20.09 6.11-5.09-1.43-9.54-5.66-10.31-10.9-.78-5.22 2.86-11 8.1-11.74 5.22-.76 10.6 4.66 9.12 9.74M758.22 316.7c-4.97-10.15-10.05-20.72-10.25-32.02-.2-11.3 5.94-23.56 16.81-26.65 10.29-2.93 21.3 2.91 31.83 1.11 9.75-1.66 17.21-9.49 22.94-17.55 2.88-4.05 5.55-8.36 6.78-13.17 1.22-4.81.83-10.24-2.04-14.29-2.88-4.05-8.54-6.24-13.1-4.25-4.55 1.98-6.66 8.57-3.45 12.36 2.01 2.37 5.34 3.15 8.44 3.3M187.03 725.13a98.22 98.22 0 0 0 58.57-29.24m-78.28-259.01a57.14 57.14 0 0 1 9.2-53.95m155-49.69-.46-9.47m-13.83 10.89-.95-10.42m-17.51 12.32-.48-9.95m-13.72 9.95-1.42-9m210.74-62.51.47-13.26m-39.76 16.18 9.91-2.5m-13.84 55c-.3-3.16-.6-6.32-.92-9.48m-33.07 13.18-10.43 1.32m74.36-31.62-6.64 1.38m-58.64 71.63 1.42-9.95m-40.3 2.32-7.1-1.9m-17.15 32.23 2.87-9.47M334.74 356l-7.7-4.52m-12.29 42.34 2.83-8.06m28.07 35.1-9-3.8m-5.32 37.84 3.64-7.65m25.83 16.7-6.15-3.31m-70.64-31.77 4.14-8.58m-3.67-33.39-8.46-4.85m-16.59 34.53 2.31-6.17m23.24-50.67 3.3-8.05m-42.08 12.33-8.44-5.34m-18.48 30.52a15.14 15.14 0 0 0-3.88 7.9m3.36 36-6.6-3.35m-24.79 4.79 4.71-9.96m39.86 27.06c.05-3 .89-5.94 2.44-8.51m-7.62 36.97-8.06-5.69m44-11.91 3.33-7.1m-5.23 36.59-7.12-5.66m103.22 12.14 3.65-7.18m88.82 110.01a35.44 35.44 0 0 0-9.95-8.53m1.21 9.8 6.76-10.33m-33.54-8.47a24.7 24.7 0 0 1 4.74-9m.94 8.05-7.57-6.63"/>
      <path stroke="url(#h)" stroke-linecap="round" stroke-linejoin="round" stroke-width="3.02" d="M265.01 190.07c-9.83-16.65-27.57-29.2-46.9-29.85-19.31-.66-39.1 12.28-43.62 31.08-3.68 15.32 2.55 31.14 9.25 45.4 6.7 14.26 14.2 29.1 13.16 44.82a43.13 43.13 0 0 1-52.48 39.26c-12.57-2.82-24.7-14.22-22.27-26.87 1.52-7.85 8.39-13.9 16.04-16.22 5.36-1.62 11.48-1.58 16.26 1.36 4.77 2.94 7.65 9.2 5.63 14.43-2.02 5.23-9.56 7.76-13.74 4.02" style="stroke:url(#h)"/>
      <path fill="#171717" d="M471.18 209.93c-8.5 13.89-15.16 28.83-23.76 42.67-8.52 13.7-16.82 27.38-26.61 40.25-9.01 11.84-18.57 24.23-31.2 32.42a50.8 50.8 0 0 1-20.43 8.07c-7.49 1.04-13.28-.88-20.38-2.68-9.5-2.4-14.51 10.25-6.54 15.5 14.45 9.53 36.2 4.94 50.46-2.5 15.39-8.01 27.07-21.45 37.5-34.97a284.88 284.88 0 0 0 28.96-45.16c8.08-16.05 15.68-32.97 18.68-50.78.67-3.93-4.4-6.56-6.68-2.82zM277.53 330.66c-5.17 7.96-14.64 6.9-22.84 9.07a102.54 102.54 0 0 0-26.68 11.3c-16.27 9.8-30.77 22.54-39.15 39.98-17.43 36.23-7.58 84.62 30.11 103.66a73.47 73.47 0 0 0 30.84 8.09c10.67.33 23.63-1.52 31.82-8.82 3.24-2.89 3.66-8.36 1.54-11.98-2.37-4.07-6.78-5.24-11.17-4.55-3.66.58-7.01 2.15-10.63 3a41.42 41.42 0 0 1-10.87 1.02c-7-.15-13.88-1.76-20.22-4.7a52.5 52.5 0 0 1-28.35-34.2c-8.97-32.7 10.33-67.1 39.37-82.22 4.14-2.17 8.42-4.05 12.81-5.63 4.32-1.54 9.01-2.35 13.15-4.35 7.39-3.56 16.33-7.43 18.32-16.27a4.43 4.43 0 0 0-8.05-3.4z" opacity=".1"/>
      <path fill="#171717" d="M255.93 376.27c-2.14 3.08-2.9 6.87-4.02 10.41-1.25 4-2.41 8-3.48 12.04l-2.96 11.2c-1 3.8-1.6 8.44-3.22 12-5.47 11.94 13.9 16.71 14.7 3.99.24-3.66 1.7-7.57 2.54-11.13l2.91-12.2c.9-3.77 1.72-7.52 2.45-11.33.74-3.9 2.1-8.15 1.65-12.12-.63-5.6-7.21-7.7-10.57-2.86zM227.5 515.56c1.38-2 1.18-4.13 1.59-6.4.07-.43.17-.85.28-1.27.48-1.3.2-1.17-.82.38.06.26 3.55-3.76 3.64-3.89 2.77-3.65.1-9.14-3.6-10.7-3.91-1.65-9.26.4-10.2 4.89a16.12 16.12 0 0 0-.16 5.36c-.03-.2-.04 1.29-.07 1.57-.1.72-.18 1.43-.22 2.15-.17 3.17.03 6.52 2.49 8.82a4.57 4.57 0 0 0 7.06-.9zm246.48 195.11a52.43 52.43 0 0 0-24.5 7.87c-7.4 4.81-15.24 11.75-20.09 19.15-6.36 9.71 10.85 18.36 15.31 6.45 1.36-3.63 2.27-7.17 4.47-10.43a52.42 52.42 0 0 1 6.9-7.85 63.41 63.41 0 0 1 18.6-12.66 1.37 1.37 0 0 0-.7-2.53zm-153.55 55.38c-3.3-.33-7.13 2.17-9.96 3.75-3.68 2.05-6.7 5.4-9.62 8.36-6.9 7-9.9 14.86-11.18 24.5-.68 5.15 4.9 9.6 9.6 9.6 5.03 0 9.81-4.39 9.6-9.6-.31-6.2.56-12.4 2.55-18.27 1.1-3.03 2.96-5.32 4.78-7.9 1.8-2.55 4.75-4.52 6.06-7.26a2.15 2.15 0 0 0-1.83-3.18zm177.84-336.52-.6-.02a3.82 3.82 0 0 0-3.36 1.93c-3.54 7.2-6.49 14.68-10.22 21.77-3.66 6.96-5.17 14.44-6.47 22.16a192.7 192.7 0 0 0 6.76 94.39 221.27 221.27 0 0 0 8.78 22.45c3.46 7.67 7.17 15.85 12.6 22.31 6.61 7.87 21.82-.56 17.79-10.35-3.05-7.4-7.54-14.17-10.95-21.44a171.06 171.06 0 0 1-7.4-18.71 205.82 205.82 0 0 1-9.14-42.02 217.14 217.14 0 0 1-.5-44.2c.65-7 2.14-13.9 1.98-20.94-.16-7.66 1.83-15.1 3.88-22.42a3.86 3.86 0 0 0-1-3.79 3.3 3.3 0 0 0-2.15-1.12zm384.4 163.48c-4.05-.45-7.67 1-11.55 1.99-4.43 1.13-8.99 1.24-13.41 2.6a256.04 256.04 0 0 0-24.03 9.02 266.79 266.79 0 0 0-45.9 24.72 326.97 326.97 0 0 0-75.39 70.04 331.85 331.85 0 0 0-17.37 24.36 453.6 453.6 0 0 0-7.56 12.27c-2.75 4.6-6.1 9.35-7.06 14.7-1.66 9.36 9.37 17.67 16.93 9.85 5.9-6.1 8.96-15.16 13.31-22.42a304.64 304.64 0 0 1 13.72-20.91 300.04 300.04 0 0 1 31.76-37.24c23.48-23.49 50.7-42.53 79.85-58.32a306.22 306.22 0 0 1 24.45-11.87c4.2-1.8 7.9-4.17 11.93-6.2 4.45-2.22 9.07-2.78 13.07-5.94 2.97-2.35.15-6.31-2.75-6.64z" opacity=".1"/>
    </g>
  </g>
  <defs>
    <linearGradient id="c" x1="782.93" x2="782.93" y1="592.27" y2="826.88" gradientUnits="userSpaceOnUse">
      <stop stop-color="#42E670"/>
      <stop offset="1" stop-color="#07AA50"/>
    </linearGradient>
    <linearGradient id="d" x1="507.14" x2="507.14" y1="426.64" y2="622.99" gradientUnits="userSpaceOnUse">
      <stop stop-color="#42E670"/>
      <stop offset="1" stop-color="#07AA50"/>
    </linearGradient>
    <linearGradient id="e" x1="464" x2="464" y1="710.26" y2="834.17" gradientUnits="userSpaceOnUse">
      <stop stop-color="#42E670"/>
      <stop offset="1" stop-color="#07AA50"/>
    </linearGradient>
    <linearGradient id="f" x1="306.82" x2="306.82" y1="766.5" y2="833.17" gradientUnits="userSpaceOnUse">
      <stop stop-color="#42E670"/>
      <stop offset="1" stop-color="#07AA50"/>
    </linearGradient>
    <linearGradient id="g" x1="351.18" x2="351.18" y1="210.04" y2="518.49" gradientUnits="userSpaceOnUse">
      <stop stop-color="#42E670"/>
      <stop offset="1" stop-color="#07AA50"/>
    </linearGradient>
    <linearGradient id="h" x1="193.43" x2="193.43" y1="160.19" y2="321.82" gradientUnits="userSpaceOnUse">
      <stop stop-color="#42E670"/>
      <stop offset="1" stop-color="#07AA50"/>
    </linearGradient>
    <clipPath id="a">
      <path fill="#fff" d="M0 0h960v960H0Z"/>
    </clipPath>
    <clipPath id="b">
      <path fill="#fff" d="M38 103h885v755H38Z"/>
    </clipPath>
  </defs>
</svg>
