<svg xmlns="http://www.w3.org/2000/svg" width="789.85" height="883.8" fill="none">
  <g clip-path="url(#a)" transform="translate(-85.23 -38.5)">
    <g clip-path="url(#b)">
      <path fill="#171717" d="m683.95 606.04.03.26-3.17 314.1-447.6-5.95V905l432.7 3.48 6.88-301.7v-.02c3.73-.14 7.45-.37 11.16-.72zm-8.66-107.24 1.12-50.75.45.01 8.72-.07-.41 40.6 1.27.6a54.52 54.52 0 0 1-10.98 9.85zM519.85 160.98c-10.61.08-21.32-5.24-27.18-14.15a30.87 30.87 0 0 1-40.78 27.56 34.43 34.43 0 0 1-8.12 54.04 25.15 25.15 0 0 1 10.78 24.07c-.29 1.9-.8 3.77-1.55 5.55a25.21 25.21 0 0 1-15.7 14.4c10.38 10.86 13.63 27.73 8.84 41.9a37.15 37.15 0 0 1-3.8 8.05c-9.6 15.25-30.08 22.65-47.22 17.05 2.97 14.71 2.2 30.58-4.75 43.9-6.94 13.31-20.67 23.52-35.67 23.8-15.01.3-30.1-10.9-32-25.8-8.54 12.62-25.93 18.44-40.35 13.5a32.55 32.55 0 0 1-8.86-4.7c-9.5-7-15.5-18.88-14.72-30.72.99-15.2 13.06-29.01 27.99-32.03-10.65-4.66-16.34-17.44-14.75-28.95 1.58-11.51 9.32-21.54 18.9-28.13 9.6-6.59 20.9-10.16 32.21-12.87a48.43 48.43 0 0 1 30.94-82.15c-14.55-5.95-22.18-23.89-18.48-39.17 3.7-15.3 17.05-27.17 32.17-31.52 15.13-4.34 31.6-1.87 46.05 4.34-1.5-20.79 16.02-41.08 36.8-42.63 20.8-1.56 41.13 15.92 42.73 36.7 4.4-9.27 15.65-13.97 25.83-12.77 10.19 1.2 19.24 7.37 26.2 14.9 11.18 12.14 17.93 29.3 14.26 45.39-3.67 16.08-19.7 29.44-36 26.97l-1.8.46a71.9 71.9 0 0 1-1.97-17z"/>
      <path fill="url(#c)" d="m686.43 489.19-1.26-.6.4-40.6-8.72.07-.45-.01.23-10.72-439.85 22.36-3.1 90.87-.33.05a4.3 4.3 0 0 0-2.85-1.13c-2.9.02-4.74 3.07-5.88 5.74a138.4 138.4 0 0 0-8.43 27.03 142.64 142.64 0 0 0-1.18 50.48c.65 4.1 1.05 9.52 3.01 13.7l-.9.1c-17.04-5.46-27.53-19.3-35.57-35.3-19.54-38.9-15.04-86.91 4.34-125.9 19.38-39 52.04-69.96 87.57-95.15l.03-.04a32.36 32.36 0 0 0 8.86 4.7c14.41 4.94 31.8-.87 40.35-13.49 1.89 14.89 17 26.1 32 25.8 14.99-.29 28.75-10.5 35.67-23.8 6.93-13.32 7.72-29.19 4.75-43.9 17.14 5.6 37.62-1.8 47.22-17.05a37.2 37.2 0 0 0 3.8-8.06l.4.14 12.82-4.76 1.43-.26.63 3.54c.46 2.46.96 4.9 1.5 7.33 4.6 20.56 13.25 41.13 29.4 54.64 4.4 3.69 10.5 6.89 15.65 4.36 4.32-2.14 5.97-7.4 6.73-12.15a75.47 75.47 0 0 0-5.51-42.09c-2.92-6.58-6.82-12.85-8.9-19.69a32.3 32.3 0 0 1-1.25-5.7h.03c40.4 3.5 80.87 7.02 120.8 14.13 23.86 4.25 47.68 9.85 69.72 19.95 22.04 10.11 42.3 25.03 55.84 45.13 17.15 25.46 22.24 56.92 26.47 87.31 2.47 17.67 4.79 35.5 3.65 53.31-1.14 17.8-5.93 35.77-16.52 50.13-13.85 18.8-36.4 29.69-59.33 34.16-5.21 1-10.47 1.74-15.75 2.21-3.7.36-7.43.59-11.17.73-14.26.53-28.66-.26-42.93-1.04-5.63-.3-11.65-.76-16.09-4.25-4.36-3.43-6.08-8.82-6.77-14.47-.3-2.56-.46-5.14-.49-7.72-.25-13.79-.22-27.58.08-41.37.06-2.6.15-5.26.46-7.88.55-5.04 1.85-9.92 5.06-13.74 8.7-10.37 24.89-7.18 38.37-8.25a52.02 52.02 0 0 0 24.99-9 54.45 54.45 0 0 0 10.97-9.85z" style="fill:url(#c)"/>
      <path fill="#171717" d="m460.8 309.47-1.44.25-12.82 4.76-.4-.14c4.79-14.16 1.54-31.03-8.84-41.9a25.2 25.2 0 0 0 15.7-14.4c3.49 16.99 4.85 34.35 7.8 51.43zm-48.12 349.21 62.36-60.42s-34.13 48.09-62.36 87.97zm0 0v27.55l-23.93 33.84h-22.4a3984.75 3984.75 0 0 1-26.3-57.88l36.64 31.36zm-46.32 61.39h22.4a1161.88 1161.88 0 0 0-12.97 18.55c-.29.6-4.25-7.46-9.43-18.55z"/>
      <path fill="url(#d)" d="M372.35 530.72a1.67 1.67 0 0 1 1.38 2.07c-.08.3-.24.58-.47.8l-13.93 13.46a1.65 1.65 0 0 0-.5 1.49l3.2 19.1a1.69 1.69 0 0 1-2.46 1.77l-17.11-9.1a1.65 1.65 0 0 0-1.56-.01l-17.2 8.94a1.7 1.7 0 0 1-1.77-.14 1.68 1.68 0 0 1-.66-1.64l3.37-19.1a1.68 1.68 0 0 0-.48-1.49l-13.8-13.57a1.69 1.69 0 0 1 .94-2.88l19.2-2.7a1.69 1.69 0 0 0 1.26-.9l8.65-17.33a1.68 1.68 0 0 1 3.02.01l8.5 17.41a1.71 1.71 0 0 0 1.26.93z" style="fill:url(#d)"/>
      <path stroke="#171717" stroke-linecap="round" stroke-linejoin="round" stroke-width="3.8" d="M480.5 194.96a8.97 8.97 0 0 0-11.67-.72m39.44 2.71a6.67 6.67 0 0 1 9.97-.89"/>
      <path stroke="#171717" stroke-linecap="round" stroke-linejoin="round" stroke-width="3.8" d="M493.11 230.41c2.75 1.4 6.36-.13 7.96-2.76 1.6-2.64 1.53-6.03.64-9a53.05 53.05 0 0 0-3.9-8.4 60.67 60.67 0 0 1-6.4-30.48l22.95-1.73m-47.69 68.97a13 13 0 0 0 19.38 7.06"/>
      <path stroke="#171717" stroke-linecap="round" stroke-linejoin="round" stroke-width="3.8" d="M519.85 160.68v.3a71.94 71.94 0 0 0 1.98 17c1.72 7.75 4.29 15.4 6.42 23.08 3.68 13.3 6 27.92.55 40.6-4.33 10.1-12.98 17.6-19.58 26.39-6.81 9.09-11.57 20.44-10.18 31.65a32.22 32.22 0 0 0 1.25 5.7c2.08 6.83 5.98 13.1 8.9 19.69a75.45 75.45 0 0 1 5.5 42.09c-.76 4.75-2.4 10-6.72 12.14-5.16 2.54-11.25-.67-15.66-4.36-16.14-13.5-24.8-34.08-29.4-54.63a202.87 202.87 0 0 1-2.12-10.87c-2.94-17.07-4.3-34.44-7.8-51.42v-.09"/>
      <path stroke="#171717" stroke-linecap="round" stroke-linejoin="round" stroke-width="3.8" d="M528.35 159.7a30.3 30.3 0 0 1-8.5 1.28c-10.62.08-21.32-5.24-27.18-14.15a2.8 2.8 0 0 1-.27-.4"/>
      <path stroke="#171717" stroke-linecap="round" stroke-linejoin="round" stroke-width="3.8" d="M492.62 142.64a31.03 31.03 0 0 1-13.5 28.1 30.87 30.87 0 0 1-27.23 3.65 34.44 34.44 0 0 1-8.12 54.04 25.15 25.15 0 0 1 10.78 24.07c-.29 1.9-.8 3.77-1.55 5.55a25.21 25.21 0 0 1-15.7 14.4c10.38 10.86 13.63 27.73 8.84 41.9a37.15 37.15 0 0 1-3.8 8.05c-9.6 15.25-30.08 22.65-47.22 17.05 2.97 14.71 2.2 30.58-4.75 43.9-6.94 13.31-20.67 23.51-35.67 23.8-15 .3-30.1-10.91-32-25.8-8.54 12.62-25.93 18.43-40.34 13.5a32.55 32.55 0 0 1-8.87-4.7c-9.5-7-15.5-18.88-14.72-30.72 1-15.21 13.06-29.02 28-32.03-10.66-4.66-16.34-17.44-14.76-28.95 1.58-11.52 9.32-21.55 18.9-28.13 9.6-6.6 20.9-10.16 32.21-12.87a48.43 48.43 0 0 1 30.94-82.15c-14.55-5.95-22.18-23.89-18.48-39.17 3.7-15.3 17.05-27.17 32.17-31.52 15.13-4.34 31.6-1.87 46.05 4.34-1.49-20.79 16.03-41.08 36.8-42.63 20.8-1.56 41.13 15.92 42.73 36.7 4.4-9.27 15.65-13.97 25.84-12.77 10.18 1.2 19.23 7.37 26.19 14.9 11.18 12.14 17.93 29.3 14.26 45.39-3.67 16.08-19.7 29.44-36 26.97M462 312.89a29.93 29.93 0 0 0 37.17-7.16m-52.63 8.75 12.82-4.76m-185.9 80.46c-35.53 25.2-68.2 56.15-87.57 95.14-19.38 39-23.89 87.01-4.34 125.92 8.04 16 18.53 29.83 35.56 35.3M499.06 299.7c40.4 3.5 80.87 7.02 120.8 14.13 23.87 4.25 47.69 9.85 69.73 19.95 22.03 10.1 42.3 25.03 55.84 45.13 17.15 25.45 22.24 56.92 26.47 87.31 2.47 17.67 4.78 35.5 3.65 53.31-1.14 17.8-5.93 35.77-16.52 50.13-13.86 18.8-36.4 29.69-59.34 34.16-5.2 1-10.46 1.74-15.74 2.21-3.71.36-7.43.59-11.17.73-14.26.53-28.66-.26-42.93-1.04-5.63-.3-11.66-.76-16.09-4.25-4.36-3.43-6.08-8.82-6.78-14.47-.3-2.56-.45-5.14-.48-7.72-.25-13.79-.23-27.58.08-41.37.06-2.6.15-5.26.45-7.88.56-5.04 1.85-9.92 5.07-13.74 8.69-10.37 24.89-7.18 38.36-8.25a52.01 52.01 0 0 0 25-9 54.52 54.52 0 0 0 10.97-9.85 50.9 50.9 0 0 0 9.35-16.33M230.1 655.33l-8.52 249.58 11.63.09 432.7 3.48 6.87-301.71"/>
      <path stroke="#171717" stroke-linecap="round" stroke-linejoin="round" stroke-width="3.8" d="m675.29 498.8 1.11-50.75.23-10.72-439.85 22.36-3.1 90.87m451.49-61.96.4-40.61-8.71.07M233.2 905.5v8.95l447.61 5.95 3.17-314.1m-128.93-39.72c-6.18-.33-11.86-.3-23.1.86-3 .3-6.1.69-8.68 2.26-2.57 1.57-4.47 4.67-3.67 7.57 1.2 4.4 6.96 5.3 11.53 5.3 31.2.14 43.4 2.78 74.58 2.9m-49.42-18.81-1.1-.06m3.21.19c-.43-.03-.87-.07-1.3-.08m2.9.18-1.47-.1m16.74.84-1.07-.03c-4.85-.15-8.65-.36-11.9-.57"/>
      <path stroke="#171717" stroke-linecap="round" stroke-linejoin="round" stroke-width="3.8" d="M562.29 567.03c3.42.17 7.28.38 11.9.57m-11.9-.57-1.18-.08-.37-.01a.3.3 0 0 0-.1-.02l-.64-.03m-1.47-.09c.48.04.96.06 1.47.09m-1.47-.09a.42.42 0 0 0-.13-.01"/>
      <path stroke="#171717" stroke-linecap="round" stroke-linejoin="round" stroke-width="3.8" d="M557.11 566.71c.42.04.85.06 1.3.08m-1.3-.08-.82-.05m-1.11-.06c.37.02.73.05 1.1.06m-1.1-.06-.13-.01M542.37 549a300.9 300.9 0 0 0-18.35 2.18c-3.87.56-8.83 2.48-8.39 6.36.42 3.58 5.07 7.17 8.66 7.3 14.58.59 21.74 1.16 30.76 1.74m3.09-18.28c-5.7.1-10.26.25-15.6.7m15.81-.7c5.1-.2 10.42-.33 15.86-.26-6.51.14-11.51.2-15.86.27zm0 0a.6.6 0 0 1-.21 0"/>
      <path stroke="#171717" stroke-linecap="round" stroke-linejoin="round" stroke-width="3.8" d="M542.53 549c4.85-.17 10.1-.47 15.6-.7m-15.6.7a.76.76 0 0 1-.16 0m64.92-18.6-.25-.37a104.37 104.37 0 0 0-33.54-31.2c-3.22-1.9-8.25-3.12-9.9.21-1.18 2.37.5 5.1 2.13 7.18l17.4 22.56c-23.95-1.57-29.1-2.71-52.7 1.62-3.81.7-7.73 1.53-10.92 3.71-3.19 2.18-7.46 7.1-4.76 9.88 4.86 4.98 14.88 5.44 27.62 5.01m-279.42 78.74a169.78 169.78 0 0 1 18.58-2.43c3.2-.24 6.66-.34 9.38 1.37 4.71 2.96 4.92 10.26 1.74 14.83-3.18 4.57-8.6 6.98-13.87 8.76a110.59 110.59 0 0 1-39.17 5.68c-3.16-.1-6.3-.48-9.38-1.15-3.66-.87-7.18-2.3-9.66-4.69a12.43 12.43 0 0 1-2.55-3.69c-1.96-4.18-2.37-9.6-3.01-13.69a142.66 142.66 0 0 1 1.18-50.48 138.4 138.4 0 0 1 8.43-27.03c1.14-2.67 2.98-5.72 5.88-5.74a4.3 4.3 0 0 1 2.85 1.13c.8.7 1.41 1.6 1.77 2.61.57 2.04.73 4.17.46 6.27-.78 11.82-1.54 23.63-2.3 35.45a133.17 133.17 0 0 1 44.23-6.8c4.2.06 9.51 1.22 10.34 5.34.47 2.4-.97 4.86-2.94 6.29a19.62 19.62 0 0 1-6.78 2.67l-33.34 8.46"/>
      <path stroke="#171717" stroke-linecap="round" stroke-linejoin="round" stroke-width="3.8" d="M262.95 627.74c-5.1 1.28-10.2 2.47-15.34 3.58a172.5 172.5 0 0 1 15.34-3.58zm-20.43-16.27 2.26-.57a207.13 207.13 0 0 1 34.6-5.38c2.86-.2 5.82-.33 8.54.6 2.73.94 5.17 3.2 5.51 6.04.3 2.67-1.26 5.25-3.4 6.87a22.8 22.8 0 0 1-7.3 3.23 449.57 449.57 0 0 1-19.8 5.48m96.64-58.34-17.11-9.09a1.65 1.65 0 0 0-1.56 0l-17.2 8.93a1.7 1.7 0 0 1-1.77-.14 1.68 1.68 0 0 1-.66-1.64l3.37-19.09a1.68 1.68 0 0 0-.48-1.5l-13.8-13.57a1.69 1.69 0 0 1 .94-2.88l19.2-2.7a1.69 1.69 0 0 0 1.26-.9l8.65-17.33a1.68 1.68 0 0 1 3.02.01l8.5 17.41a1.71 1.71 0 0 0 1.26.93l19.16 2.88a1.67 1.67 0 0 1 1.38 2.07c-.08.3-.24.58-.47.8l-13.93 13.46a1.65 1.65 0 0 0-.5 1.49l3.2 19.1a1.68 1.68 0 0 1-1.55 1.96 1.7 1.7 0 0 1-.91-.2zm6.79 150.67h-31.13a4.8 4.8 0 0 1-4.8-4.8v-77.12a4.8 4.8 0 0 1 4.8-4.8h72.65a4.8 4.8 0 0 1 4.8 4.8v20.53m0 27.55v29.03a4.8 4.8 0 0 1-4.8 4.81h-19.13M407.88 848h-72.65a4.8 4.8 0 0 1-4.8-4.82v-77.1a4.8 4.8 0 0 1 4.8-4.8h72.64a4.8 4.8 0 0 1 4.8 4.8v77.1a4.8 4.8 0 0 1-4.8 4.81zm92.08-183.06.22.52c3.52 8.12 14.67 11.82 22.35 7.4 3.87-2.22 6.61-5.95 10.19-8.64 3.57-2.68 8.86-4.11 12.33-1.29 3.42 2.79 3.38 8.39 6.77 11.25 3.41 2.89 8.99 1.5 12.05-1.76 3.07-3.27 4.28-7.82 5.38-12.17 9.07 12.13 27.39 16.16 40.71 8.96m-110-4.27a37.2 37.2 0 0 0 10.06-20.87c-8.28 2.54-13.16 12.82-10.06 20.87z"/>
      <path stroke="#171717" stroke-linecap="round" stroke-linejoin="round" stroke-width="3.8" d="M460.18 673.62a37.23 37.23 0 0 0 32.15-2.59 35.26 35.26 0 0 0 7.63-6.09m93.71 114.01c.18 1.39.6 2.73 1.22 3.98 1.23 2.32 3.84 4.12 6.41 3.6 2.57-.51 4.23-4.09 2.44-6.01m-10.07-1.57a13.1 13.1 0 0 0-.29-3.7c.04 1.24.13 2.48.3 3.7v0zm-15.64 20.99c3.4-2.85 6.96-5.5 9.92-8.78 3.06-3.39 5.46-7.75 5.72-12.2m-15.64 20.98c.93 12.66-.03 25.38-2.85 37.76-1.16 5.07-4.52 11.3-9.6 10.2-4.1-.92-5.5-6.06-5.53-10.26a48.28 48.28 0 0 1 17.98-37.7zm-74.49 1.86c.12.03.26.05.39.06 5.34.7 10.75-1.64 14.74-5.25 8.65 3.3 17.6-3.51 24.36-9.84-1.07 5.52 4.15 10.89 9.76 11.32 5.61.43 10.94-3.04 14.29-7.58 3.34-4.53 5.05-10.03 6.7-15.4a126.82 126.82 0 0 1 4.25 24.83m-74.49 1.86a14.27 14.27 0 0 0 6.28-7.76c1.6-5.32-1.72-12.06-7.23-12.72-5.35-.65-10.16 4.94-9.57 10.3.57 5.22 5.34 9.36 10.52 10.18zm-52.82 1.46c10.12.18 20.23.66 30.33 1.46 5.54.43 11.2.95 16.58-.4a20.22 20.22 0 0 0 5.9-2.51m-31.99-254.73c1.03-.71 2.06-1.42 3.07-2.14 4.72-3.4 9.3-7.5 11.25-12.98m-14.32 15.12a146.45 146.45 0 0 1 2.54 16.54c.47 4.85.33 10.56-3.55 13.51-4.63 3.52-12.07.13-13.97-5.37-1.9-5.5.52-11.7 4.37-16.06 3.03-3.43 6.83-6.03 10.61-8.62zM417.5 532.9l.14.8c1.46 7.35 5.71 15.38 13.13 16.43 4.32.62 8.7-1.43 11.88-4.42 3.2-2.99 5.4-6.85 7.58-10.64.82 3.78 6.14 4.92 9.5 2.98 3.35-1.94 5.11-5.69 6.7-9.22a149.5 149.5 0 0 1 5.11 18.25M417.5 532.9a52.07 52.07 0 0 0 2.14-27 52.87 52.87 0 0 0-2.14 27z"/>
      <path stroke="#171717" stroke-linecap="round" stroke-linejoin="round" stroke-width="3.8" d="M407.75 549.61a51.14 51.14 0 0 0 9.75-16.72m27.29-217.95a164.98 164.98 0 0 0 17.44 50.52c6.42 11.89 14.8 23.41 26.87 29.48 12.07 6.08 28.49 5.12 37.21-5.2 7.35-8.69 7.58-21.27 6.28-32.58a169.41 169.41 0 0 0-15.73-54.23M630.2 509.06a384 384 0 0 0 4.37 96.11m-402.91-66.12c-29 20.11-43.92 58.62-36.02 93.03m-82.17-51.1c-20.51 56.22-16.4 120.94 11.08 174.1 5.43 10.53 13.37 21.7 25.15 22.93 8.1.85 16.14-3.6 21.13-10.02 5-6.43 7.3-14.58 8.23-22.67.82-7.1-.37-15.95-6.98-18.66-6.03-2.48-12.77 1.95-16.65 7.2-8.2 11.13-9.44 26.02-7.73 39.75 1.72 13.73 6.05 27.02 7.85 40.73 1.8 13.72.76 28.6-7.25 39.88-8 11.28-24.54 17.2-36.35 10m761.23-327.57c-1.83-10.62-13.89-17.43-24.55-15.8-10.65 1.63-19.37 9.92-24.22 19.56-4.84 9.63-6.4 20.54-7.6 31.25-3.34 29.7-3.73 62.2 13.65 86.52 4.05 5.68 9.81 11.1 16.8 11.13 6.33.01 11.93-4.61 15-10.15 5.9-10.64 3.6-25.17-5.3-33.46s-23.55-9.56-33.74-2.92c-13.02 8.48-16.48 26.05-15.96 41.57.52 15.53 3.78 31.41-.45 46.36-5.96 21.06-27.98 36.33-49.8 34.54m-3.49-478.67 6.23 24.67a259.08 259.08 0 0 1 35.58-35.86m-598 33.04a33.76 33.76 0 0 1 20.5 16.7c5.96-21.67 14-42.72 23.98-62.86m-30.87 4.57-9.83-12.52m-2.78 11.69 15.36-15.93m389.54-83.42 22.05-16.5m-5.94 21.13-10.58-21.53m-98.93-75.19 16.1-8.94m-6.47 12.77-8.69-18M640.6 81.8l13.22 13.85a334.36 334.36 0 0 1 26.44-36.44M100.73 773.69a43.72 43.72 0 0 1-11.2-13.46l1.53 1.63m-3.93 14.04 11.77-15.1m756.4-59.01 14.35-10.68m-3.48 13.54-9.84-12.52m-4.79-119.24 10.9-10.55"/>
      <path stroke="#171717" stroke-linecap="round" stroke-linejoin="round" stroke-width="3.8" d="M860.75 572.36a27.48 27.48 0 0 0-8.96-8.85M606.9 367.3c-1.2-2.38-17.88-22.05-17.88-22.05l-5.36 33.98zm97.75 41.13c-1.79 1.79-20.86 8.94-20.86 8.94l2.98-32.19zm24.44 135.29-16.1 16.1-8.94-24.44zm10.72-79.86c-.6 1.79-13.1 12.51-13.1 12.51l-7.16-20.26zm-274.16-48.28c-.6-1.79-13.11-11.92-13.11-11.92l-2.39 23.84zm-39.94-45.29-18.47 20.26 2.38-33.97 16.1 13.7zM323.2 427.5c-2.38-2.98-18.48-17.88-18.48-17.88l-2.38 28.6zm-105.5 57.81c-1.78-.6-19.07-.6-19.07-.6l7.75 16.1 11.33-15.5zm361.19-71.51-8.94 15.49-13.7-17.88 22.64 2.38z"/>
      <path fill="#171717" d="m592.09 56.9 11.48 6.98a.84.84 0 0 1 .4.88.85.85 0 0 1-.7.67l-13.26 2.17a.84.84 0 0 0-.69.64l-3.08 13.08a.85.85 0 0 1-1.58.2l-6.15-11.95a.85.85 0 0 0-.83-.46l-13.39 1.1a.84.84 0 0 1-.67-1.43l9.46-9.54a.85.85 0 0 0 .18-.93l-5.2-12.39a.84.84 0 0 1 .21-.94.84.84 0 0 1 .96-.14l12 6.04a.85.85 0 0 0 .93-.11L592.35 42a.84.84 0 0 1 1.3.27c.08.15.1.33.08.5l-2.03 13.28a.84.84 0 0 0 .39.85z"/>
      <path fill="#171717" d="M458.78 180.3c5.26 9.45 6.98 21.39-.11 30.18-3.67 4.56-8 8.15-10.13 13.78-2.53 6.74-1.25 13.67-.37 20.6l2.6 20.42c.9 7.2 2.8 14.11 4.2 21.23 2.64 13.29 4.28 27.44 11.29 39.26a.43.43 0 0 0 .42.2.43.43 0 0 0 .35-.3c3.93-13.54 1.79-28.04 1.05-41.92-.4-7.52-.45-14.87-1.4-22.36L463.96 240c-.84-6.55-2.43-12.6.9-18.65 2.78-5.04 5-9.45 6.21-15.14 2.24-10.44-.3-21.69-8.54-28.8-2-1.73-5.12.43-3.75 2.9zm-183.7 210.51c-9.56 2.15-17.61 8.65-25.16 14.68a308.19 308.19 0 0 0-22.17 19.42 227.17 227.17 0 0 0-36.94 46.49c-20.23 33.95-29.68 74.93-20.16 113.8 4.95 20.2 14.86 40.26 30.63 54.19 9.56 8.44 21.62-4.13 13.8-13.8-20.8-25.67-30.2-57.9-25.63-90.78 4.93-35.48 23.73-67.23 47.56-93.3a306.87 306.87 0 0 1 22.16-21.88c7.53-6.72 16.2-12.97 21.31-21.8 2.16-3.73-1.4-7.91-5.4-7.01zm338.24 147.86c1.36-4.74 3.1-8.29 8.09-10.24 4.77-1.87 10.82-2.18 15.9-2.36 13.27-.49 25.63-.52 37.94-6.16a58.81 58.81 0 0 0 24.98-21.5 45.98 45.98 0 0 0 6.27-15.13c1.02-5.3 1.97-11.88-1.67-16.23a5.32 5.32 0 0 0-6.42-.83c-3.97 2.56-5.78 8.43-8.1 12.49a69.25 69.25 0 0 1-8.5 11.72c-6.72 7.54-14.93 12.9-24.92 14.88-12.34 2.45-26.93-.82-37.8 7.14-7.18 5.25-15.18 16.87-11.55 26.23 1.03 2.64 4.91 3.04 5.79 0h-.01z" opacity=".1"/>
    </g>
  </g>
  <defs>
    <linearGradient id="c" x1="472.39" x2="472.39" y1="299.7" y2="646.54" gradientUnits="userSpaceOnUse">
      <stop stop-color="#42E670"/>
      <stop offset="1" stop-color="#07AA50"/>
    </linearGradient>
    <linearGradient id="d" x1="341.81" x2="341.81" y1="508.55" y2="569.61" gradientUnits="userSpaceOnUse">
      <stop stop-color="#42E670"/>
      <stop offset="1" stop-color="#07AA50"/>
    </linearGradient>
    <clipPath id="a">
      <path fill="#fff" d="M0 0h960v960H0Z"/>
    </clipPath>
    <clipPath id="b">
      <path fill="#fff" d="M85 38h791v885H85Z"/>
    </clipPath>
  </defs>
</svg>
