<svg xmlns="http://www.w3.org/2000/svg" width="881.51" height="869.75" fill="none">
  <g clip-path="url(#a)" transform="translate(-39.56 -45.3)">
    <path fill="#171717" fill-rule="evenodd" d="m291 439.58 46.94 27.13-3.6-36.23-25.03-252.91 53.37-16.5s4.38 40.27 1.46 49.97c-1.37 4.55-6.24 10.9-11.09 17.22-5.5 7.17-10.97 14.3-11.23 18.7-.22 6.46-.06 12.94.48 19.4a277.08 277.08 0 0 0 50.56 2.02l-.1-2.03-8.25-105.28s-.97-11.66-6.3-16.5-16.01-12.62-25.72-15.04c-9.7-2.42-48.02-6.3-60.64 2.43-12.62 8.73-19.17 16.5-21.35 40.27-.89 9.7-1.7 53.58-2.34 102.16-.94 70.58-1.54 151.09-1.54 151.09l24.39 14.1zm59.35-308.68a1.5 1.5 0 0 0-.54 2.95 36.45 36.45 0 0 1 29.23 42.82 1.5 1.5 0 1 0 2.95.57 39.47 39.47 0 0 0-31.64-46.34z" clip-rule="evenodd"/>
    <path fill="#171717" d="M505.33 691.17h203.84L607.66 451.08l-102.33 240.1ZM357.62 883.22c9.76-1.86 18.4-7.65 25.55-15.78l30.09 5.36-1.79-60.64 129.3-294.2c24.99-56.4 52.38-116.02 74.13-174.03h25.79l194.97 457.62c7.24 16.11 16.11 37.87 25.78 54.79 8.86 15.3 17.72 25.77 32.23 27.39l27.4 2.41-.02 24.18c-35.44-.82-70.89-2.42-107.15-2.42-28.2 0-63.65 1.6-107.15 2.42v-24.18l37.86-2.41c16.93-.8 33.03-6.45 33.03-16.12 0-11.27-8.86-32.22-16.92-51.56l-37.05-92.65H491.64l-22.56 53.97c-7.25 16.93-28.2 70.9-28.2 83.8 0 16.92 13.7 20.13 38.67 22.56l29.81 2.41v24.18c-38.67-.82-69.29-2.43-92.65-2.43-31.42 0-62.03 1.61-92.65 2.43v-24.18l29.81-2.41c1.26-.1 2.5-.27 3.75-.5z"/>
    <path fill="#171717" d="m411.47 812.16 1.79 60.64-30.09-5.36a85.47 85.47 0 0 0 14.2-23.19z"/>
    <path fill="url(#b)" d="m400.07 424.3 11.4 387.86-14.1 32.1a85.5 85.5 0 0 1-14.2 23.18l-25.41-4.53-2.35-.42-23.05-378.31-27.2 387.77-12.14-3.18-39.98-10.49-6.4-72.05 8.16-340.09c16.11-.74 36.2-6.56 36.2-6.56l46.94 27.13-3.59-36.25s36.9.37 63.14-6.44z" style="fill:url(#b)"/>
    <path fill="#171717" d="M221.07 499.75a1419140.3 1419140.3 0 0 1 31.96 358.53h.01c2.06 23.24 3.3 37.23 3.4 38.53a10.46 10.46 0 0 1-4 9.34 15.27 15.27 0 0 1-5.47 2.79s-25.23 4.85-35.41 4.61a11.86 11.86 0 0 1-10.27-6.26 17.13 17.13 0 0 1-2-5.02l-2.9-23.04-41.57-328.63-.07-1.13a39.95 39.95 0 0 0 32.12-21.84 41.46 41.46 0 0 0 3.97-21.07l1.91-.1c7.84.48 15.68-.92 22.86-4.1 1.84-.8 3.61-1.77 5.28-2.9l.19.3z"/>
    <path stroke="#171717" stroke-linecap="round" stroke-linejoin="round" stroke-width="3" d="M217.02 454.34c-2.28-25.68-4.53-50.8-6.68-74.78l-7.04-78.95-10.99-122.87c-.27-3-1.2-5.9-2.72-8.5l-40.63-69a4.97 4.97 0 0 0-8.95.8l-29.7 80.77a18.93 18.93 0 0 0-1.02 8.95l20.15 163.58 13.58 110.15.01.09m110 393.7a1387271.6 1387271.6 0 0 0-31.96-358.53"/>
    <path stroke="#171717" stroke-linecap="round" stroke-linejoin="round" stroke-width="3" d="m154.81 550.6 41.57 328.63 2.92 23.03c.4 1.77 1.07 3.47 1.99 5.02a11.86 11.86 0 0 0 10.27 6.27c10.18.24 35.41-4.62 35.41-4.62 2-.54 3.85-1.5 5.47-2.78a10.46 10.46 0 0 0 4-9.34c-.1-1.3-1.33-15.29-3.4-38.53M608.5 137.63c-3.91-2.7-9.27-5.01-16.58-6.4a45.8 45.8 0 0 0-19.9.2 32.28 32.28 0 0 0-20.85 15.8s-22.56 63.32-58.95 86.6c-27.06 17.34-55.92 31.97-99.36 34.55-16.87.86-33.8.18-50.55-2.03-.55-6.46-.71-12.94-.49-19.4.49-8.25 19.4-26.2 22.32-35.91 2.92-9.71-1.46-49.97-1.46-49.97l-53.36 16.5 25.03 252.9 3.58 36.25-46.92-27.14-24.39-14.1s.6-80.5 1.54-151.09c.65-48.57 1.45-92.46 2.34-102.15 2.19-23.78 8.73-31.54 21.35-40.27 12.62-8.74 50.94-4.86 60.64-2.44 9.7 2.42 20.38 10.2 25.71 15.04 5.34 4.85 6.31 16.5 6.31 16.5l8.25 105.29"/>
    <path stroke="#171717" stroke-linecap="round" stroke-linejoin="round" stroke-width="3" d="M334.35 430.46s36.9.37 63.13-6.44c11.55-3 21.04-7.4 24.4-13.83 8.51-16.29-29.12-52.64-29.12-52.64s115.47 3.32 170.05-60.93c54.58-64.25 56.04-137.74 56.04-137.74s2.1-12.63-10.36-21.24M322.42 268.05l19.89-1.7M210.34 379.56l23.3-8.18s-11.1 59.2 3.87 71.56c3.41 2.82 9.94 3.55 17.29 3.2 16.11-.74 36.2-6.56 36.2-6.56m92.17 427.86-25.41-4.53-2.35-.42-23.05-378.31-27.2 387.77-12.14-3.18-39.98-10.49v0M400.07 424.3l11.4 387.86"/>
    <path stroke="#171717" stroke-linecap="round" stroke-linejoin="round" stroke-width="3" d="M254.8 445.71v.43l-8.17 340.09m325.39-654.8v-.01c-.56-.69-24.68-31.53-20.13-35.12 4.61-3.64 29.12 19.88 29.12 19.88s-3.89-68.89 1.94-69.37c5.82-.48 9.7 66.47 9.7 66.47s2.18-65.02 8-64.29c5.83.74 1.7 65.5 1.7 65.5S614 55.8 621.03 57.73c6.99 1.93-12.27 78.84-12.54 79.9v0m-289.47 83.11s2.73 11.1 16.37 10.55m2.73-22.39 6.73-1.45-4.36-9.27m4.36-13.28a8.79 8.79 0 0 1 10.38 0m-38.21 2.36s4-4 10.18-.91m10.92-14.37s9.64-9.28 20.38-1.1M176.9 477.3a49.4 49.4 0 0 0-33.03-12.92"/>
    <path stroke="#171717" stroke-linecap="round" stroke-linejoin="round" stroke-width="3" d="M129.44 354.35c-16.35 14.99-30.3 32.02-38.45 52.5-15.3 38.5-6.37 84.5 19.05 117.17 9.97 12.8 23.58 24.38 39.76 25.48 1.65.11 3.3.1 4.95-.02a39.97 39.97 0 0 0 32.12-21.85 41.47 41.47 0 0 0 3.97-21.07c-.54-8-3.23-15.69-7.8-22.27a43.2 43.2 0 0 0-6.14-6.99m90.65-202.92c-22.93 4.31-44.12 14.18-64.25 26.23v0"/>
    <path stroke="#171717" stroke-linecap="round" stroke-linejoin="round" stroke-width="3" d="M176.9 477.3v-.01c.24-6.7 1.86-27.57 4.75-33.6.66-1.38 1.59-2.89 3.1-3.15a3.45 3.45 0 0 1 3.31 1.8c.63 1.18 1 2.47 1.13 3.8l2.9 18.59a149.65 149.65 0 0 1 19.75-8.7 16.7 16.7 0 0 1 5.22-1.21h.04a6.04 6.04 0 0 1 4.82 2 5.94 5.94 0 0 1 .37 6.1 10.3 10.3 0 0 1-2.06 2.83c-.7.69-1.42 1.33-2.2 1.92-5.58 4.31-12.11 7.16-18.58 9.97l.6-.1"/>
    <path stroke="#171717" stroke-linecap="round" stroke-linejoin="round" stroke-width="3" d="M220.2 465.77h.03a6.62 6.62 0 0 1 6.87 2.98 9.27 9.27 0 0 1 .75 7.75 13.35 13.35 0 0 1-2.11 3.98c-.7.93-1.49 1.8-2.34 2.58-6.14 5.74-14.66 7.96-22.8 10l1.4-.27"/>
    <path stroke="#171717" stroke-linecap="round" stroke-linejoin="round" stroke-width="3" d="M226.03 480.7c3.07 3.53 2.83 9.1.42 13.1a18.52 18.52 0 0 1-5.56 5.66 33.1 33.1 0 0 1-5.28 2.9 49.02 49.02 0 0 1-22.86 4.1m7.65 401.22c-7.88.18-15.75.37-23.63.54-2.97.06-6.04.12-8.8-.9-2.75-1.03-5.13-3.43-5.05-6.2.1-3.37 3.47-5.73 6.5-7.56 7.65-4.64 19.3-9.7 26.96-14.33l.08-.04m96.42-9.86c1.68 5.66 3.38 10.39 2.95 16.24a19.9 19.9 0 0 1-9.2 15.6c-6.5 4.01-15.22 4.43-23.33 4.66-3.62.12-7.24.22-10.86.32m105.18-42.42c-2.8 2.64-5.13 11.62 0 19.48m13.8-405.56L359.77 490l22.56 8.61zM287 519.11l16 18.92-24.73 11.55zm105.52 91.69-21.47 22.57 26.56 15.18-5.09-37.74zm-93.15 31.3-31.81 19.65 31.81 21.1zm-15.91 85.88h19.55l-7.12 29.1zm-15.9 45.84 10.7 26.93h-31.63zm124.96-16.73v47.3l-29.1-18.16zM382.33 563.5 374 578.8l-16.39-37.12 24.72 21.84ZM105.94 335.81l-12.14-12.6m-.44 15.38 13.17-17.9M73.99 482.74a88.84 88.84 0 0 1-1.96-62.3M41.06 522.2c19.13 7.07 34.97 21.49 46.27 38.47 11.3 16.97 18.35 36.44 23.47 56.18 2.8 10.79 5.06 22.12 2.69 33.01-2.38 10.9-10.5 21.24-21.52 22.93-11.02 1.7-23.16-8.52-20.78-19.4 1.68-7.74 9.88-12.94 17.79-12.78 7.9.15 15.22 4.77 20.3 10.84 10.44 12.44 12.18 31.46 4.17 45.59-6.51 11.48-18.1 18.94-27.83 27.86-9.72 8.92-18.3 21.51-15.59 34.43a23.87 23.87 0 0 0 21.81 18.4A23.87 23.87 0 0 0 114.96 761c1.7-5.93.67-13-3.94-17.1-4.61-4.11-13.01-3.68-16.09 1.67m-39.72.6-5.46-17.47m-6.55 13.1a20.78 20.78 0 0 0 13.1-6.55"/>
    <path stroke="#171717" stroke-linecap="round" stroke-linejoin="round" stroke-width="3" d="M78.14 585.7c-1.1-4.76-3.8-9-7.65-12m-3.05 10.07 15.23-13.15m532.79-385.71c-9.17-9.22-18.46-18.54-29.64-25.18-11.19-6.63-24.65-10.38-37.33-7.5m126.08 83.55c-12.6 58.51 2.61 122.39 40.23 168.93 8.35 10.33 17.9 19.98 29.62 26.24 11.7 6.26 25.83 8.86 38.47 4.77 12.63-4.08 23.14-15.65 23.8-28.91.68-13.26-10.23-26.68-23.51-26.8-12.63-.12-23.08 10.78-27.22 22.71-8.61 24.83 4 52.6 22.38 71.39 18.38 18.78 42.03 31.4 62.64 47.7 34.46 27.24 61.31 68.9 57.27 112.64-1.13 12.26-4.76 24.49-11.96 34.47-7.2 9.99-18.2 17.53-30.42 19.04-12.22 1.51-25.4-3.64-32.15-13.94-6.74-10.3-5.72-25.45 3.33-33.8 9.04-8.34 25.4-7.49 32.55 2.53 2.78 3.9 4.08 9.1 2.47 13.6-1.62 4.51-6.6 7.86-11.26 6.77M764.4 366.29 762.94 351m7.28 7.28-15.28-1.45m77.86 264.65 8.17-8.33m-1.89 9.82-6.93-9.12m-300.57-209a83.04 83.04 0 0 1-8.34 66.95c-4.42 7.24-10.35 14.06-18.3 17-7.97 2.96-18.21.92-22.62-6.34-4.41-7.25.4-18.89 8.9-19.1 4.65-.1 8.98 3.04 11.17 7.14 2.2 4.1 2.52 9 1.89 13.6a36.48 36.48 0 0 1-17.15 25.96c-6.35 3.8-14 5.74-19 11.19-4.67 5.07-6.15 12.44-5.51 19.3.64 6.86 3.17 13.39 5.67 19.8m21.16-143.17-4.39-11.64m-3.67 7.5 10.9-5.14m96.07-190.8.21-13.82m-31.58-21.84 10.19-3.64m-3.65 79.5c-4.21-.16-8.42.49-12.4 1.92m-47.23 19.74 2.91-16.73m-34.97 64.03-10.18-5.1m-44.98-25.4a20 20 0 0 1 9.8-10.06m-17.3 60.27-5.87-7.24M358.3 301.5l7.06-8.19m-3.41 53.33-6.55-7.28m5.14 49.53 8.72-8.75m23.99 22.54-5.82-6.56m-139.73 31.3 7.28-7.28m-4.37-37.12-6.55-3.63m2.18-32.75 6.55-10.92m-24.79-.6a12.08 12.08 0 0 1-6.45-5.25m22.51-26.89 5.82-8.74M126.17 423.78l-6.55-5.82m-22.56 42.21a22.84 22.84 0 0 1 5.82-10.2m30.56 42.22a19.16 19.16 0 0 1-8.73-5.82m30.57 37.83 5.82-7.27m7.22 28.36a69.96 69.96 0 0 0-18.35-79.06"/>
    <path fill="#171717" fill-rule="evenodd" d="m205.12 320.99-1.82-20.38-7.67-85.72-3.32-37.14c-.27-3-1.2-5.9-2.72-8.5l-40.63-69a4.97 4.97 0 0 0-8.95.8l-29.7 80.76a18.95 18.95 0 0 0-1.02 8.96l20.15 163.58 13.58 110.14.84-.1a49.4 49.4 0 0 1 33.04 12.9c.23-6.69 1.86-27.56 4.75-33.6.66-1.38 1.59-2.88 3.1-3.14a3.44 3.44 0 0 1 3.3 1.8 9.85 9.85 0 0 1 1.13 3.8l2.9 18.58a149.4 149.4 0 0 1 19.76-8.69c1.66-.68 3.42-1.1 5.21-1.22l-.03-.48a203952.78 203952.78 0 0 0-6.68-74.78L205.12 321Zm-22.33-147.34a1.5 1.5 0 0 0-.21-3 474.08 474.08 0 0 0-66.17 9.43 1.5 1.5 0 1 0 .63 2.93 470.99 470.99 0 0 1 65.75-9.36z" clip-rule="evenodd"/>
    <path fill="#171717" d="M253.22 808.98c5.5-22.82 7.49-46.08 9.89-69.4a1817.6 1817.6 0 0 0 5.97-69.56c2.97-46.33 4.73-92.75 4.84-139.19.06-26.3-.44-52.58-1.49-78.86-.51-12.81-20.5-12.87-19.97 0 3.83 92.32.01 184.74-6.83 276.83-1.95 26.17-4.92 52.34-4.2 78.58.18 6.59 10.15 8.37 11.78 1.6zm76.98-322.87c-1.07 12.88-.12 25.85.3 38.75.41 12.92 1.24 25.84 1.94 38.75a11197.94 11197.94 0 0 0 14.55 228.33c2.14 29.08 4.76 58.16 6.45 87.27.3 5.36 4.34 9.94 9.93 9.94 4.94 0 10.5-4.57 9.94-9.94-5.43-51.42-8.46-103.18-12.04-154.75a13307.3 13307.3 0 0 1-9.72-152.9c-.84-14.57-1.49-29.15-2.45-43.71-.97-14.59-1.47-29.35-4.08-43.74-1.62-8.89-14.17-5.93-14.83 2zM264.35 273.8c-16.15 2.27-31.75 9.61-46.16 16.95A382.93 382.93 0 0 0 178 314.9c-25.46 17.2-49.05 37.35-67.16 62.34-17.74 24.51-29.17 55.9-28.51 86.36.62 28.76 11.93 60.1 37.24 76.04a51.81 51.81 0 0 0 42.86 5.9c11.66-3.67 33.9-17.5 24.76-32.13a6.68 6.68 0 0 0-7.36-3c-2.93.78-5.24 1.5-7.39 3.88-1.75 1.95-2.74 4.06-4.55 5.88a26.93 26.93 0 0 1-11.92 6.75c-9.45 2.65-18.75.75-27.08-4.66-19.79-12.88-27.06-39.63-26.9-61.92.4-54.85 38.9-97.95 81.45-127.85a435.63 435.63 0 0 1 39.51-24.76c14.62-8.09 29.73-14.09 45.15-20.38 8.45-3.44 5.25-14.82-3.74-13.56v.01z" opacity=".1"/>
    <path fill="#171717" d="M239.18 372.33c-6.28.19-8.43 7.05-10.37 11.98a54.48 54.48 0 0 0-3.3 19.52 72.6 72.6 0 0 0 2.68 19.12c1.66 6.13 3.88 14.64 9.08 18.67 3.15 2.43 6.63 3.72 10.55 2 3.32-1.46 6.19-4.97 5.94-8.83-.4-6.1-3.94-11.5-5.69-17.32a75.73 75.73 0 0 1-2.96-16.13c-.41-5.47-.51-11.01-.44-16.5.06-3.99 1-12.7-5.5-12.5v-.01z" opacity=".1"/>
  </g>
  <defs>
    <linearGradient id="b" x1="329.05" x2="329.05" y1="424.02" y2="871.95" gradientUnits="userSpaceOnUse">
      <stop stop-color="#42E670"/>
      <stop offset="1" stop-color="#07AA50"/>
    </linearGradient>
    <clipPath id="a">
      <path fill="#fff" d="M39 45h883v871H39Z"/>
    </clipPath>
  </defs>
</svg>
