<svg xmlns="http://www.w3.org/2000/svg" width="884.07" height="830.47" fill="none">
  <g clip-path="url(#a)" transform="translate(-38.35 -64.85)">
    <g clip-path="url(#b)">
      <path fill="url(#c)" fill-rule="evenodd" d="M746 519.3c3.07-17.82-6.74-36-20.89-47.26-14.15-11.25-32.01-16.68-49.67-20.52l-1.61.42c5.87 22.6 7.37 46.4.4 67.36v.73l71.77-.13Zm-50.18-50.84a2.03 2.03 0 0 0-.51 4.03c17.77 2.28 33.39 16.76 37 34.31a2.03 2.03 0 0 0 3.98-.82c-3.96-19.25-20.97-35.02-40.47-37.52z" clip-rule="evenodd" style="fill:url(#c)"/>
      <path fill="url(#d)" d="m274.02 520.73-28.74 317.6-.9-.08c-30.86.19-62.15.34-92.3-5.64a214.17 214.17 0 0 1-15.94-3.79c-35-9.8-68.45-31.08-84.54-63.66-15.2-30.81-13.09-67.48-4.62-100.77 18.03-70.86 64.2-134.16 126.2-172.95a286.17 286.17 0 0 1 81.28-34.58 289.68 289.68 0 0 1 129.43-3.32l1.84-.18c-1.17-5.69-2.35-11.47-1.9-17.25.45-5.8 2.75-11.69 7.35-15.23 4.85-3.74 11.34-4.3 17.46-4.66a911.26 911.26 0 0 1 112.6.4c8.98.6 19.08 1.92 24.48 9.1 4.75 6.37 4.12 15.17 2.66 22.97-4.72 25.18-18.54 51.96-35.03 71.57v.05z" style="fill:url(#d)"/>
      <path stroke="#171717" stroke-linecap="round" stroke-linejoin="round" stroke-width="4.06" d="M489.48 291.58a9.83 9.83 0 0 0 12.9-14.78m-24.28 55.03a11.85 11.85 0 0 1-17.73-10.95m-69.52-67.09c8.42-.22 16.8-1.17 25.05-2.83 42.28-8.42 80.98-34.84 103.38-71.78.12-.17.21-.34.32-.51"/>
      <path stroke="#171717" stroke-linecap="round" stroke-linejoin="round" stroke-width="4.06" d="M515.88 174.88a59.99 59.99 0 0 0 3.4 4.3 66.88 66.88 0 0 0 32.7 20.4 64.26 64.26 0 0 0 28.6 1.42m-135.02 41.58a10.34 10.34 0 0 0 20.59-1.27m41.37-1.87c-1.13 6.06 4.17 12.48 10.34 12.54 6.17.05 11.55-6.3 10.52-12.38m-27.21-19.06a23.1 23.1 0 0 1 33.42 1.75M415.86 250.8l.04.16a505.2 505.2 0 0 1 13.53 161.5"/>
      <path stroke="#171717" stroke-linecap="round" stroke-linejoin="round" stroke-width="4.06" d="M495.74 414.99c-.55-19.45-.3-41.15 13.08-55.27 7.08-7.46 16.98-11.74 24.2-19.07 10.35-10.52 13.84-25.86 16.1-40.44 5.43-35 6.7-65.44 2.87-100.63l-.01-.12M383.89 453.54a289.65 289.65 0 0 0-129.43 3.31 286.2 286.2 0 0 0-81.29 34.58c-61.99 38.8-108.16 102.1-126.2 172.96-8.46 33.28-10.57 69.95 4.63 100.76 16.08 32.59 49.54 53.86 84.53 63.67a208.4 208.4 0 0 0 15.94 3.78c30.16 5.98 61.44 5.83 92.3 5.64"/>
      <path stroke="#171717" stroke-linecap="round" stroke-linejoin="round" stroke-width="4.06" d="M162.35 662.22c34.56-5.15 68.66 3.86 95.76 25.9m127.62-234.76c-1.17-5.7-2.34-11.47-1.9-17.26.45-5.79 2.75-11.69 7.35-15.23 4.85-3.73 11.34-4.3 17.46-4.65a911.26 911.26 0 0 1 112.6.4c8.98.6 19.09 1.91 24.48 9.1 4.75 6.36 4.13 15.17 2.66 22.97-4.72 25.17-18.54 51.95-35.03 71.56"/>
      <path stroke="#171717" stroke-linecap="round" stroke-linejoin="round" stroke-width="4.06" d="M254.45 456.77c46.46-42.85 76.06-100.7 82.73-163.54 4.64-43.77-1.43-89.8 15.38-130.47 19.45-47.01 68.13-78.27 118.62-84.5 31.47-3.9 64.38 1.08 92.14 16.41 27.75 15.34 49.92 41.4 58.22 72.01 13.31 49.02-9.13 101.38-1.27 151.56 5.4 34.47 24.57 64.92 39.72 96.35a206.8 206.8 0 0 1 13.83 37.35c5.87 22.6 7.37 46.4.4 67.35m1.21-67.77c17.67 3.84 35.53 9.27 49.68 20.52 14.15 11.25 23.96 29.44 20.89 47.26"/>
      <path stroke="#171717" stroke-linecap="round" stroke-linejoin="round" stroke-width="3.85" d="m151.81 833.89 88.48 59.51 3.36-37.25 1.63-17.82 28.74-317.6 239.33-.42 160.88-.28 71.76-.14 71.28-.12-37 319.34-4.05 34.88L240.3 893.4"/>
      <path stroke="#171717" stroke-linecap="round" stroke-linejoin="round" stroke-width="4.06" d="m243.79 856.17 535.3-17.2M658.05 132.34l71.99-65.46m-91.81 44.26 8.6-35.8m24.43 85.1 31.44 2.37"/>
      <path stroke="url(#e)" stroke-linecap="round" stroke-linejoin="round" stroke-width="4.06" d="M180.16 395.9c-5.55-11.4-11.22-23.29-11.39-35.97-.16-12.68 6.86-26.41 19.11-29.72 8.3-2.25 17.4.56 25.61-2.01 9.69-3.04 15.65-12.75 19.14-22.28 2.35-6.43 4-13.44 2.4-20.09s-7.26-12.72-14.1-12.82c-9.56-.15-15.88 12.15-12.03 20.9 3.85 8.75 14.6 12.88 24.06 11.55 16.17-2.27 27.95-17.31 32.42-33 4.48-15.7 3.37-32.35 4-48.66.62-16.3 3.47-33.53 14.15-45.87" style="stroke:url(#e)"/>
      <path stroke="url(#f)" stroke-linecap="round" stroke-linejoin="round" stroke-width="4.06" d="M907.53 599.38c-20.68 4.34-34.69 23.45-44.38 42.22-5.64 10.93-10.62 22.71-10.33 35 .29 12.3 7.13 25.17 18.8 29.07 11.65 3.9 26.74-5.07 26.06-17.34-.85-15.4-24.57-20.18-35.5-9.3-10.92 10.87-10.67 28.83-5.92 43.5 4.74 14.67 13.15 28.1 16.45 43.16 3.3 15.05-.33 33.45-13.92 40.73-13.6 7.27-34.56-7.08-28.12-21.08" style="stroke:url(#f)"/>
      <path stroke="#171717" stroke-linecap="round" stroke-linejoin="round" stroke-width="4.06" d="m729.69 395.9 17.17-17.2m-2.84 17.61-14.01-17.43"/>
      <path stroke="url(#g)" stroke-linecap="round" stroke-linejoin="round" stroke-width="4.06" d="M702.7 294.46a74.27 74.27 0 0 1 15.76-22.92" style="stroke:url(#g)"/>
      <path stroke="url(#h)" stroke-linecap="round" stroke-linejoin="round" stroke-width="4.06" d="m718.5 291.54-22.68-16.09" style="stroke:url(#h)"/>
      <path stroke="#171717" stroke-linecap="round" stroke-linejoin="round" stroke-width="4.06" d="m755.7 328.83 17.18-11.46m-4.3 12.89-10.02-17.19M529.32 448.19l.76-18.15m-25.81 19.08-.9-17.2m-25.03 17.21v-16.24m-29.6 17.19v-17.19M423.54 452l-.76-18.14M398.97 452l-1.85-16.24M696.98 861.7l52.52-1.83m-84.03 2.66 11.46-.95m22.09-356 8.56-9.58m-1.05 10.41a22.8 22.8 0 0 0-9.55-9.55M493.72 492l-9.53-10.52m-2.96 10.64 12.4-11.46m-83.94 30.46-9.81-13.18M395.13 511l14.36-12.36m-89.84-23.54-9.33-9.76m-2.7 9.78 12.36-10.56m-68.87 77.18a45 45 0 0 0-13.37-12.42m-1.06 13.29 11.65-16.09m-91.67 33.3-10.25-12.62m-1.28 10.77a26.57 26.57 0 0 0 13.37-12.42m80.37 87.7-9.54-11.46m-4 13.51 14.32-14.32m-111.7 30.55-8.6-11.46m-4.94 11.29 11.47-11.45m98.95 86.73L217 715.33m-4.15 12.5 13.33-12.45m-68.64 87-10.5-14.32m-3.8 14.34 16.22-15.28m-57.29-55.39-15.28-12.41m-.21 13.18 11.5-13.33m172.26-563.25-7.7-19.07m-5.9 14.4 17.19-11.46m-22.75 71.45-10.54-12.37m-1.09 14.43 13.37-17.19m653.05 473.56 14.32-10.02m-4.5 14.4-7.11-17.2"/>
      <path fill="#171717" fill-rule="evenodd" d="M415.9 250.96c42.28-8.42 80.98-34.84 103.38-71.78a66.86 66.86 0 0 0 32.72 20.4c3.83 35.2 2.55 65.64-2.87 100.63-2.26 14.59-5.75 29.92-16.1 40.45-3.52 3.57-7.69 6.42-11.85 9.27-4.37 2.99-8.73 5.97-12.35 9.8-13.38 14.12-13.63 35.81-13.08 55.26l-.01.33c8.51.32 17.01.75 25.5 1.31 8.99.6 19.09 1.9 24.49 9.1 4.75 6.36 4.12 15.17 2.66 22.97-4.72 25.17-18.54 51.95-35.03 71.56v.05l160.87-.28v-.73c6.97-20.96 5.47-44.76-.4-67.36a206.8 206.8 0 0 0-13.84-37.34 909.15 909.15 0 0 0-10.5-20.85c-12.48-24.3-25-48.69-29.21-75.5-3.61-23.06-.83-46.57 1.95-70 3.26-27.59 6.52-55.06-.68-81.56-8.3-30.61-30.47-56.67-58.23-72.01-27.75-15.34-60.66-20.32-92.13-16.42-50.5 6.23-99.17 37.5-118.62 84.5-11.46 27.72-12.29 57.91-13.12 88.19-.4 14.16-.78 28.34-2.26 42.29-6.67 62.83-36.28 120.68-82.74 163.53l.02.08a289.65 289.65 0 0 1 129.42-3.31l1.84-.18-.02-.09c-1.15-5.66-2.33-11.4-1.87-17.16.46-5.8 2.74-11.7 7.34-15.24 4.86-3.73 11.35-4.3 17.46-4.65a808.4 808.4 0 0 1 20.89-.96l-.1-2.8a505.23 505.23 0 0 0-13.53-161.5Zm83.68-164.14a2.03 2.03 0 1 0-.8 3.98c36.87 7.33 74.68 22.03 94.7 52.98 20.1 31.07 17.92 71.26 13.77 108.93l-.14 1.27-.14 1.28c-4.06 36.73-8.44 76.36 8.2 110.13a2.03 2.03 0 0 0 3.63-1.79c-16.1-32.7-11.84-71.28-7.74-108.42l.22-2.03c4.14-37.52 6.59-79.13-14.4-111.58-20.95-32.38-60.18-47.37-97.3-54.75Z" clip-rule="evenodd"/>
      <path fill="#171717" d="M417.04 250.83c-2.65 12.16 3.31 26.14 5.95 37.92a348.16 348.16 0 0 1 6.48 38.35c2.87 26.34 2.35 52.2.51 78.55-.6 8.75 14.17 10.95 15.5 2.1 4.05-26.76 3.99-54.71 1.08-81.58a383.66 383.66 0 0 0-6.45-40.2c-2.6-11.93-5.09-28.83-14.77-37.33-2.64-2.31-7.46-1.7-8.3 2.2zm-2.67 164.52c-6.78-5.55-19.65.7-24.46 6.44a29.56 29.56 0 0 0-3.2 33.28c5.82 10.3 24.02 3.35 19.63-8.27-1.88-4.97-3.21-9.85-.98-14.92a21.83 21.83 0 0 1 4.18-6.95c1.82-1.81 4.19-2.9 5.38-5.27.67-1.3.7-3.29-.55-4.31zm-40.77 39.5c-11.34-3.23-23.25-4.28-35-4.96-11.7-.67-23.66-1.64-35.37-1.07-23.87 1.18-47.88 4.69-70.53 12.44-44.37 15.18-84.38 42.24-115.93 76.84-30.88 33.88-54.45 74.93-66.31 119.32-6.55 24.48-9.9 49.72-5.92 74.92 3.75 23.72 13.91 46.3 31.3 63.12 42.65 41.27 104.3 41.4 159.78 39.31 14.07-.53 14.14-22.45 0-21.93-45.86 1.66-96.23 3.57-135.2-24.79-16.54-12.03-27.16-28.71-32.5-48.32-5.96-21.89-4.62-44.13.06-66.1 17.87-83.91 78.71-157.47 157.8-190.72 22.87-9.62 47.2-17.59 71.7-21.64 12.5-2.07 25.14-4.08 37.84-4.05 12.62.04 25.1 1.5 37.68 2.14 2.63.14 3.06-3.81.6-4.51z" opacity=".1"/>
    </g>
  </g>
  <defs>
    <linearGradient id="c" x1="710.2" x2="710.2" y1="451.52" y2="520.03" gradientUnits="userSpaceOnUse">
      <stop stop-color="#42E670"/>
      <stop offset="1" stop-color="#07AA50"/>
    </linearGradient>
    <linearGradient id="d" x1="294.92" x2="294.92" y1="414.69" y2="838.33" gradientUnits="userSpaceOnUse">
      <stop stop-color="#42E670"/>
      <stop offset="1" stop-color="#07AA50"/>
    </linearGradient>
    <linearGradient id="e" x1="226.15" x2="226.15" y1="177.93" y2="395.9" gradientUnits="userSpaceOnUse">
      <stop stop-color="#42E670"/>
      <stop offset="1" stop-color="#07AA50"/>
    </linearGradient>
    <linearGradient id="f" x1="868.5" x2="868.5" y1="599.38" y2="808.37" gradientUnits="userSpaceOnUse">
      <stop stop-color="#42E670"/>
      <stop offset="1" stop-color="#07AA50"/>
    </linearGradient>
    <linearGradient id="g" x1="710.58" x2="710.58" y1="271.54" y2="294.46" gradientUnits="userSpaceOnUse">
      <stop stop-color="#42E670"/>
      <stop offset="1" stop-color="#07AA50"/>
    </linearGradient>
    <linearGradient id="h" x1="707.16" x2="707.16" y1="275.45" y2="291.54" gradientUnits="userSpaceOnUse">
      <stop stop-color="#42E670"/>
      <stop offset="1" stop-color="#07AA50"/>
    </linearGradient>
    <clipPath id="a">
      <path fill="#fff" d="M0 0h960v960H0Z"/>
    </clipPath>
    <clipPath id="b">
      <path fill="#fff" d="M38 64h885v832H38Z"/>
    </clipPath>
  </defs>
</svg>
