<svg xmlns="http://www.w3.org/2000/svg" width="770.46" height="883.01" fill="none">
  <path fill="#171717" d="M606.3 331.92c12.18 1.2 24.6 2.4 36.58-.05 12-2.45 23.74-9.14 29.3-20.05 5.95-11.7 3.84-25.67 2.5-38.72-2.94-28.84-1.48-58.58-10.7-86.05-1.12-3.33-2.4-6.67-2.65-10.19-.24-3.5.76-7.31 3.47-9.55 2.48-2.04 5.86-2.42 9.12-2.55l1-.05a27281.51 27281.51 0 0 0 21.51-.72c6.2-.21 13.2-.12 17.55 4.3 3.6 3.66 4.27 9.2 4.73 14.3 4.18 46.75 6.38 93.85 2.13 140.59-.75 8.3-1.76 16.73-5.13 24.36-4.18 9.4-11.74 16.94-20.14 22.87a94.24 94.24 0 0 1-54.9 17.05v1.04a423.82 423.82 0 0 0 11.82 96c1.45 5.99 2.63 13.34-2 17.4-2.93 2.57-7.17 2.76-11.05 3.1a83.62 83.62 0 0 0-36.89 12.33v-17.98l.01-12.85c.1-51.46.72-102.91 1.84-154.35l.4-1.22 1.5 1z"/>
  <path stroke="#fff" stroke-linecap="round" stroke-linejoin="round" stroke-width="3" d="M680.32 367.98c12.62-3.85 22.03-14.95 26.9-27.2 4.88-12.26 5.86-25.69 6.38-38.87 1.6-40.73-.67-81.53-4.35-122.13"/>
  <path fill="#171717" d="M476.17 226.17c-3.06 16.84-3.36 35.1 4.9 50.1 6.21 11.33 16.82 19.75 28.37 25.55 11.5 5.76 24.02 9.17 36.44 12.54 6.03 8.98 6.28 20.56 5.73 31.37-.9 17.52-3.36 34.93-5.8 52.3a427990.64 427990.64 0 0 0-12.6 89.32l-1.23 8.63a5.82 5.82 0 0 1-1.3 3.47c-1.82 1.8-4.85.53-7.03-.8a133.8 133.8 0 0 1-13.8-9.3c-5.62-4.47-10.42-9.71-13.04-16.35-3.23-8.24-2.56-17.44-1.6-26.24 3.36-30.54 9.72-60.68 16.1-90.75-25.87-.08-49.25-17.97-62.25-40.36-13.05-22.48-17.3-48.9-19.6-74.8-2.13-23.81-2.7-48.38 5.05-71 1.3-3.83 3.07-7.85 6.57-9.9 3.55-2.1 8-1.64 12.1-1.12l3.62.46 19.4 2.5c1.35.14 2.7.38 4 .73 1.27.31 2.45.9 3.45 1.73 3.17 2.7 3.25 7.5 2.85 11.64-1.68 17.04-7.26 33.44-10.33 50.28z"/>
  <path stroke="#fff" stroke-linecap="round" stroke-linejoin="round" stroke-width="3" d="M520.6 314.46c-28.46-3.92-50.74-29.65-56.52-57.79-5.78-28.14 2.55-57.66 16.68-82.67"/>
  <path fill="#171717" d="M74.9 544.66c7.46-1.2 15.06.51 22.35 2.46 19 5.06 37.58 11.83 56.91 15.36 19.34 3.53 39.96 3.65 57.95-4.26 17.84-7.84 32.48-24.77 33.64-44.17 3.8-.06 7.6-.52 11.3-1.36 25.97-5.43 51.04-14.38 76-23.4l.31.87c17.26 19.36 34.96 51.42 41.74 76.45 6.77 25.03 9.24 51.02 10.47 76.92 1.7 35.87 1.05 72.17-6.93 107.19-2.46 10.82-5.7 21.65-11.63 31.03a50.12 50.12 0 0 1-13.4 14.27 37.14 37.14 0 0 1-12.27 5.65c-9.58 2.36-20.57-.07-27.43-6.99-.87-.86-1.66-1.8-2.37-2.8-6.54-9.1-5.86-21.37-4.66-32.51 3.86-36.08 10.2-71.97 11.16-108.23.95-36.27-2.5-73.34-19.5-105.38-1.87 12.24-3.99 24.47-7.9 36.2-4.54 13.65-11.65 26.72-22.37 36.3-13.55 12.1-31.69 17.7-49.54 21.06a278.5 278.5 0 0 1-99.17.27c-16.52-2.88-33.17-7.33-47.03-16.76a64.2 64.2 0 0 1-13.76-12.6c-6.7-8.27-11.13-18.22-11.5-28.78a38.75 38.75 0 0 1 9.53-26.4 30.66 30.66 0 0 1 18.1-10.4z"/>
  <path stroke="#fff" stroke-linecap="round" stroke-linejoin="round" stroke-width="3" d="M367.21 747.37c22.22-73.54 14.7-155.61-20.54-223.88"/>
  <path fill="#171717" d="M619.61 821.1c1.58 7.7 3.12 15.96.14 23.26-2.67 6.53-8.55 11.15-14.4 15.1a179.64 179.64 0 0 1-31.1 16.86c-10.1 4.25-21.8 7.54-31.78 3-4.77-2.18-8.9-6.48-9.42-11.7-.38-3.84 1.23-7.62 3.4-10.82 3.97-5.86 9.77-10.2 15.46-14.43l24.08-17.9.24-.7c5.46 1.7 11.98 1.7 17.78 1.34 8.1-.5 16.87-1.41 24.24-4.45l1.36.43zm-37.68-595.96a45435.8 45435.8 0 0 1-39.5-10.4 18.32 18.32 0 0 1-6.32-2.55c-1.84-1.35-3.19-3.64-2.76-5.88.75-4 6.24-5.08 10.02-3.6 3.8 1.48 6.84 4.52 10.71 5.75-1.74-2.04-3.54-4.18-4.2-6.78-.68-2.6.15-5.8 2.57-6.98 2.32-1.12 5.15-.02 7.06 1.7 1.9 1.7 3.25 3.98 5.05 5.81 4.36 4.4 10.82 5.73 16.82 7.21a160.77 160.77 0 0 1 19.8 6.28c2.74 1.06 5.6 2.32 7.31 4.72 3.14 4.4 1.15 10.42-.1 15.69a49.92 49.92 0 0 0 5.14 35.86c1.12 1.95 2.3 4.6.75 6.21-1.58 1.63-4.43.4-5.87-1.36-1.43-1.76-2.4-4.04-4.44-5.07.27 2.59 2.06 4.72 3.16 7.07 1.1 2.35 1.22 5.69-1.02 7.02-1.7 1.02-4.04.24-5.4-1.24a13.21 13.21 0 0 1-2.5-5.4l-.54-.07a263.69 263.69 0 0 0 2.58-32.21c.08-4.36 0-8.95-2.24-12.69-3.24-5.43-9.96-7.47-16.08-9.09zm-8.15 91.53-10.93 9.61.3-16.83.66.01c3.28 1.36 6.55 3.67 9.83 5.02.35.1.66.32.85.63.25.56-.25 1.15-.7 1.56zm-17.98 50.8c-.96-9.33-3.9-28.85 3.18-36.62 2.78-3.05 6.52-2.22 9.37.53 3.91 3.78 2.3 10.07 2.4 15.26.6 35.4 7.47 70.41 20.31 103.41l-3.42 15.33c-5.13.2-9.89-3.1-12.8-7.31-2.93-4.22-4.3-9.3-5.59-14.27a525.68 525.68 0 0 1-13.45-76.33Z"/>
  <path fill="url(#a)" d="M561.18 834.94c-9.59-103.94 4.48-209.1 42.55-306.28l.62-.8c4.4 3.38 9.01 6.49 13.8 9.3 2.18 1.33 5.2 2.58 7.03.8.8-1 1.25-2.21 1.3-3.48l1.22-8.63a241.5 241.5 0 0 0 69.35 12v17.97a83.39 83.39 0 0 1 24.44-10.28l.12.45c-6.87 92.53 5.05 185.32 7.95 278.07.27 8.7.31 17.97-4.4 25.27a26.24 26.24 0 0 1-12.4 9.82c-7.37 3.04-16.16 3.95-24.24 4.46-5.8.36-12.32.37-17.8-1.34-4.14-1.29-7.7-3.56-9.87-7.4-2.4-4.23-2.38-9.34-2.3-14.2 1.31-86.82 2.64-173.65 3.97-260.49l-.32-.22c-24.53 34.5-27.73 70.05-30.16 112.74-2.49 43.5.33 87.38-6.04 130.47-.86 5.83-1.98 11.86-5.36 16.69a23.49 23.49 0 0 1-8.24 7.13c-6.18 3.36-13.8 4.75-20.9 5.83-6.31.96-13.61 1.5-19.43-.46a14.44 14.44 0 0 1-7.94-5.97c-2.12-3.37-2.58-7.5-2.95-11.45z" style="fill:url(#a)" transform="translate(-94.5 -38.5)"/>
  <path fill="#171717" d="M519.85 808.72c2.94 9.52 5.8 20.31.97 29.05-3.53 6.4-10.43 10.15-17.2 12.9a118.4 118.4 0 0 1-64.3 6.9c-2.2-.4-4.48-.88-6.19-2.3-2.3-1.91-3.07-5.13-2.95-8.12.27-6.94 4.66-13.2 10.18-17.42 5.53-4.2 12.16-6.7 18.67-9.12 6.5-2.42 12.01-3.88 18.5-6.3l.05-.45c5.82 1.96 13.11 1.41 19.42.46 7.1-1.09 14.73-2.47 20.91-5.83z"/>
  <path fill="url(#b)" d="M490 867.62c1.4 3.74-.68 7.9-3.34 10.87-7.54 8.38-19.64 11.42-30.88 10.57-11.23-.85-21.89-5.1-32.34-9.28-4.59-1.84-9.31-3.76-12.85-7.21-5.06-4.92-6.98-12.37-6.71-19.43.27-6.83 2.37-13.45 4.52-19.96 6.86 6.92 17.85 9.35 27.43 7a37.12 37.12 0 0 0 12.27-5.66l.13.17a104.27 104.27 0 0 0 33.48 26.13c3.3 1.61 6.99 3.37 8.29 6.8z" style="fill:url(#b)" transform="translate(-94.5 -38.5)"/>
  <path fill="url(#c)" d="M349.16 387.11c-2.85-.35-5.34-2.73-6.46-5.45-1.28-3.12-1.19-6.6-1.08-9.98l-.08-.46a24 24 0 0 0 9.01-3.32 23.63 23.63 0 0 0 5.63-5.02l.83.5a35.87 35.87 0 0 1 7 13.45c.43 1.62.7 3.47-.28 4.83-.3.4-.67.72-1.1.97-1.27.73-3 .85-4.47 1.3-2.7.82-4.96 2.95-7.76 3.2-.41.04-.83.04-1.24-.02z" style="fill:url(#c)" transform="translate(-94.5 -38.5)"/>
  <path fill="url(#d)" d="M354 481a122.7 122.7 0 0 0-4.85-93.89c.42.06.84.07 1.25.03 2.8-.25 5.06-2.4 7.75-3.2 1.49-.45 3.2-.57 4.49-1.3a150.79 150.79 0 0 1 17.05 103.1c-1.73 8.8-4.34 17.62-9.47 24.99-8.29 11.93-22.24 18.8-31.3 30.16-2.23-10.22-.19-20.94 3.26-30.82 3.44-9.88 8.26-19.22 11.82-29.07z" style="fill:url(#d)" transform="translate(-94.5 -38.5)"/>
  <path fill="#171717" d="M222.76 317.67a32.46 32.46 0 0 1-15.92-17.28c-2.48-6.52-2.68-14.08.12-20.41.43-.98.92-1.92 1.5-2.82a17.53 17.53 0 0 1 5.8-5.85c4.7-2.85 10.4-2.95 16.6-3.09 8.42-.2 16.51-8.02 24.81-6.28l.46.1c3.6.9 6.42 3.82 8 7.16a25.1 25.1 0 0 1 2.06 7.66c.14 1.03.24 2.08.32 3.11.61 6.07.22 12.2-1.17 18.13a32.77 32.77 0 0 1-2.6 6.8c-5.45 10.4-17.57 16.85-29.28 15.8a30.33 30.33 0 0 1-10.7-3.03zm17.83-26.47c3.95-3.25 7-8.64 5.08-13.37-3.3-8.15-25.33-7.38-30.09-1-2.8 3.77-2.6 9.31.04 13.18a14.8 14.8 0 0 0 12.08 6.07 20.44 20.44 0 0 0 12.9-4.88z"/>
  <path fill="#171717" d="M225.6 288.54a7.67 7.67 0 0 1-4.66-8.76c.31-1.27 1.16-2.58 2.44-2.75 1.15-.16 2.2.62 3.22 1.15.43.23.9.42 1.36.55l-.04 1.05a6.1 6.1 0 0 0-.07 8.73l-.03.43a6.85 6.85 0 0 1-2.23-.4zm14.71-86.86a13.29 13.29 0 0 1 4.1-4c2.42-1.38 5.9-1.32 7.6.88 1.38 1.8 1.15 4.43.03 6.38a15.32 15.32 0 0 1-4.84 4.65 89.64 89.64 0 0 1-23 11.4c-7.25 2.38-15.4 4.18-20.13 10.2-4.49 5.7-4.57 13.92-2.06 20.72 2.52 6.8 7.23 12.55 11.87 18.13l.37 1.27a17.54 17.54 0 0 0-5.8 5.85c-.57.9-1.07 1.84-1.5 2.82l-.5-.22c-7.2-8.46-14.56-17.22-17.9-27.8-3.33-10.58-1.68-23.56 6.93-30.57 5.06-4.12 11.67-5.63 17.85-7.74 6.2-2.11 12.58-5.37 15.32-11.3 1.06-2.28 1.6-5 3.56-6.58a5.17 5.17 0 0 1 8.1 5.9c-.5.7-.98 1.42-1.45 2.14a4.98 4.98 0 0 0 1.45-2.13z"/>
  <path fill="url(#e)" d="M151.3 593.55a38.75 38.75 0 0 0-9.54 26.4c.38 10.56 4.81 20.5 11.51 28.77l-1.19.98-21.06 35.34c-2.28 3.83-4.76 7.85-8.73 9.84-6.76 3.4-15.24-.53-19.85-6.52-5.34-6.97-6.98-16.23-6.3-24.99.7-8.75 3.5-17.18 6.3-25.5l8.2-24.5c2.23-6.67 4.76-13.77 10.36-18.05 8.33-6.37 20.09-4.26 30.3-1.77z" style="fill:url(#e)" transform="translate(-94.5 -38.5)"/>
  <path stroke="#171717" stroke-linecap="round" stroke-linejoin="round" stroke-width="3" d="m230.6 267.4 6.68-5.11a224.84 224.84 0 0 1-12.7-25.6 8.54 8.54 0 0 1-.94-4.18c.32-2.72 3.13-4.45 5.8-5.12 2.66-.67 5.52-.7 7.96-1.97m-18.5 19.98a7.8 7.8 0 0 0-10 4.8"/>
  <path stroke="#171717" stroke-linecap="round" stroke-linejoin="round" stroke-width="3" d="M232.11 240.18c1.52-4.2 7.38-6.08 11.06-3.54M242 214.67a128.93 128.93 0 0 1 13.7 47.35"/>
  <path stroke="#171717" stroke-linecap="round" stroke-linejoin="round" stroke-width="3" d="M214.25 271.3a17.52 17.52 0 0 0-5.8 5.86c-.57.9-1.07 1.84-1.5 2.82-2.8 6.33-2.6 13.89-.1 20.41a32.47 32.47 0 0 0 15.91 17.28 30.36 30.36 0 0 0 10.7 3.04c11.7 1.03 23.81-5.4 29.26-15.82a32.82 32.82 0 0 0 2.6-6.8 55.26 55.26 0 0 0 1.18-18.12 56.8 56.8 0 0 0-.32-3.12 25.1 25.1 0 0 0-2.06-7.65c-1.58-3.34-4.4-6.26-8-7.16l-.46-.1c-8.3-1.75-16.4 6.07-24.8 6.28-6.2.14-11.9.24-16.6 3.09z"/>
  <path stroke="#171717" stroke-linecap="round" stroke-linejoin="round" stroke-width="3" d="M236.97 276.12a8.74 8.74 0 0 1-10.38 2.06c-1.02-.53-2.06-1.3-3.2-1.15-1.3.17-2.14 1.48-2.45 2.75a7.67 7.67 0 0 0 4.65 8.76 7.7 7.7 0 0 0 9.2-3.69"/>
  <path stroke="#171717" stroke-linecap="round" stroke-linejoin="round" stroke-width="3" d="M227.85 288.5a6.1 6.1 0 0 1 .07-8.72"/>
  <path stroke="#171717" stroke-linecap="round" stroke-linejoin="round" stroke-width="3" d="M215.58 276.83c-2.8 3.77-2.6 9.31.04 13.19a14.82 14.82 0 0 0 12.08 6.06 20.45 20.45 0 0 0 12.9-4.88c3.94-3.25 7-8.64 5.07-13.37-3.3-8.15-25.33-7.38-30.09-1zm24.73-75.15a5.18 5.18 0 0 0-8.1-5.9c-1.96 1.59-2.5 4.3-3.55 6.58-2.74 5.92-9.15 9.19-15.32 11.3-6.18 2.12-12.8 3.62-17.86 7.74-8.6 7.01-10.27 19.98-6.92 30.57 3.35 10.59 10.7 19.34 17.9 27.8"/>
  <path stroke="#171717" stroke-linecap="round" stroke-linejoin="round" stroke-width="3" d="M240.31 201.68c-.5.7-.98 1.42-1.44 2.14a4.97 4.97 0 0 0 1.44-2.14z"/>
  <path stroke="#171717" stroke-linecap="round" stroke-linejoin="round" stroke-width="3" d="M213.88 270.04c-4.64-5.58-9.36-11.31-11.87-18.13-2.5-6.81-2.43-15.03 2.06-20.73 4.74-6 12.88-7.81 20.14-10.2a89.7 89.7 0 0 0 23-11.4 15.34 15.34 0 0 0 4.83-4.64c1.13-1.95 1.35-4.59-.03-6.38-1.7-2.2-5.18-2.26-7.6-.89a13.26 13.26 0 0 0-4.1 4.01m27 75.02c9.36-46.8 18.72-93.6 28.06-140.4.92-4.63 1.94-9.45 4.86-13.15 3.96-5.02 10.46-6.87 17.01-7.15a49.8 49.8 0 0 1 5.6.11c5.92.44 11.94 1.56 17.82 1.3 2.27-.08 4.52-.42 6.71-1.02-3.93 32.25-7.88 64.5-11.82 96.73-4.34 35.5-8.68 71.1-8.46 106.86.3 51.4 10.06 102.28 21.8 152.34"/>
  <path stroke="#171717" stroke-linecap="round" stroke-linejoin="round" stroke-width="3" d="M222.08 319a43 43 0 0 1-12.56-.33c-16.05-2.72-30.7-14.09-38.1-28.87-9.3-18.57-8.22-41.23-.3-60.43 7.93-19.2 22.1-35.28 38.03-48.62 4.4-3.66 9.42-9.16 6.81-14.25-1-1.98-2.98-3.25-4.85-4.42l-.6-.37-17.26-10.82c-1.13-.7-2.3-1.42-3.5-2.07-3.05-1.66-6.3-2.9-9.7-2.44-4.79.62-8.45 4.42-11.62 8.07-23.17 26.75-41.37 58.69-47.29 93.59-5.92 34.9 1.54 72.88 24.35 99.95 17.8 21.1 43.07 34.08 68.1 46.01l4.76 2.27m-7.29-235.44a19.3 19.3 0 0 0 12.82-4.27c1.56-1.27 3-2.97 3.04-4.99.05-2.94-3.04-5.15-5.99-5.24-2.94-.09-5.69 1.32-8.28 2.7a106.52 106.52 0 0 0 16.64-35.74c.27-1.08.5-2.35-.23-3.21a2.5 2.5 0 0 0-3.23-.18 7.26 7.26 0 0 0-2.1 2.83l-14.52 28.04c4.65-11.52 14.51-34.24 10.16-35.73-5.9-2.55-7.9 10.02-9.9 16.1-2.02 6.08-3.55 12.44-7.08 17.79a149.96 149.96 0 0 0 6.12-32.4c.16-1.96-.2-4.55-2.14-4.89-1.94-.33-3.14 2.04-3.68 3.94l-12 43.19m126.51-33.9a37.47 37.47 0 0 1-11.56-10.85c-.94-1.35-1.73-3.33-.57-4.5.9-.9 2.4-.7 3.61-.34a33.58 33.58 0 0 1 12.06 6.44c0-15.13-.7-45.5 5.56-44.81 6.25.68 3 26.94 1.17 40.46l5.08-28.88c.6-3.36 2.14-7.58 5.55-7.55 3.87.03.56 26.01-2.44 38.67 2.9-5.81 2.96-12.56 3.8-19 .82-6.45 4.01-17.46 8.31-16.95 7.7.93-.7 33.26-7.17 48.6"/>
  <path stroke="#171717" stroke-linecap="round" stroke-linejoin="round" stroke-width="3" d="M209.34 319.73c7.05 4.63 14.22 9.31 22.28 11.76a34.6 34.6 0 0 0 15.42 1.23 24 24 0 0 0 9-3.32 23.67 23.67 0 0 0 5.64-5.02 28.15 28.15 0 0 0 4.72-8.53c1.98-5.67 2.2-12.13-.3-17.59"/>
  <path stroke="#171717" stroke-linecap="round" stroke-linejoin="round" stroke-width="3" d="M247.12 333.18c-.1 3.38-.2 6.87 1.08 9.98 1.12 2.72 3.61 5.1 6.46 5.45.41.06.83.07 1.24.03 2.8-.25 5.07-2.4 7.76-3.2 1.48-.45 3.2-.57 4.48-1.3.43-.25.8-.58 1.1-.97.97-1.36.7-3.22.26-4.83a35.88 35.88 0 0 0-6.99-13.46m-49.22 69.73 12.66 97.2c.83 6.42 1.93 13.39 6.68 17.81 3.54 3.3 8.21 4.4 13.12 4.42 3.8-.05 7.6-.5 11.3-1.35 25.97-5.43 51.04-14.38 76-23.4.58-.2 1.15-.4 1.73-.62 3.57-1.29 7.24-2.63 10.13-5.12 2.88-2.49 4.82-6.43 3.9-10.12"/>
  <path stroke="#171717" stroke-linecap="round" stroke-linejoin="round" stroke-width="3" d="m245.78 513.5-.03.54c-1.16 19.4-15.8 36.34-33.64 44.18-18 7.9-38.6 7.79-57.95 4.25-19.34-3.53-37.9-10.3-56.9-15.36-7.3-1.94-14.9-3.64-22.35-2.45a30.67 30.67 0 0 0-18.1 10.4 38.75 38.75 0 0 0-9.55 26.38c.38 10.56 4.81 20.51 11.51 28.78a64.18 64.18 0 0 0 13.74 12.61c13.86 9.44 30.51 13.88 47.03 16.76a278.5 278.5 0 0 0 99.17-.27c17.86-3.37 36-8.95 49.54-21.06 10.73-9.58 17.83-22.66 22.37-36.3 3.91-11.73 6.03-23.95 7.9-36.2l.9-5.95m-.9 5.95c17 32.05 20.46 69.12 19.5 105.38-.96 36.27-7.3 72.16-11.16 108.23-1.2 11.15-1.88 23.41 4.66 32.52a22 22 0 0 0 2.38 2.8c6.86 6.9 17.84 9.35 27.42 6.99a37.1 37.1 0 0 0 12.28-5.66 50.12 50.12 0 0 0 13.4-14.26c5.93-9.4 9.16-20.21 11.62-31.04 8-35.02 8.63-71.31 6.93-107.18-1.23-25.9-3.7-51.9-10.47-76.93-6.77-25.02-24.48-57.1-41.74-76.45"/>
  <path stroke="#171717" stroke-linecap="round" stroke-linejoin="round" stroke-width="3" d="m57.16 555.14-.36-.09c-10.2-2.5-21.97-4.6-30.3 1.77-5.6 4.28-8.12 11.38-10.36 18.05l-8.2 24.5c-2.79 8.32-5.6 16.75-6.29 25.5-.7 8.76.95 18.02 6.3 24.99 4.6 5.99 13.1 9.92 19.84 6.52 3.97-2 6.45-6.01 8.73-9.84l21.06-35.34M314.1 794.09l-.2.6c-2.15 6.5-4.25 13.12-4.52 19.95-.27 7.06 1.66 14.51 6.72 19.43 3.53 3.45 8.25 5.37 12.84 7.2 10.45 4.2 21.12 8.43 32.35 9.29 11.22.86 23.33-2.19 30.87-10.57 2.66-2.96 4.74-7.13 3.34-10.87-1.3-3.42-5-5.19-8.28-6.8a104.27 104.27 0 0 1-33.5-26.13m204.76-569.63a61.6 61.6 0 0 0 16.15 4.46c-3 10.82-6 21.64-8.98 32.46 1.48 0 2.95 0 4.43.02"/>
  <path stroke="#171717" stroke-linecap="round" stroke-linejoin="round" stroke-width="3" d="M564.91 239.58a3.77 3.77 0 0 0-6.67-2.08l.91-.66m21.97 4.19.57-.42m7.37 3.12a5.26 5.26 0 0 0-8.3-2.43M568.53 275c2.63 2.2 6.76 1.75 9.54-.26.51-.38 1-.8 1.43-1.25a18.68 18.68 0 0 0 4.06-7.27 12.73 12.73 0 0 1 5.37 6.56 8.99 8.99 0 0 1-1.19 8.22 7.3 7.3 0 0 1-4.86 2.78c-.96.1-1.92 0-2.83-.3"/>
  <path stroke="#171717" stroke-linecap="round" stroke-linejoin="round" stroke-width="3" d="M585.4 282.27a9.88 9.88 0 0 0-5.83-8.7m-14.93 31.34c3.47-4.58 1.72-11.35-1.75-15.91-3.48-4.56-8.36-7.87-12-12.31-6.1-7.46-8.07-17.62-7.44-27.23.64-9.6 4.65-21.78 7.66-30.94"/>
  <path stroke="#171717" stroke-linecap="round" stroke-linejoin="round" stroke-width="3" d="M591.26 310.55a265.31 265.31 0 0 0 9-63.63c.07-4.36 0-8.95-2.25-12.69-3.24-5.43-9.96-7.47-16.08-9.09a45435.8 45435.8 0 0 1-39.5-10.4 18.32 18.32 0 0 1-6.32-2.55c-1.84-1.35-3.19-3.64-2.76-5.88.75-4 6.24-5.08 10.02-3.6 3.8 1.48 6.84 4.52 10.71 5.75-1.74-2.04-3.54-4.18-4.2-6.78-.68-2.6.15-5.8 2.57-6.98 2.32-1.12 5.15-.02 7.06 1.7 1.9 1.7 3.25 3.98 5.05 5.81 4.36 4.4 10.82 5.73 16.82 7.21a160.77 160.77 0 0 1 19.8 6.28c2.74 1.06 5.6 2.32 7.31 4.72 3.14 4.4 1.15 10.42-.1 15.69a49.92 49.92 0 0 0 5.14 35.86c1.12 1.95 2.3 4.6.75 6.21-1.58 1.63-4.43.4-5.87-1.36-1.43-1.76-2.4-4.04-4.44-5.07.27 2.59 2.06 4.72 3.16 7.07 1.1 2.35 1.22 5.69-1.02 7.02-1.7 1.02-4.04.24-5.4-1.24a13.21 13.21 0 0 1-2.5-5.4m-52.17 35.2-.1-.03a.1.1 0 0 0-.07-.01c-12.4-3.37-24.93-6.78-36.44-12.55-11.54-5.8-22.15-14.21-28.38-25.54-8.24-15-7.94-33.26-4.88-50.1 3.06-16.84 8.65-33.24 10.33-50.27.4-4.15.31-8.95-2.85-11.65a8.84 8.84 0 0 0-3.45-1.73c-1.3-.35-2.65-.6-4-.73l-19.4-2.5-3.64-.46c-4.1-.52-8.53-.97-12.09 1.12-3.5 2.05-5.26 6.08-6.57 9.9-7.75 22.63-7.17 47.2-5.05 71 2.3 25.89 6.55 52.32 19.6 74.8 13 22.4 36.4 40.28 62.26 40.36h.3m94.7-24.09c12.17 1.2 24.58 2.4 36.57-.05 12-2.45 23.74-9.14 29.3-20.05 5.96-11.7 3.85-25.67 2.5-38.72-2.94-28.84-1.48-58.58-10.7-86.05-1.12-3.33-2.4-6.67-2.65-10.19-.24-3.5.76-7.31 3.47-9.55 2.5-2.04 5.86-2.42 9.13-2.55l1-.05a27281.51 27281.51 0 0 0 21.5-.72c6.2-.21 13.2-.12 17.55 4.3 3.6 3.66 4.27 9.2 4.73 14.3 4.18 46.75 6.38 93.85 2.14 140.59-.76 8.3-1.76 16.73-5.14 24.36-4.18 9.4-11.73 16.94-20.13 22.87a94.25 94.25 0 0 1-60.28 16.84"/>
  <path stroke="#171717" stroke-linecap="round" stroke-linejoin="round" stroke-width="3" d="m511.52 355-.2 1c-6.39 30.08-12.75 60.22-16.1 90.76-.98 8.8-1.64 18 1.6 26.24 2.6 6.64 7.4 11.88 13.03 16.36 4.4 3.38 9 6.49 13.8 9.3 2.18 1.32 5.2 2.58 7.02.8.8-1 1.26-2.21 1.3-3.48l1.22-8.63 1.46-10.36c3.72-26.32 7.44-52.63 11.14-78.95 2.45-17.38 4.91-34.79 5.81-52.31.55-10.81.31-22.39-5.73-31.37m58.53 17.78a7957.51 7957.51 0 0 0-1.85 185.18 83.6 83.6 0 0 1 36.88-12.33c3.9-.34 8.13-.53 11.06-3.1 4.63-4.06 3.45-11.41 2-17.4a423.83 423.83 0 0 1-11.83-96M546 314.1c-2.7-2.28-.1-8.11 3.08-9.7 3.17-1.6 6.95-.92 10.44-.22l5.06 1.02 26.67 5.36 1.25.25c3.31.66 6.84 1.45 9.2 3.87 3.74 3.82 4.03 10.96 3.1 16.24m-95.57 159.24c-38.08 97.18-52.13 202.34-42.55 306.28.37 3.95.83 8.08 2.95 11.45a14.51 14.51 0 0 0 7.94 5.97c5.82 1.95 13.12 1.41 19.43.45 7.1-1.08 14.72-2.46 20.9-5.82a23.5 23.5 0 0 0 8.23-7.14c3.4-4.83 4.5-10.86 5.36-16.68 6.37-43.1 3.55-86.98 6.04-130.48 2.43-42.68 5.63-78.24 30.16-112.74l1.4-1.95"/>
  <path stroke="#171717" stroke-linecap="round" stroke-linejoin="round" stroke-width="3" d="m568 541.68-3.96 260.49c-.08 4.86-.09 9.97 2.3 14.2 2.18 3.84 5.73 6.11 9.88 7.4 5.47 1.7 11.98 1.7 17.8 1.33 8.07-.5 16.86-1.41 24.23-4.45a26.23 26.23 0 0 0 12.4-9.82c4.72-7.3 4.68-16.58 4.4-25.28-2.9-92.75-14.8-185.53-7.95-278.07m-91.22-30.32a300.4 300.4 0 0 0 66.4 9.33m-69.16.84.07.02a241.5 241.5 0 0 0 69.57 12m-39.59-190.42v.52c-.12 5.6-.22 11.22-.32 16.83l10.93-9.6c.46-.42.97-1 .72-1.57-.2-.3-.5-.53-.86-.63-3.28-1.35-6.55-3.66-9.83-5.02m-8 58.01c2.6 25.74 7.1 51.25 13.45 76.33 1.26 4.97 2.66 10.04 5.57 14.26 2.91 4.23 7.68 7.52 12.81 7.32 1.15-5.1 2.28-10.22 3.42-15.33a299.09 299.09 0 0 1-20.32-103.41c-.1-5.2 1.52-11.48-2.4-15.26-2.84-2.75-6.58-3.58-9.36-.53-7.09 7.77-4.14 27.3-3.18 36.62zm-78.29 446.84c-6.48 2.42-12 3.87-18.5 6.3-6.5 2.42-13.13 4.91-18.67 9.12-5.53 4.21-9.9 10.47-10.18 17.42-.12 2.98.66 6.2 2.95 8.11 1.72 1.44 4 1.92 6.2 2.3a118.4 118.4 0 0 0 64.3-6.9c6.76-2.75 13.66-6.5 17.2-12.89 4.81-8.74 1.96-19.53-.98-29.05"/>
  <path stroke="#171717" stroke-linecap="round" stroke-linejoin="round" stroke-width="3" d="m576 824.48-24.09 17.88c-5.69 4.23-11.49 8.58-15.46 14.44-2.17 3.2-3.78 6.98-3.4 10.81.51 5.23 4.65 9.53 9.42 11.7 9.98 4.54 21.68 1.25 31.78-3a179.85 179.85 0 0 0 31.1-16.85c5.86-3.96 11.73-8.57 14.4-15.1 2.98-7.3 1.44-15.56-.14-23.27M464.82 139.42c1.9-10.4 5.15-31.12.12-31.12-5.97-1.3-9 33.31-8.09 50.54m7.88-18.97zm0 0 .1-.45"/>
  <path stroke="#171717" stroke-linecap="round" stroke-linejoin="round" stroke-width="3" d="M480.33 162.12c1.67-1.83 3.88-3.07 5.86-4.55 2-1.48 3.88-3.38 4.4-5.8.5-2.43-.87-5.38-3.32-5.75-3.55-.56-5.8 4.01-9.3 4.88a147.85 147.85 0 0 0 8-32.37c.25-1.88.01-4.42-1.86-4.78-1.8-.35-2.99 1.82-3.54 3.58l-9.28 29.41c2.16-11.14 4.32-22.34 4.77-33.68.06-1.46-.6-3.53-2.02-3.17-.76.18-1.13 1-1.4 1.73a184.57 184.57 0 0 0-7.83 27.8m231.42 23.82a271 271 0 0 0-5.23-39.56c-.65-3.1-1.45-6.38-3.77-8.53-1.45-1.35-4.1-1.95-5.22-.3a4.48 4.48 0 0 0-.38 3.06l3.62 30.72c-1.35-9.28-2.78-18.78-7.34-26.98a8.62 8.62 0 0 0-3.04-3.52 3.45 3.45 0 0 0-4.3.52c-1 1.27-.62 3.09-.18 4.63a89780 89780 0 0 0 7.55 26.74c-2.7-8.1-5.42-16.24-9.44-23.78a8.3 8.3 0 0 0-2.2-2.9 3 3 0 0 0-3.44-.25c-1.3.95-1.2 2.92-.9 4.5a107.86 107.86 0 0 0 7.53 24.64c-1.84-1.23-3.8-2.51-6-2.59-2.2-.08-4.62 1.6-4.49 3.8.12 1.9 1.94 3.19 3.56 4.19l11.35 6.9M254.61 348.5l.05.1a122.7 122.7 0 0 1 4.84 93.9c-3.56 9.84-8.38 19.2-11.82 29.06-3.45 9.88-5.49 20.6-3.25 30.82 9.06-11.36 23-18.23 31.3-30.16 5.13-7.36 7.73-16.18 9.46-24.99 6.8-35.3.74-71.87-17.05-103.1l-.09-.16m497.63 4.47c-17.37 31.09-32.45 64.6-34.4 100.15-.43 8.01-.09 16.47 3.97 23.39 4.06 6.92 12.87 11.62 20.33 8.66 7.45-2.97 9.73-15.17 2.73-19.1-5.36-3-12.52.43-15.58 5.76-3.05 5.33-3 11.85-2.54 17.97 1.06 13.83 3.9 27.54 3.85 41.41-.06 13.87-3.44 28.44-13.03 38.47-4.5 4.7-11.3 8.34-17.37 5.98-6.06-2.36-7.3-13.05-1.02-14.73m-9.7-171.15a30.17 30.17 0 0 0 22.35-24.34M444.54 668.33a60.52 60.52 0 0 1 8.55-50.48m-10.94-270.97a45.8 45.8 0 0 1-23-37.93M448.8 84.84a118.8 118.8 0 0 0 24.6-27.33m-65.69 10.92 5.7-66.93m-38.39 61.47-9.56-17.76M612.9 563.76l1.17-13m-29.29 53.3v-12.98m24.6 71.05-.67-12.3m-24.14 100.4 1.45-8.87m31.55-19.11-.68-13.66m-84.03-140.74a27.9 27.9 0 0 1 6.83-12.98m-25.36-30.07a16.34 16.34 0 0 1 6.25-10.2m-28.03 132.5 3.42-12.3m20.5 77.9a18.2 18.2 0 0 0 .67-12.3m-42.4 46.46a11.6 11.6 0 0 1 .75-8.88m32.8 51.92 1.35-10.94m64.23-283.52 1.36-8.2m-16.42 6.83 2.06-8.88M199.77 188.57a85.04 85.04 0 0 0-26.35-17.09c-1.98-.8-4.13-1.66-5.23-3.5m127.64-28.86c13.4-2.39 27-3.33 40.6-2.82m-178.65 2.74-5-8.66m-2.68 7.82 8.98-7.44m15.11-31.35c-.06-3.8-1-7.55-2.77-10.92"/>
  <path stroke="#171717" stroke-linecap="round" stroke-linejoin="round" stroke-width="3" d="m166.88 95.31 10.62-5.45-.75 1.26m-81.88 74.35c-8.94 8.4-16.57 18.62-19.9 30.43-3.35 11.8-1.9 25.35 5.68 35 3.45 4.4 8.97 8.07 14.36 6.58 6.25-1.74 8.78-9.22 9.4-15.68.37-4.07.37-8.32-1.24-12.09-1.6-3.76-5.13-6.94-9.23-7.07-6.19-.2-10.5 6.18-12.23 12.13a42.51 42.51 0 0 0 2.36 29.5c2.1 4.5 5.08 8.87 5.12 13.84.06 8.08-8.1 14.28-16.16 15.02-8.06.74-15.88-2.51-23.3-5.7m48.7 18.75c-2.16 22.93 8.9 46.64 27.86 59.72m14.58 69.72a188.04 188.04 0 0 1 32.76 58.75c3.55 10.43 6.16 21.94 2.5 32.33a28.5 28.5 0 0 1-52.5 2.96c-3.59-7.37-2.84-17.97 4.44-21.75 6.02-3.12 14.2.49 16.81 6.76 2.6 6.26.05 13.97-5.2 18.28-5.25 4.3-12.64 5.44-19.27 4-8.3-1.82-15.32-7.18-23.03-10.74-7.7-3.56-17.6-5.02-24.12.44m150.9 154.15a52.48 52.48 0 0 0 43.95-13.7m358.67-436.56 13.33-10.24m-3.08 12.3-9.22-13.33m-37.9-14.35v-9.22m-9.23 6.3 16.4-.93m15.75 618.39 1.35-11.84M32.98 553.5c-10.93 21.91-21.15 45.43-19.67 69.87.38 6.28 1.6 12.67 4.88 18.04 3.27 5.38 8.91 9.6 15.2 9.92m17.13-29.72-10.57-9.45m4.36 19.28-8.1-7.84m274.1 199.91a307.25 307.25 0 0 0 25.22 10.84c9.8 3.66 20.1 6.73 30.53 6.09 10.44-.65 21.12-5.63 26.2-14.78M372.1 814.8a82.86 82.86 0 0 0-8.39 7.3l.56-.27m-2.05-15.89a21.2 21.2 0 0 0-7.15 6m-28.8-622.79a14.95 14.95 0 0 0-5.86-5.55m-28.73 46.07 4.56-4.55m20.5 37.35-4.1-4.56m-26.52 50.02 5.5-6.36m24.05 54.89-5.37-4.66m-6.23 69.22 3.77-7.22m14.81 49.98-6.38-4.1m-73.32-36.44c-2.1-.08-4.14-.7-5.93-1.82m-7.32-41.47a20.16 20.16 0 0 0 2.85-7.25m-31.05-30.53-5.47-2.73m-37.1-2.38 3.75-7.7m-8.54-40.06a14.8 14.8 0 0 1-7.34-3.55m-12.64-32.33 4.54-5.48m25-34.66-4.1-5.47m-24.37 250.05-6.15-8.88"/>
  <path stroke="#171717" stroke-linecap="round" stroke-linejoin="round" stroke-width="3" d="M125.54 459.68a29.32 29.32 0 0 0 11.16-10.64M61.44 230.36c-2.88.28-5.78-.45-8.2-2.05m2.06 6.83 2.73-10.25M768.96 515.5l-5.97-6.32m-.59 9.48 6.15-8.88"/>
  <path fill="#171717" d="M179.74 149.52c-5.97 2.92-10.22 8.18-14.55 13.12a234.11 234.11 0 0 0-12.64 15.77 156.87 156.87 0 0 0-19.66 36.57c-9.4 24.54-13 51.72-8.46 77.68a128.21 128.21 0 0 0 33.23 65.92c8.5 8.9 18.46 16.29 29.44 21.85 10.18 5.12 23.73 9.3 28.41 20.78 3.12 7.65 3.52 16.64 4.56 24.74 1.18 9.18 2.34 18.36 3.58 27.53l3.7 27.38c1.25 9.37 1.95 19.06 4.3 28.23 1.84 7.25 12.95 5.68 12.97-1.76.02-7.85-1.3-15.73-2.2-23.53l-2.9-25.5a4278.02 4278.02 0 0 0-5.47-46.4c-1.82-14.55-6.32-26.38-18.73-34.98-9.8-6.8-21.47-10.34-31.4-17.02-40.66-27.31-54.54-82.66-42.16-128.22a169.24 169.24 0 0 1 16.88-40.26 214.2 214.2 0 0 1 12.26-19.24c4.4-6.03 10.2-11.35 13.4-18.11a3.36 3.36 0 0 0-4.56-4.56zm129.42-32.93c-5.96 1.46-7.45 10.78-9.02 15.76-2.3 7.34-4.6 14.69-6.7 22.09a744.3 744.3 0 0 0-11.1 44.8 1745.45 1745.45 0 0 0-13 67.02c-.96 5.6-4.76 15.78.31 20.13a3.5 3.5 0 0 0 3.42.9c6.4-2.7 6.03-11.07 7.06-17.06a999.94 999.94 0 0 1 14-67.75c3.6-14.96 7.37-29.87 11.13-44.79 1.8-7.15 3.52-14.32 5.38-21.45 1.4-5.36 5.4-14.27 1.03-19a2.6 2.6 0 0 0-2.5-.66zm201.9 377.48c-5.6 8.39-8.2 19.57-11.3 29.1-3.28 10-6.32 20.07-9.06 30.23a705.8 705.8 0 0 0-13.5 60.67 731.58 731.58 0 0 0-11.4 124.61 648.02 648.02 0 0 0 3.88 70.41c.9 8.46 14.2 8.65 13.41 0-7.43-81.95-1.56-165.13 19.01-244.85a834.4 834.4 0 0 1 9.52-33.95c3.3-10.89 8.47-22.11 9.74-33.43.66-5.9-7.58-6.9-10.3-2.8zm59.64 47.02c-1.66 4.03-1.75 8.76-2.15 13.08-.42 4.65-.5 9.32-.66 13.98-.32 9.32-.37 18.63-.4 27.95-.03 18.3-.1 36.6-.06 54.91l.32 111.81.1 30.95.03 14.98c.02 5.49-.62 11.04 2.25 15.96a5.96 5.96 0 0 0 10.2 0c2.41-4.17 2.2-8.3 2.2-12.97v-13.98l-.03-27.95-.04-54.9c-.03-37.28-.12-74.55-.27-111.82-.05-10.31.02-20.64-.37-30.95-.19-4.99-.29-9.99-.64-14.97-.36-5.19-.42-11.26-2.43-16.08-1.63-3.93-6.4-3.95-8.04 0z" opacity=".1"/>
  <defs>
    <linearGradient id="a" x1="643.97" x2="643.97" y1="525.85" y2="863.8" gradientUnits="userSpaceOnUse">
      <stop stop-color="#42E670"/>
      <stop offset="1" stop-color="#07AA50"/>
    </linearGradient>
    <linearGradient id="b" x1="447.15" x2="447.15" y1="833.18" y2="889.2" gradientUnits="userSpaceOnUse">
      <stop stop-color="#42E670"/>
      <stop offset="1" stop-color="#07AA50"/>
    </linearGradient>
    <linearGradient id="c" x1="352.97" x2="352.97" y1="362.88" y2="387.16" gradientUnits="userSpaceOnUse">
      <stop stop-color="#42E670"/>
      <stop offset="1" stop-color="#07AA50"/>
    </linearGradient>
    <linearGradient id="d" x1="360.2" x2="360.2" y1="382.63" y2="540.89" gradientUnits="userSpaceOnUse">
      <stop stop-color="#42E670"/>
      <stop offset="1" stop-color="#07AA50"/>
    </linearGradient>
    <linearGradient id="e" x1="124.64" x2="124.64" y1="591.11" y2="696.14" gradientUnits="userSpaceOnUse">
      <stop stop-color="#42E670"/>
      <stop offset="1" stop-color="#07AA50"/>
    </linearGradient>
  </defs>
</svg>
