<svg xmlns="http://www.w3.org/2000/svg" data-name="Layer 1" viewBox="0 0 1011 727">
  <path fill="#3f3d56" d="M1010.4 727.6q-78.1-11.4-150-19.7l19-30.8c-6.41-1.89-34.6 15.7-34.6 15.7l25-89.5c-32.2 3.11-48.7 94.5-48.7 94.5l-36-31.1 17.4 34.9c-147-15.2-274-21.2-381-21.9l16.3-26.3c-6.41-1.89-34.6 15.7-34.6 15.7l25-89.5c-32.2 3.11-48.7 94.5-48.7 94.5l-36-31.1 18.5 36.9c-89.7 1.09-163 5.87-219 11.5 16.5-41.1 72.4-80 72.4-80-42.7 10.4-65.1 28.2-76.8 44.7-.9-50.8 5.13-145 49.9-249 0 0-88.3 160-77 268l1.34 19.2c-74.8 8.62-112 17.8-112 17.8z"/>
  <path fill="#3f3d56" d="M537.4 28.6v648a29.1 29.1 0 0 1-29.1 29.1h-263a29.1 29.1 0 0 1-29.1-29.1v-648A29.1 29.1 0 0 1 245.3-.5h39.4v5.05a24 24 0 0 0 24 24h134a23.8 23.8 0 0 0 14.2-4.68 22.3 22.3 0 0 0 2.36-1.98 23.9 23.9 0 0 0 7.4-17.3V-.46h42a29.1 29.1 0 0 1 29.1 29.1z"/>
  <circle cx="289" cy="108" r="7" fill="#f2f2f2"/>
  <path fill="#1266f1" d="M459.4 22.6a22.3 22.3 0 0 1-2.36 1.98 125 125 0 0 0 80.9 60.2v-3.12a122 122 0 0 1-78.5-59zM399.4 28.6h-3.28a182 182 0 0 0 142 113v-3.1a179 179 0 0 1-138-110zM338.4 28.6h-3.16c26.4 91.7 106 160 202 171v-3.05c-94.1-11-172-78-199-168z"/>
  <path fill="#f2f2f2" d="M266 160h-1v-2h-1v2h-2 2v2h1v-2h1zM389 68.8h-1V67h-1v1.8h-2v.4h2V71h1v-1.8h1zM284 232h-1v-2h-1v2h-2 2v2h1v-2h1zM368 179h-1v-2h-1v2h-2 2v2h1v-2h1zM488 212h-1v-2h-1v2h-2 2v2h1v-2h1z"/>
  <circle cx="467" cy="125" r="4" fill="#ff6584"/>
  <path fill="#e6e6e6" d="m324.4 218.6-2.27.35c.71 4.54 1.27 9.18 1.68 13.8l2.29-.2c-.41-4.65-.98-9.33-1.7-13.9zM317.4 191.6l-2.2.67c1.33 4.4 2.52 8.91 3.53 13.4l2.25-.51c-1.03-4.54-2.24-9.1-3.58-13.6zM308.4 165.6l-2.09.96c1.92 4.19 3.72 8.49 5.35 12.8l2.15-.81a192.73 192.73 0 0 0-5.41-12.9zM294.4 140.6l-1.94 1.23c2.47 3.88 4.84 7.9 7.04 11.9l2.02-1.1a217.48 217.48 0 0 0-7.12-12.1zM278.4 117.6l-1.75 1.49a191 191 0 0 1 8.62 10.9l1.84-1.37a208 208 0 0 0-8.71-11zM258.4 97.6l-1.53 1.71a192.9 192.9 0 0 1 10 9.59l1.65-1.61a219.55 219.55 0 0 0-10.1-9.69zM236.4 80.6l-1.29 1.9a188.2 188.2 0 0 1 11.2 8.14l1.42-1.81c-3.68-2.86-7.5-5.63-11.4-8.23zM216.4 68.6v2.6c2.39 1.25 4.76 2.56 7.08 3.9l1.15-1.99q-4.05-2.34-8.23-4.51zM323.4 434.6c.37-2.24.71-4.52 1.01-6.79l2.28.3c-.3 2.3-.65 4.6-1.03 6.86zM317.4 461.6l2.2.68c1.38-4.44 2.63-9 3.71-13.5l-2.24-.53c-1.07 4.5-2.3 8.98-3.67 13.4zM307.4 487.6l2.09.98c1.98-4.21 3.84-8.54 5.52-12.9l-2.15-.84c-1.66 4.3-3.5 8.58-5.47 12.7zM293.4 511.6l1.93 1.25c2.54-3.9 4.98-7.94 7.25-12l-2.01-1.12a206.38 206.38 0 0 1-7.18 11.9zM276.4 533.6l1.74 1.51c3.06-3.53 6.03-7.2 8.84-10.9l-1.84-1.38a212.57 212.57 0 0 1-8.74 10.8zM257.4 553.6l1.51 1.73c3.52-3.07 6.95-6.3 10.2-9.59l-1.63-1.63a226.17 226.17 0 0 1-10.1 9.49zM235.4 570.6l1.27 1.92c3.88-2.56 7.74-5.3 11.4-8.11l-1.39-1.84a206.24 206.24 0 0 1-11.3 8.02zM224.4 579.6a196.56 196.56 0 0 1-8.49 4.53v-2.58c2.48-1.26 4.94-2.59 7.35-3.94zM324.4 246.6l2.3-.04c.04 2.32.05 4.65 0 6.94l-2.3-.04c.04-2.26.04-4.56 0-6.86z"/>
  <path fill="#fff" d="M226 302h235a66 66 0 0 1 66 66v8.74H292a66 66 0 0 1-66-66V302z"/>
  <path fill="#f2f2f2" d="M382.4 705.6c-.23-.38-5.64-9.41-7.52-28.2-1.72-17.2-.61-46.2 14.4-86.7 28.5-76.7-6.57-139-6.93-139l1.73-1c.1.16 9.14 15.9 14.5 41a179 179 0 0 1-7.42 99.8c-28.5 76.5-7.3 113-7.08 113z"/>
  <circle cx="371" cy="434" r="13" fill="#1266f1"/>
  <circle cx="412" cy="482" r="13" fill="#f2f2f2"/>
  <circle cx="384" cy="514" r="13" fill="#1266f1"/>
  <circle cx="418" cy="541" r="13" fill="#1266f1"/>
  <circle cx="374" cy="583" r="13" fill="#f2f2f2"/>
  <path fill="#f2f2f2" d="M390.4 705.6s-13-32 26-56zM374.4 705.6s-5.92-34-51.7-33.7z"/>
  <circle cx="322" cy="339" r="80" fill="#1266f1" opacity=".2"/>
  <circle cx="322" cy="339" r="56.3" fill="#1266f1" opacity=".2"/>
  <circle cx="322" cy="339" r="37.2" fill="#1266f1"/>
  <path fill="#fff" d="M329.4 330.6a6.76 6.76 0 1 0-11 5.24l-2.49 17.4h13.5l-2.49-17.4a6.75 6.75 0 0 0 2.49-5.24z"/>
  <path fill="#2f2e41" d="M696.4 53.6s-22.3-20-52.3 17.7-76.9 56.1-87.7 70.8c0 0 44.6-18.5 60-26.1s14.6-6.15 14.6-6.15-20.8 14.6-24.6 29.2-.77 26.9-7.69 41.5 132 10 132 10 13.8-23.8 10-48.4-1.54-85.4-44.6-88.4z"/>
  <path fill="#ffb9b9" d="M653.4 116.6s4.85 33.9-15.9 41.6-13.2 18-13.2 18l31.2 15.2 33.3-10.4 11.1-16.6s-18-4.16-13.2-16.6 6.24-16.6 6.24-16.6z"/>
  <path d="M653.4 116.6s4.85 33.9-15.9 41.6-13.2 18-13.2 18l31.2 15.2 33.3-10.4 11.1-16.6s-18-4.16-13.2-16.6 6.24-16.6 6.24-16.6z" opacity=".1"/>
  <path fill="#ffb9b9" d="M741.4 213.6s-4.85 63.7-3.46 66.5 0 99.1 0 99.1 9.7 52-2.77 54.7-9.7-58.2-9.7-58.2l-12.5-80.4 1.39-79.7z"/>
  <path d="M741.4 213.6s-4.85 63.7-3.46 66.5 0 99.1 0 99.1 9.7 52-2.77 54.7-9.7-58.2-9.7-58.2l-12.5-80.4 1.39-79.7z" opacity=".1"/>
  <path fill="#ffb9b9" d="M606.4 404.6s-22.9 86.6-22.2 129 9.7 101 9.7 101 1.39 25.6-.7 28.4 10.4 14.5 10.4 14.5l13.2-7.62 4.86-5.54v-4.85s-7.62-23.6-1.4-42.3 9.7-65.8 3.47-80.4l43-127z"/>
  <path fill="#2f2e41" d="M604.4 666.6s-8.31-10.4-13.9-6.93-14.5 27-14.5 27-31.2 29.8-9.01 31.2 31.9-6.24 34.6-11.8 28.4-20.1 28.4-20.1-2.77-26.3-6.93-27-10.4 10.4-10.4 10.4z"/>
  <path fill="#ffb9b9" d="M681.4 410.6v85.9a266 266 0 0 0 2.08 31.2c2.08 15.2-11.8 129-11.8 129l1.39 20.1 17.3-1.39 2.08-17.3 24.9-76.2s8.31-46.4 4.16-63.7 21.5-128 21.5-128z"/>
  <path fill="#2f2e41" d="m667.4 671.6 5.13-1.12s3.88-8.58 8.72-6.51a52.3 52.3 0 0 1 9.64 5.78l2.13 3.92s4.85 10.4 11.1 17.3 13.2 22.2 2.77 23.6-24.2 2.08-28.4-1.39-1.39-9.01-5.54-10.4-7.62-5.54-6.93-6.93 1.39-24.2 1.39-24.2z"/>
  <circle cx="682" cy="109" r="30.8" fill="#ffb9b9"/>
  <path fill="#1266f1" d="m623.4 163.6 9.15-3.19s-3.61 5.97 15.8 9.43 39.5 4.69 48.5-6.66c0 0 3.46-1.65 8.31 3.2s7.62 3.46 7.62 3.46l-3.46 18-6.93 33.3-9.01 24.9-25.6-5.54-27.7-20.1-10.4-27v-24.9z"/>
  <path fill="#1266f1" d="m708.4 172.6 6.93-4.85s23.6 4.16 24.9 15.2l-18 34.6a39.4 39.4 0 0 1-.7 29.8c-6.92 15.9-6.23 19.4-6.23 19.4l-4.85 20.8-88 6.93s-3.46-8.31-4.85-9.7-1.4-6.24 0-6.24 0-2.08-1.4-4.16-2.07-2.77 0-5.54-3.45-27.7-3.45-27.7v-27l-23.6-31.2s8.3-12.5 12.5-13.9 23.9-6.85 23.9-6.85l4.47 6.59 6.24 50.1 9 30.5 37.9-6.44 14.7-24.7 9.7-29.1z"/>
  <path fill="#1266f1" d="m734.4 179.6 5.54 4.16s4.85 38.8 3.46 41.6-25.6 5.54-26.3 4.16 17.3-49.9 17.3-49.9z"/>
  <path fill="#2f2e41" d="m620.4 159.6 6.93 45.7s-6.24 67.9-4.85 81.7l1.39 4.16s-2.77-1.39-3.46 1.39 0 11.8 0 11.8-4.16 4.16-5.54 27-18 77.6-11.8 79.7 43.6 12.5 63.7 10.4 92.1-26.3 91.4-32.6-35.3-94.2-35.3-94.2-6.24-10.4-6.24-11.8 8.31-6.93 6.24-12.5-13.2-63.7-13.2-63.7l7.62-41.6-10.4-2.77-7.62 40.2s-29.8 14.5-61 1.39l-6.93-47.1zM653.4 87.6s51.3 35.3 65.1 19.4-24.2-29.8-24.2-29.8l-31.9-3.46z"/>
  <path fill="#1266f1" d="M573.4 462.6a27 27 0 1 0-8.48-10.5l-70.7 58.9-9.41-11.2-4.23 2.83-4.71-5.59 3.87-3.26-4.71-5.59-6.02 5.07 2.9 3.44-6.45 5.43-2.9-3.44-9.45 7.97 4.35 5.16 3.44-2.9 4.71 5.59-4.3 3.62 8.69 10.3-10.3 8.69 10.5 12.5zm17.7-39.5a17.9 17.9 0 1 1-19.3 16.3 17.9 17.9 0 0 1 19.3-16.3z"/>
  <path fill="#ffb9b9" d="M584.4 221.6s4.85 63.7 3.46 66.5 0 99.1 0 99.1-9.7 52 2.77 54.7 9.7-58.2 9.7-58.2l12.5-80.4-1.39-79.7z"/>
  <path fill="#1266f1" d="m594.4 181.6-5.54 2.08s-10.4 43.6-7.62 43.6 36 4.16 36 2.77-6.24-35.3-6.24-35.3z"/>
</svg>
