<svg class="LemonIcon" width="1em" height="1em" fill="none" viewBox="0 0 24 24" xmlns="http://www.w3.org/2000/svg" focusable="false" aria-hidden="true"><path d="M23.4841 9.51355L23.4507 9.42452L20.2169 0.621934C20.1511 0.449408 20.0346 0.303054 19.8841 0.20387C19.7336 0.106371 19.5579 0.0594128 19.3809 0.0693348C19.204 0.0792569 19.0342 0.145582 18.8945 0.259354C18.7563 0.376393 18.6561 0.534985 18.6074 0.713547L16.4239 7.68129H7.58229L5.39878 0.713547C5.35143 0.534012 5.251 0.374625 5.11178 0.258063C4.97208 0.144291 4.80228 0.0779663 4.62529 0.0680442C4.44831 0.0581222 4.27267 0.105081 4.12208 0.20258C3.97193 0.302164 3.85553 0.44839 3.7893 0.620644L0.5493 9.41935L0.517135 9.50839C0.0516127 10.777 -0.00584844 12.1692 0.353415 13.4748C0.712679 14.7805 1.46919 15.929 2.50889 16.7471L2.52002 16.7561L2.54971 16.7781L7.4759 20.6258L9.91301 22.5497L11.3975 23.7187C11.5712 23.8562 11.7832 23.9307 12.0013 23.9307C12.2193 23.9307 12.4313 23.8562 12.605 23.7187L14.0895 22.5497L16.5266 20.6258L21.4825 16.7548L21.4949 16.7445C22.5322 15.9263 23.287 14.779 23.6457 13.4751C24.0044 12.1711 23.9477 10.781 23.4841 9.51355V9.51355Z" fill="#E24329"></path><path d="M23.4841 9.51355L23.4507 9.42451C21.875 9.76186 20.3902 10.458 19.1023 11.4632L12 17.0645C14.4186 18.9729 16.5241 20.631 16.5241 20.631L21.48 16.76L21.4924 16.7497C22.5312 15.9315 23.2871 14.7834 23.6464 13.4784C24.0056 12.1734 23.9486 10.7819 23.4841 9.51355Z" fill="#FC6D26"></path><path d="M7.47589 20.631L9.91301 22.5548L11.3975 23.7239C11.5712 23.8614 11.7832 23.9358 12.0013 23.9358C12.2193 23.9358 12.4313 23.8614 12.605 23.7239L14.0895 22.5548L16.5266 20.631C16.5266 20.631 14.4186 18.9677 12 17.0645C9.58146 18.9677 7.47589 20.631 7.47589 20.631Z" fill="#FCA326"></path><path d="M4.89652 11.4632C3.60966 10.4559 2.12514 9.75798 0.5493 9.41936L0.517135 9.50839C0.0516127 10.777 -0.00584844 12.1692 0.353415 13.4748C0.712679 14.7805 1.46919 15.929 2.50889 16.7471L2.52002 16.7561L2.54971 16.7781L7.4759 20.6258C7.4759 20.6258 9.57899 18.9677 12 17.0594L4.89652 11.4632Z" fill="#FC6D26"></path></svg>
