<svg class="LemonIcon" width="1em" height="1em" fill="none" viewBox="0 0 24 24" xmlns="http://www.w3.org/2000/svg" focusable="false" aria-hidden="true"><path d="M23.52 12.2727C23.52 11.4218 23.4436 10.6036 23.3018 9.81818H12V14.4654H18.4582C18.1745 15.96 17.3236 17.2254 16.0473 18.0764V21.0982H19.9418C22.2109 19.0036 23.52 15.9273 23.52 12.2727V12.2727Z" fill="#4285F4"></path><path d="M12 24C15.24 24 17.9564 22.9309 19.9418 21.0982L16.0473 18.0764C14.9782 18.7964 13.6145 19.2327 12 19.2327C8.87999 19.2327 6.22908 17.1273 5.27999 14.2909H1.28726V17.3891C3.26181 21.3055 7.30908 24 12 24Z" fill="#34A853"></path><path d="M5.28 14.28C5.04 13.56 4.89818 12.7964 4.89818 12C4.89818 11.2036 5.04 10.44 5.28 9.72001V6.62183H1.28727C0.469091 8.23637 0 10.0582 0 12C0 13.9418 0.469091 15.7636 1.28727 17.3782L4.39636 14.9564L5.28 14.28Z" fill="#FBBC05"></path><path d="M12 4.77818C13.7673 4.77818 15.3382 5.38909 16.5927 6.56727L20.0291 3.13091C17.9454 1.18909 15.24 0 12 0C7.30908 0 3.26181 2.69455 1.28726 6.62182L5.27999 9.72C6.22908 6.88364 8.87999 4.77818 12 4.77818Z" fill="#EA4335"></path></svg>
